<svg id="Capa_1" data-name="Capa 1" xmlns="http://www.w3.org/2000/svg" viewBox="0 0 800 600">
  <g>
    <rect x="638.56" y="286.07" width="5.88" height="199.59" transform="translate(30.3 -46.4) rotate(4.24)" fill="#2a3967"/>
    <path d="M660.5,478.31l-3.3,44.46c-.94,12.58-20.11,21.6-27.48,21.85-7.27-1.34-24.9-13.09-24-25.67l3.3-44.46,14,1a14.74,14.74,0,0,0,6.6,5.63,14.75,14.75,0,0,0,9.45.7,14.78,14.78,0,0,0,7.37-4.59Z" fill="#fc7600"/>
    <path d="M639.12,481.86,632,513.32l-2.37-32.16a14.75,14.75,0,0,0,9.45.7Z" fill="#ff912b"/>
    <path d="M660.72,289.64l-23.43-1.74a8.47,8.47,0,0,1-7.8-9l.76-10.23,4.21.32-.75,10.22a4.23,4.23,0,0,0,3.9,4.53L661,285.43a4.23,4.23,0,0,0,4.53-3.9l.76-10.23,4.21.31-.76,10.23A8.46,8.46,0,0,1,660.72,289.64Z" fill="#2a3967"/>
    <path d="M668.55,272.78,631.43,270a3.23,3.23,0,0,1-3-3.44h0a3.23,3.23,0,0,1,3.44-3L669,266.38a3.22,3.22,0,0,1,3,3.44h0A3.22,3.22,0,0,1,668.55,272.78Z" fill="#fc7600"/>
  </g>
  <g>
    <path d="M430.23,148.09s-1.54-6.3-4.13-9.14c-4.79-5.25-7.82-8.53-7.82-8.53C418.8,126.55,421.4,113,425,114s-.22,8.39,2.48,10.32,10.91,4.22,10.58,6.86,1.09,12.46,1.09,12.46Z" fill="#ffae73"/>
    <path d="M580.06,392.93c8.06,15.29,11,45,11.12,71.56.07,25.56-.63,48.33-.63,48.33l-17.82,5.07s-4-21.93-10.06-51.66c-4.49-21.92-10.13-48.08-16.17-72.82-1.47-6-2.87-12.07-4.2-18.07C533,333.62,527.08,294.69,527,289c-.14-11.38,37.37-2.09,41.28,10.69C568.28,299.64,576.77,386.7,580.06,392.93Z" fill="#ffae73"/>
    <path d="M591.18,464.49c.07,25.56-.63,48.33-.63,48.33l-17.82,5.07s-4-21.93-10.06-51.66C563,466.31,577.11,470.12,591.18,464.49Z" fill="#fff"/>
    <path d="M589.2,535.21l-47.56-.2s0-5.49,7.65-6.69c7.13-1.12,19.29-5.07,22.76-13.67,4.84,1.62,10.9,1.2,18.5-1.83C591,522.17,591.32,534.17,589.2,535.21Z" fill="#1e3865"/>
    <path d="M571.27,168.06c-.16,9.48-1.63,20.17-3.58,34.81a115.08,115.08,0,0,1-5.24,21.32c-2.88,6.82-6.11,7.92-6.11,7.92l-25,6.27-8.78,2.2L494.9,232s-12.54-36.38-7.43-56.84a160.76,160.76,0,0,1,12.87-34.65s24-5.59,49.48-2.2c8.25,1.1,16,2.39,19.7,12.4C571.27,155.44,571.34,163.76,571.27,168.06Z" fill="#ffcd76"/>
    <path d="M534.32,394.27c6.9,15.85,7.64,45.67,5.72,72.19-1.86,25.49-4.26,48.15-4.26,48.15l-18.16,3.72s-2.32-22.18-6.15-52.28c-2.82-22.19-6.48-48.7-10.64-73.83-1-6.12-2-12.25-2.84-18.33-6.13-42.31-9.1-81.57-8.75-87.3.71-11.35,4.84-34.89,6.6-44.64.5-2.71.81-4.36.81-4.36l37.1.08a38,38,0,0,1,2.39,3,72.18,72.18,0,0,1,12.24,26.88S531.51,387.81,534.32,394.27Z" fill="#ffae73"/>
    <path d="M548.38,267.51l-8.28,99.3v.05l-.33,3.91,0,.43c-23.75,6.67-36,4.91-41.75,2.69a11.35,11.35,0,0,1-4.6-2.79s-6.08-74.7-6.05-90.6S495.26,242,495.26,242l.58,0,40.3-1.32A72.18,72.18,0,0,1,548.38,267.51Z" fill="#fc7600"/>
    <path d="M503.77,240.11l-4.55,40.41,33.72,99.75s28,.41,50.63-9c0,0-2.64-83.72-8-96.69s-17.83-34-17.83-34Z" fill="#ff912b"/>
    <path d="M494.47,231s5.49,4.37,16.43,4.61c13.06.29,45.44-3.23,45.44-3.23a26.7,26.7,0,0,1,1.36,8.26s-39.55,9.89-62.44,1.33C495.26,242,492.32,236.4,494.47,231Z" fill="#1e3865"/>
    <path d="M507.74,246.86c-3.28,0-5.95-3-5.94-6.76s2.68-6.74,6-6.73,6,3,6,6.76S511,246.87,507.74,246.86Zm0-11.51c-2.2,0-4,2.13-4,4.76s1.78,4.77,4,4.78,4-2.13,4-4.76S510,235.35,507.77,235.35Z" fill="#fff"/>
    <g>
      <path d="M538.47,137.58a61,61,0,0,1-2.91-20.19l-1.26.24-21.09,4.13s.47,6.63.47,12.88v.16c0,5.43,2,7.64,4.1,7.85C524.13,143.29,539.85,141.45,538.47,137.58Z" fill="#ffae73"/>
      <path d="M513.21,121.76s.47,6.63.47,12.88c11.8-.3,18.05-11,20.62-17Z" fill="#f48f4e"/>
      <g>
        <path d="M535.49,72.17s-25.4-7.09-32.15-1.21S501.71,99,501.71,99l33.48,18.78s.44-1.73,5.1-2.56,14.15-6.76,12.39-13.25S535.49,72.17,535.49,72.17Z" fill="#0b3563"/>
        <path d="M507.82,124.78s27.63,4,29.84-13.29,7.25-28.35-10.3-31.6-21.82,2.88-24,8.46S500.69,123.3,507.82,124.78Z" fill="#ffae73"/>
        <path d="M514.8,77.87s5,21.19,16.28,25.66,16.7,2,16.7,2a33.23,33.23,0,0,1-8.32-20.83S521.74,69,514.8,77.87Z" fill="#0b3563"/>
        <path d="M516.47,79.75s-5.88,1.39-8.72,5.19A28.07,28.07,0,0,0,502,100.31s-4-14.48,3.43-21.45C513.29,71.47,516.47,79.75,516.47,79.75Z" fill="#0b3563"/>
        <path d="M515.2,114.84a7,7,0,0,1-6,1.61,5.14,5.14,0,0,1-3.91-3.36S511.09,112.45,515.2,114.84Z" fill="#e8f2fa"/>
        <path d="M514.53,115.22s-.74,2-5.75,1c0,0-4.22-.8-3.8-3C505,113.22,509.29,112.16,514.53,115.22Z" fill="#fff"/>
        <path d="M555,92.26S565,68,547.93,59.93s-28.86-3.57-37.09,8.4Z" fill="#f4bb6b"/>
        <path d="M554.39,87.75a113.45,113.45,0,0,0-20-13.3,119.64,119.64,0,0,0-18.14-7.78c-14.71-4.83-26.61-4.86-29.6.81-2.91,5.51,2.16,14.82,13.79,24-.33-2.73-.46-4.82-.57-8,0-2.34-.09-4,.74-5.61,1-1.84,3.44-2.75,6.86-2.77,5.88,0,14.61,2.49,23.55,7.21,10.77,5.69,18.73,12.92,20.75,18.25,0,0,0,0,0,0s0,.12.07.19.12.35.17.53.09.34.12.5a4.52,4.52,0,0,1,.11.8,4.21,4.21,0,0,1,0,1.18.86.86,0,0,1,0,.17c-.58,3.91-4.79,7.8-7.11,9.52,10.94,2.44,19.55,1.14,22-3.47C569.75,104.83,564.5,96.31,554.39,87.75Z" fill="#ffcd76"/>
      </g>
    </g>
    <path d="M540,466.46c-1.86,25.49-4.26,48.15-4.26,48.15l-18.16,3.72s-2.32-22.18-6.15-52.28C511.76,466.15,525.58,471,540,466.46Z" fill="#fff"/>
    <path d="M534.18,535.1l-48.58.4s1-6.09,8.67-7.3c7.13-1.12,19.29-5.07,22.76-13.67,4.84,1.62,11.18,2.1,18.77-.93C536.24,523,536.3,534.06,534.18,535.1Z" fill="#1e3865"/>
    <path d="M500.34,140.49s-9.08.79-19,14.84c-13.22,18.64-38.84,35.57-36.56,41.78,1.45,4,3.84,7.57,9.21,7.2,11.33-.79,29.51-11.44,35.32-22.29C497.83,166,500.34,140.49,500.34,140.49Z" fill="#ffae73"/>
    <path d="M430.23,148.09l14.51,49s22.49-8.88,16.59-16c-13.06-15.77-22.69-41-22.69-41S440.43,141.33,430.23,148.09Z" fill="#ffae73"/>
    <g>
      <path d="M418.1,117a15.12,15.12,0,0,1,17-7c6.52,1.72,11.18,8.89,9.91,15.51-1.66,8.62-8.7,11.52-15.22,9.8a16.34,16.34,0,0,1-6.18-4L419.32,134C416.89,132.17,414.15,124.19,418.1,117Z" fill="#ff912b"/>
      <path d="M423.45,131.32c0-.08-4-7.78,1.91-14.18a8.8,8.8,0,0,1,9.15-2.77c3.3.91,6.1,3.57,6.67,6.33a8.09,8.09,0,0,1-1.25,6.65A6.61,6.61,0,0,1,435,130a6.06,6.06,0,0,1-5.19-2,5.58,5.58,0,0,1-1.24-4.82,4.6,4.6,0,0,1,2.73-3.3,5,5,0,0,1,4.58.38,3.39,3.39,0,0,1,1.41,3.84c-.29,1.27-1.09,2.25-1.89,2.33a2.88,2.88,0,0,1-2.87-1,1.18,1.18,0,0,1,.13-1.38l.21.16a.94.94,0,0,0-.11,1.09,2.64,2.64,0,0,0,2.61.88c.68-.07,1.4-1,1.66-2.13a3.21,3.21,0,0,0-1.29-3.55,4.74,4.74,0,0,0-4.34-.37,4.3,4.3,0,0,0-2.57,3.12,5.28,5.28,0,0,0,1.18,4.59,5.84,5.84,0,0,0,5,1.94,6.37,6.37,0,0,0,4.72-2.51,7.87,7.87,0,0,0,1.2-6.44c-.55-2.66-3.27-5.24-6.48-6.12l-.1,0a8.53,8.53,0,0,0-8.79,2.72c-5.74,6.26-1.9,13.8-1.86,13.88Z" fill="#fc7600"/>
    </g>
    <path d="M438.64,140.08s1.15-2.68,2.2-3.49.07-6.87,0-8.81-1-.74-2.2,0-.67,5.54-2.34,6.77-4.13,4.21-2.82,5.53S438.64,140.08,438.64,140.08Z" fill="#ffae73"/>
    <path d="M506.09,139.39s-9.42.68-16.21,4.6-20.46,23.2-20.46,23.2,6.07,17.07,18.34,20.78S506.09,139.39,506.09,139.39Z" fill="#ffcd76"/>
    <g>
      <path d="M484.68,140.63s2-8.08,2.9-10a2.51,2.51,0,0,0-2.43.35,5.5,5.5,0,0,0-2.26,4.51A12.6,12.6,0,0,0,484.68,140.63Z" fill="#ffae73"/>
      <g>
        <path d="M448.43,121.21s5.17,3.13,8,1.35.88-2.48.88-2.48-1.22-2.76-6.68-3.43a12.8,12.8,0,0,0-1.35,2.15A7.76,7.76,0,0,0,448.43,121.21Z" fill="#ff912b"/>
        <path d="M494.25,134.12l-.48,1.35a1.34,1.34,0,0,1-1.74.8l-35.55-13.66a1.33,1.33,0,0,1-.78-1.7h0a1.32,1.32,0,0,1,1.69-.82l36,12.31A1.34,1.34,0,0,1,494.25,134.12Z" fill="#0b3563"/>
      </g>
      <path d="M484.86,144s-.42-16.7-4.84-18.6-11-3.06-11.83-1.61,3.47,7.86,3.73,9.57-.87,4.4.1,6.6,5.44,8.62,5.44,8.62Z" fill="#ffae73"/>
      <path d="M564.86,156.92a12.14,12.14,0,0,0-20.29-2.33c-3.29,4-7.66,9.61-12.72,16.89-2.38,3.43-11.56,12.75-14.69,10-13.54-11.92-32.3-37.48-32.3-37.48a34.2,34.2,0,0,0-4.72,2,7.52,7.52,0,0,0-2.68,2.56c2.59,8.94,21.56,48.5,35.25,56.45,14.53,9.87,47.24-22.67,51.69-27.81C567.16,174,568.53,164.46,564.86,156.92Z" fill="#ffae73"/>
    </g>
    <path d="M545.33,145.78c-.72.23-14,20-14,20s10.7,22.7,30.93,23.13c0,0,14.73-30,4.87-36.93S545.33,145.78,545.33,145.78Z" fill="#ffcd76"/>
  </g>
  <g>
    <path d="M417.8,461.47c-1.42,2.21-2.58,2.43-4.41,1.33s-10-.94-15.6-9.75,4.72-7.9,4.72-7.9,8.74-.6,12.07,2.73S419.21,459.26,417.8,461.47Z" fill="#f9924f"/>
    <path d="M402.7,449.76c-2.38,3.22-4.91,3.29-4.91,3.29s-6.47-3-15.2-7.56c-14.36-7.46-34.85-19-42.73-28.06-5.7-6.52-24-43.43-33-62a22.41,22.41,0,0,1,3.59-25c5.24-5.68,12.9-10.26,23.21-7.38,11.85,3.31,15.26,24.72,15.26,24.72s10.66,53.09,13.62,56.61c1.67,2,14.27,14.8,24.89,25.53,8.14,8.23,15.12,15.24,15.12,15.24S405.73,445.67,402.7,449.76Z" fill="#f9924f"/>
    <path d="M313,533.58c-4,4.59-22.11,5.85-43.73,5.59q-3.85-.06-7.82-.16c-16.29-.43-29.22-1.11-38.63-1.74-12.21-.81-18.49-1.53-18.49-1.53s-4.13-2.28,1.75-14.79c0,0,16,1,40.3-6.68,3.25-1,6.66-2.22,10.2-3.59.67-.26,1.34-.5,2-.73,11.82-4.08,15.79-3,16.08-3.13,2.6-1.48-63.13-57.37-34.64-91.8,15.42-18.64,46.06-2.37,46.06-2.37S324.23,520.78,313,533.58Z" fill="#f9924f"/>
    <path d="M252.41,536.56s-13.62.34-29.55.71c-12.21-.81-18.49-1.53-18.49-1.53s-4.13-2.28,1.75-14.79c0,0,16,1,40.3-6.68C249,523.92,252.41,536.56,252.41,536.56Z" fill="#f0b25d"/>
    <path d="M235.4,395.83s-13.36,10.25-4.48,48.54C236,466.25,259,503.22,259,503.22s19.41,2.91,56.07-10.23L285,398.35Z" fill="#fc7600"/>
    <path d="M205.92,536.56s-30.58-1.5-38.6-1.5-10-8.21-10-8.21,5.52-5.52,20.89-7.43c3.66-.46,11.83-4.34,16.15-6.5a5.44,5.44,0,0,1,5.58.44c3.12,2.22,7.74,5.92,7.74,8.41C207.67,525.53,203.66,531.55,205.92,536.56Z" fill="#162444"/>
    <path d="M282.9,537c-4,4.58-22.11,5.85-43.73,5.58q-3.85,0-7.82-.15c-37.42-1-57.12-3.27-57.12-3.27s-4.13-2.29,1.75-14.79c0,0,20.59,1.31,50.5-10.27.67-.26,1.34-.51,2-.74,11.82-4.07,15.79-3,16.08-3.13,2.6-1.48-63.13-57.37-34.64-91.79C225.34,399.84,256,416.1,256,416.1S294.09,524.24,282.9,537Z" fill="#ffae73"/>
    <path d="M205.26,399.29s-13.37,10.24-4.48,48.54c5.07,21.87,28.11,58.85,28.11,58.85s19.41,2.9,56.07-10.23l-19.82-94.12Z" fill="#ff912b"/>
    <path d="M335.35,312.37s1.63,34.51,14.73,45.56c0,0,.77-11.81,3.45-17.3,2.37-1,4.49-1.95,6.35-2.81a101.53,101.53,0,0,0,9.45-4.93l1.84-16.14,1.25-10.95a49.85,49.85,0,0,1-9.27,5C347.71,317.06,335.35,312.37,335.35,312.37Z" fill="#ffae73"/>
    <path d="M363.15,310.8s-5.55,11-.2,25.53a57,57,0,0,0,8.83-4.85l-.61-14.73A32.08,32.08,0,0,0,363.15,310.8Z" fill="#f9924f"/>
    <path d="M372.34,336.9S354.1,316.49,367,305.33s19.21-21.32,31.4-8.76,9.5,19.39,6.1,24.16S377.41,341.92,372.34,336.9Z" fill="#ffae73"/>
    <path d="M332.85,381.7a140.61,140.61,0,0,1-18.33,14.88q-1.93,1.34-3.79,2.66c-7.7,5.54-7.77,12.11-10.25,18.69-2.82,7.51-1.06,12.9-2.41,14.21-23,22.51-96.48-10.52-98.72-26.58-1.1-7.93,18.56-30.17,30.57-43,9.17-9.79,17.38-17.42,17.38-17.42,52.27-44.31,98.63-32.77,102.27-31.78l.22.07s-6.75,25.68,3.13,38.19a.5.5,0,0,1,0,.13C351.13,360.55,343.4,371.51,332.85,381.7Z" fill="#ffcd76"/>
    <path d="M377,277.52c0-.39-.29-1-1.24-1.88a5.3,5.3,0,0,1,2.33,1.07c1.43-1.23,4.33-3.09,7.25-1.64A4,4,0,0,0,382,276c5.27-.5,13,2.51,28.37,18,20.21,20.46.89,28.41-3.37,27.67s-7.36-11.45-13-15.54-13.22,2.73-15.91,2.25-.38-1.73-1.83-4.91-5.17.67-6.74,3.9-7.87,3.85-7.87,3.85l.19-2.47c-5.23-11.73,9.61-28.75,14-30.74Z" fill="#25468f"/>
    <path d="M352.92,351.6c-6.25,28.5-43.4,53.72-69.77,61.41-40.29-19.26-50.66-41.92-53.23-50.47,9.17-9.79,17.38-17.42,17.38-17.42,52.27-44.31,98.63-32.77,102.27-31.78l.22.07S350.09,338.82,352.92,351.6Z" fill="#ff912b"/>
    <path d="M352.92,351.6s4.7-37,3.28-38.91-9.66,0-9.66,0S340.19,341.68,352.92,351.6Z" fill="#fc7600"/>
    <path d="M174.23,539.2s-30.58-1.5-38.6-1.5c-5.95,0-8.58-4.52-9.54-6.85a1.89,1.89,0,0,1,.62-2.25c2.27-1.63,8.25-5.11,19.8-6.54,3.9-.49,12.93-5.9,17-8.4a3.26,3.26,0,0,1,3.86.28c3,2.57,8.66,7.72,8.66,10.47C176,528.17,172,534.19,174.23,539.2Z" fill="#2a3967"/>
    <path d="M239.17,542.62q-3.85,0-7.82-.15c-37.42-1-57.12-3.27-57.12-3.27s-4.13-2.29,1.75-14.79c0,0,20.59,1.31,50.5-10.27.67-.26,1.34-.51,2-.74C229.83,521,232.93,534,239.17,542.62Z" fill="#ffcd76"/>
    <g>
      <path d="M367.23,286.05s7.15-25.27,25.56-21,24.86,15.11,23.89,29.59Z" fill="#f4bb6b"/>
      <path d="M346.77,292.43c-.95,5.13,5,11.5,15.09,16.37-.75-2.78-1.64-8.45.33-11.88a1.09,1.09,0,0,1,.08-.15,4.84,4.84,0,0,1,.7-.95,5.12,5.12,0,0,1,.58-.56l.41-.32.46-.3a.87.87,0,0,1,.18-.11h0c4.89-2.93,15.61-3.66,27.59-1.44,9.94,1.84,18.36,5.28,22.94,9a9.41,9.41,0,0,1,3.66,6.43c.27,1.45.38,3-1.51,6.23a28.29,28.29,0,0,1-4.79,5.7c14.82,0,22.54-5.26,23.68-11.39,1.17-6.3-8.18-13.66-22.71-19a119.09,119.09,0,0,0-19.06-5.15,114,114,0,0,0-23.94-2C357.23,283.3,347.82,286.73,346.77,292.43Z" fill="#ffcd76"/>
    </g>
    <g>
      <path d="M378.6,494.19a13.31,13.31,0,0,1-3.12,3.27c-3.43,3-6.2,2.42-6.35,2.39h0l0,0h0l0,0c-.53-.44-4-3.35-8.89-7.76-1.1-1-2.28-2-3.51-3.16-13.94-12.66-35.41-33.44-42-46.88-4.52-9.18-14.65-57.13-19.55-81.24A27.2,27.2,0,0,1,306,332.88c7.38-5.06,17.17-8.14,27.81-1.86,12.27,7.24,10.13,33,10.13,33s-2.84,64.47-.53,69.39c1.52,3.22,15.71,27.07,25.38,43.22,1.41,2.36,2.72,4.55,3.89,6.49,3.07,5.12,5.47,9,5.47,9l0,0a4,4,0,0,1,.58.91l0,.13A1.3,1.3,0,0,1,378.6,494.19Z" fill="#ffae73"/>
      <g>
        <path d="M396.17,518.54c-1.26,1.75-10-5.25-11.7-7.89s-9.4-1.42-11.55-5.26a48.16,48.16,0,0,0-3.84-5.58h0c-1.7-2.2-3.19-3.92-3.19-3.92l6.54-5.48s2,.78,4.64,2c.54.24,1.1.49,1.68.77,2.11,1,4.47,2.14,6.62,3.33a24.07,24.07,0,0,1,6.07,4.34C395,505,397.42,516.79,396.17,518.54Z" fill="#ffae73"/>
        <path d="M385.37,496.5a8.15,8.15,0,0,1-4.77-1c-.84-.49-1.49-.92-2-1.29-1.15-.86-1.49-1.43-1.53-1.79a.52.52,0,0,1,.29-.54l.78.27a43.5,43.5,0,0,0,9.26,2.1C390.26,494.43,388.41,496.24,385.37,496.5Z" fill="#ffae73"/>
      </g>
    </g>
    <path d="M396.17,518.54c-1.26,1.75-10-5.25-11.7-7.89s-9.4-1.42-11.55-5.26a48.16,48.16,0,0,0-3.84-5.58h0l0,0c-.53-.44-4-3.35-8.89-7.76-1.1-1-2.28-2-3.51-3.16,6.62-3.24,10.41-9,12.1-12.24,1.41,2.36,2.72,4.55,3.89,6.49,3.07,5.12,5.47,9,5.47,9l0,0a43.5,43.5,0,0,0,9.26,2.1c2.86.2,1,2-2,2.27a24.07,24.07,0,0,1,6.07,4.34C395,505,397.42,516.79,396.17,518.54Z" fill="#ffcd76"/>
    <path d="M294,373.81c-1.81,0-7.25-31.58,8.44-40.79s28.49-7.25,34-3.35,9.18,19.09,9.56,27.44C346,357.11,338.76,373.6,294,373.81Z" fill="#ffcd76"/>
    <path d="M414,449.13s-3.35,4.86-1.94,7.54,6.46,6.87,6.16,3.5S415.39,449.39,414,449.13Z" fill="#f9924f"/>
    <path d="M417.8,461.47c-1.42,2.21-2.58,2.43-4.41,1.33s-10-.94-15.6-9.75c0,0-6.47-3-15.2-7.56,2.6-5,4.13-11.93,4.8-15.58,8.14,8.23,15.12,15.24,15.12,15.24s8.74-.6,12.07,2.73S419.21,459.26,417.8,461.47Z" fill="#ffcd76"/>
    <g>
      <path d="M426,492.49h0a2.5,2.5,0,0,1-3.17-1.56L399.52,422.3a2.5,2.5,0,0,1,1.57-3.17h0a2.49,2.49,0,0,1,3.17,1.56l23.32,68.63A2.5,2.5,0,0,1,426,492.49Z" fill="#2a3967"/>
      <g>
        <path d="M433.23,485.22l7.22,21.25c2,6-2.48,13.09-4.82,14.31-2.61.46-10.51-2.39-12.55-8.41l-7.22-21.25,4.73-1.6a5.79,5.79,0,0,0,3.19,1.64,3.85,3.85,0,0,0,1.72-.17,3.77,3.77,0,0,0,1.47-.92,5.73,5.73,0,0,0,1.53-3.24Z" fill="#fc7600"/>
        <path d="M427,490.07l3.57,15.75-6.76-14.66a3.85,3.85,0,0,0,1.72-.17A3.77,3.77,0,0,0,427,490.07Z" fill="#ff912b"/>
      </g>
    </g>
    <path d="M401.47,444.1a5.11,5.11,0,0,0,2.88,0c1.19-.5,3.12-1.83,5.39-.73s7.3,3.8,7,4.75-5.47.59-6.82,1-1.19,3.44-4.84,2.17-6.19-6.19-6.19-6.19Z" fill="#ffcd76"/>
  </g>
</svg>
