<svg xmlns="http://www.w3.org/2000/svg" xmlns:xlink="http://www.w3.org/1999/xlink" viewBox="0 0 116.79 111.76">
  <defs>
    <linearGradient id="Áåçûìÿííûé_ãðàäèåíò_12" data-name="Áåçûìÿííûé ãðàäèåíò 12" x1="107.07" y1="128.63" x2="-65.25" y2="-161.73" gradientUnits="userSpaceOnUse">
      <stop offset="0" stop-color="#d43726"/>
      <stop offset="0.02" stop-color="#d23627"/>
      <stop offset="0.32" stop-color="#a9203b"/>
      <stop offset="0.59" stop-color="#8b104a"/>
      <stop offset="0.83" stop-color="#790653"/>
      <stop offset="1" stop-color="#730356"/>
    </linearGradient>
    <linearGradient id="Áåçûìÿííûé_ãðàäèåíò_11" data-name="Áåçûìÿííûé ãðàäèåíò 11" x1="9353.18" y1="-1878.07" x2="9406.75" y2="-1878.07" gradientTransform="matrix(-0.7, 0.71, -0.71, -0.7, 5322.76, -7967.69)" gradientUnits="userSpaceOnUse">
      <stop offset="0" stop-color="#ffebb5"/>
      <stop offset="1" stop-color="#f2c18d"/>
    </linearGradient>
    <linearGradient id="Áåçûìÿííûé_ãðàäèåíò_11-2" x1="147.12" y1="-59.3" x2="133.8" y2="-14.33" gradientTransform="translate(-111.21 89.47) rotate(7.82)" xlink:href="#Áåçûìÿííûé_ãðàäèåíò_11"/>
    <linearGradient id="Áåçûìÿííûé_ãðàäèåíò_11-3" x1="-979.69" y1="-2107.71" x2="-987.88" y2="-2080.03" gradientTransform="translate(-595.07 -2184.96) rotate(-170.97)" xlink:href="#Áåçûìÿííûé_ãðàäèåíò_11"/>
  </defs>
  <g style="isolation: isolate">
    <g id="Capa_2" data-name="Capa 2">
      <g id="Ñëîé_1" data-name="Ñëîé 1">
        <g>
          <path d="M36.67,111.67c3.75-.24,15.32-5.81,15.32-5.81S63.9,81.59,64.13,79.25,56.2,62.88,54.2,60.76s-10.11-3-10.11-3,17.47-2.71,19.82-5.36,6.84-7,6.84-7l4.13,4.86S62.7,67,67.59,72.69s36.41,2.81,38.09-2-7.12-22.58-6.19-26.57,21.8-28.29,16.41-38-42-6-42.14-1.4S62,13.33,62,13.33,43.71,8,34.08,13.25,30,42.48,30,42.48,11.87,38,3.25,56,2.26,113.84,36.67,111.67Z" style="fill: url(#Áåçûìÿííûé_ãðàäèåíò_12)"/>
          <g>
            <path d="M74.28,60.84c1.52-3.72,6.82-8.72,10.29-16.48l.18-.42h0A45.64,45.64,0,0,0,87.84,28h0a24,24,0,0,0-.06-2.72,4.3,4.3,0,0,0-.12-.77c-.34-1.27-2.09-1.54-2.94-2.33h0a1.29,1.29,0,0,1-.46-.94c-.07-1.66,4.8-9.11,10.6-9.8a6.71,6.71,0,0,1,2.51.15c4.22,1,6.56,5.76,6.78,6.49s-4.72,6.42-8.32,15.62S93.77,50,97.55,58.38A8.41,8.41,0,0,1,97.62,64l-.06.18h0c-.07.19-.15.38-.23.57h0A5.19,5.19,0,0,1,95.47,67c-2.67,1.68-6.39-2.35-7.7-2.18a8.09,8.09,0,0,0-2.75,1C84,66.32,72.76,64.55,74.28,60.84Z" style="fill: url(#Áåçûìÿííûé_ãðàäèåíò_11)"/>
            <path d="M84.26,21.22c-.07-1.66,4.8-9.11,10.6-9.8a6.71,6.71,0,0,1,2.51.15c-.16.21-.57.35-1.3.37-3.8.06-8.8,5.78-8.91,7s9.67,1.9,13.41,1.76c-4.22,2.67-13.27,3.1-15.85,1.41h0A1.29,1.29,0,0,1,84.26,21.22Z" style="fill: #de976d;opacity: 0.46;mix-blend-mode: multiply"/>
            <path d="M97.33,64.8A5.19,5.19,0,0,1,95.47,67c-2.67,1.68-6.39-2.35-7.7-2.18a8.09,8.09,0,0,0-2.75,1c-1,.45-12.26-1.32-10.74-5s7.89-8.76,11.36-16.52a13,13,0,0,0,.7-1.62l2-6.32.11.23,0-1.6a33.42,33.42,0,0,0,.49-9.79c2.55,4.24,2,9.5.64,13.77l0,.08c-.15.35-1.73,4.85-1.88,5.13C85.8,47.56,76.2,59.14,76,61.92s7.37,4.18,8.68,3,3.47-8.16,4.32-8.24-.14,7.61,2,9.36C93,67.63,96.33,66.57,97.33,64.8Z" style="fill: #de976d;opacity: 0.46;mix-blend-mode: multiply"/>
            <path d="M95.12,30.15S91.88,39,91.84,42.88s2.83,15,2.83,15-4.31-9.43-4.4-14.08S95.12,30.15,95.12,30.15Z" style="fill: #de976d;opacity: 0.17;mix-blend-mode: multiply"/>
          </g>
          <g>
            <path d="M49.1,85.25c-2.53,9.63-9,18.41-24,9.68C8.3,85.23,8.93,72.21,14.49,63.6c3.44-5.34,8.79-9,13.05-9.09,11.13-.27,14.64,16.8,14.64,16.8s6.61-2.79,7.89-2.25C50.63,69.3,51.12,77.54,49.1,85.25Z" style="fill: url(#Áåçûìÿííûé_ãðàäèåíò_11-2)"/>
            <path d="M41.7,74.85s.72,13.8-4.86,17-18.24-7.74-18-15.72,8.49-9.3,10.88-9,4.92,15.37,2.63,17-5-4.2-5-4.2S30,83.52,31.56,83s-.66-14.25-3-14-7.43,3.58-7.41,8.72,10.53,14.52,15,12.53S41.7,74.85,41.7,74.85Z" style="fill: #de976d;mix-blend-mode: multiply"/>
            <path d="M29.13,65.91s1.54-8.62-.85-9.58-8.15,2.85-8.06,4.21,3,6.82,3,6.82Z" style="fill: #de976d;opacity: 0.46;mix-blend-mode: multiply"/>
            <path d="M20.49,69.05s-3.37-5-5.24-3.87-3.56,8.89-3,11.4,5.59,1.31,5.59,1.31S17.08,70.93,20.49,69.05Z" style="fill: #de976d;opacity: 0.46;mix-blend-mode: multiply"/>
            <path d="M14.53,83.42c-.47-2.13,3.54-2.35,3.54-2.35L21,85.67s-.94,3.54-2.39,3S14.53,83.42,14.53,83.42Z" style="fill: #de976d;opacity: 0.46;mix-blend-mode: multiply"/>
            <path d="M23.79,89s-2.32,2.07-1.42,3.18,4.68,3.32,5.28,3,1.25-3,1.25-3A20.65,20.65,0,0,1,23.79,89Z" style="fill: #de976d;opacity: 0.46;mix-blend-mode: multiply"/>
            <path d="M32.39,93.68s-1.45,3.22.1,3.82,4.92.28,6-.65-1.29-3.58-1.29-3.58A7.56,7.56,0,0,1,32.39,93.68Z" style="fill: #de976d;opacity: 0.46;mix-blend-mode: multiply"/>
            <path d="M41.48,88.26l-1.84,3.53s2,3.07,3.23,2.79,3-3.65,3.13-4.44S41.48,88.26,41.48,88.26Z" style="fill: #de976d;opacity: 0.55;mix-blend-mode: multiply"/>
            <path d="M43.12,73.69,43,77.28s5.85,1.35,6.26.32,1-4.73-.09-5.87S43.12,73.69,43.12,73.69Z" style="fill: #de976d;opacity: 0.58;mix-blend-mode: multiply"/>
            <path d="M42.66,79.67l-.85,6.2S46.19,87.46,47,87s1.91-6,1.55-6.73S42.66,79.67,42.66,79.67Z" style="fill: #de976d;opacity: 0.58;mix-blend-mode: multiply"/>
            <path d="M32.56,66.56s3.07-5.35,4.34-4.72,2.79,6,2.68,7.4-5.77,2.63-5.77,2.63Z" style="fill: #de976d;opacity: 0.37;mix-blend-mode: multiply"/>
            <path d="M34.17,75.8s5.15-1.37,5.7.51,0,7-1,7.44-4.79-1.2-4.79-1.2Z" style="fill: #de976d;opacity: 0.31;mix-blend-mode: multiply"/>
            <path d="M32.47,85.58l1.28-.82s3.78,2,3.26,3.24-3.27,2.08-3.91,1.54S32.47,85.58,32.47,85.58Z" style="fill: #de976d;opacity: 0.30000000000000004;mix-blend-mode: multiply"/>
            <path d="M29.92,85.29s-.06,2.18-.75,2.09S26,85.76,26.06,85s2-1.3,2-1.3Z" style="fill: #de976d;opacity: 0.30000000000000004;mix-blend-mode: multiply"/>
            <path d="M24.06,82.53a8,8,0,0,1-1.5-2.94c0-.85,2.92-.74,2.92-.74l.86,2.62S25.15,82.91,24.06,82.53Z" style="fill: #de976d;opacity: 0.30000000000000004;mix-blend-mode: multiply"/>
            <path d="M26.63,77.56s-4.58-1.44-4.26-2.48,2.32-3.74,3.21-3.7,2.05,5.42,2.05,5.42Z" style="fill: #de976d;opacity: 0.30000000000000004;mix-blend-mode: multiply"/>
            <path d="M28.67,76.49s-1.12-3.67.18-3.94,4,9.56,1.69,8.7C29.34,80.82,28.67,76.49,28.67,76.49Z" style="fill: #de976d;opacity: 0.30000000000000004;mix-blend-mode: multiply"/>
            <path d="M47.82,85.4c-2.35,9-8.34,17.14-22.38,9-15.59-9-15-21.14-9.83-29.15-1.56,3.69-2.7,8.64-.85,13.33,3.63,9.14,14,18,23.88,15.7C44.15,93,46.67,88.83,47.82,85.4Z" style="fill: #de976d;opacity: 0.46;mix-blend-mode: multiply"/>
          </g>
          <g>
            <path d="M38.23,29c1.68-5.88,5.75-11.2,14.91-5.64,10.18,6.19,9.63,14.19,6.1,19.41-2.19,3.24-5.52,5.41-8.15,5.42-6.85,0-8.79-10.52-8.79-10.52s-4.1,1.63-4.88,1.28C37.07,38.79,36.88,33.71,38.23,29Z" style="fill: url(#Áåçûìÿííûé_ãðàäèåíò_11-3)"/>
            <path d="M42.65,35.49s-.27-8.5,3.21-10.4S57,30.08,56.69,35s-5.34,5.61-6.8,5.38-2.83-9.52-1.4-10.47,3.39,4.24,3.39,4.24-1.27-2.85-2.26-2.56S50,38.11,51.45,38s3.85-.85,3.91-4-6.3-9.07-9.1-7.91S42.65,35.49,42.65,35.49Z" style="fill: #de976d;mix-blend-mode: multiply"/>
            <path d="M50.26,41.15s-1.06,5.29.4,5.91,5.05-1.65,5-2.49a23.3,23.3,0,0,0-1.77-4.23Z" style="fill: #de976d;opacity: 0.46;mix-blend-mode: multiply"/>
            <path d="M55.62,39.33s2,3.1,3.17,2.45,2.31-5.42,2-7-3.43-.88-3.43-.88S57.74,38.22,55.62,39.33Z" style="fill: #de976d;opacity: 0.46;mix-blend-mode: multiply"/>
            <path d="M59.47,30.57c.26,1.32-2.21,1.4-2.21,1.4L55.55,29.1s.63-2.16,1.51-1.79S59.47,30.57,59.47,30.57Z" style="fill: #de976d;opacity: 0.46;mix-blend-mode: multiply"/>
            <path d="M53.84,27s1.46-1.25.92-1.94-2.84-2.1-3.21-1.94S50.74,25,50.74,25A12.54,12.54,0,0,1,53.84,27Z" style="fill: #de976d;opacity: 0.46;mix-blend-mode: multiply"/>
            <path d="M48.62,24s.93-1.95,0-2.34a5,5,0,0,0-3.74.31c-.71.56.75,2.23.75,2.23A4.66,4.66,0,0,1,48.62,24Z" style="fill: #de976d;opacity: 0.46;mix-blend-mode: multiply"/>
            <path d="M43,27.24l1.18-2.15s-1.2-1.91-2-1.75-1.91,2.2-2,2.69S43,27.24,43,27.24Z" style="fill: #de976d;opacity: 0.55;mix-blend-mode: multiply"/>
            <path d="M41.76,36.18l.12-2.2S38.3,33.07,38,33.7s-.68,2.89,0,3.61S41.76,36.18,41.76,36.18Z" style="fill: #de976d;opacity: 0.58;mix-blend-mode: multiply"/>
            <path d="M42.12,32.51l.6-3.8s-2.67-1-3.16-.78-1.25,3.7-1,4.12S42.12,32.51,42.12,32.51Z" style="fill: #de976d;opacity: 0.58;mix-blend-mode: multiply"/>
            <path d="M48.16,40.71s-2,3.25-2.73,2.85S43.79,39.84,43.87,39s3.59-1.55,3.59-1.55Z" style="fill: #de976d;opacity: 0.37;mix-blend-mode: multiply"/>
            <path d="M47.29,35s-3.19.78-3.5-.39.07-4.33.72-4.56,2.94.8,2.94.8Z" style="fill: #de976d;opacity: 0.31;mix-blend-mode: multiply"/>
            <path d="M48.46,29l-.8.48s-2.3-1.31-2-2,2-1.24,2.43-.9S48.46,29,48.46,29Z" style="fill: #de976d;opacity: 0.30000000000000004;mix-blend-mode: multiply"/>
            <path d="M50,29.22s.07-1.34.5-1.28,1.95,1,1.88,1.51-1.23.77-1.23.77Z" style="fill: #de976d;opacity: 0.30000000000000004;mix-blend-mode: multiply"/>
            <path d="M53.6,31a4.93,4.93,0,0,1,.88,1.83c0,.52-1.8.42-1.8.42l-.5-1.63S52.93,30.75,53.6,31Z" style="fill: #de976d;opacity: 0.30000000000000004;mix-blend-mode: multiply"/>
            <path d="M39,28.92c1.57-5.49,5.36-10.44,13.89-5.25,9.48,5.75,9,13.2,5.67,18.06a10.92,10.92,0,0,0,.69-8.19c-2.11-5.68-8.36-11.28-14.48-10A7.82,7.82,0,0,0,39,28.92Z" style="fill: #de976d;opacity: 0.46;mix-blend-mode: multiply"/>
          </g>
        </g>
      </g>
    </g>
  </g>
</svg>
