<svg xmlns="http://www.w3.org/2000/svg" xmlns:xlink="http://www.w3.org/1999/xlink" viewBox="0 0 585 214.62">
  <defs>
    <linearGradient id="Áåçûìÿííûé_ãðàäèåíò_6" data-name="Áåçûìÿííûé ãðàäèåíò 6" x1="318.69" y1="20.54" x2="275.68" y2="281.92" gradientUnits="userSpaceOnUse">
      <stop offset="0" stop-color="#ffd662"/>
      <stop offset="0.14" stop-color="#fbcd5d"/>
      <stop offset="0.37" stop-color="#f0b550"/>
      <stop offset="0.66" stop-color="#de8e3a"/>
      <stop offset="0.99" stop-color="#c6581d"/>
      <stop offset="1" stop-color="#c5571c"/>
    </linearGradient>
    <linearGradient id="Áåçûìÿííûé_ãðàäèåíò_6-2" x1="79" y1="81.09" x2="306.62" y2="81.09" xlink:href="#Áåçûìÿííûé_ãðàäèåíò_6"/>
    <linearGradient id="Áåçûìÿííûé_ãðàäèåíò_6-3" x1="247.97" y1="77.5" x2="281.36" y2="77.5" xlink:href="#Áåçûìÿííûé_ãðàäèåíò_6"/>
    <linearGradient id="Áåçûìÿííûé_ãðàäèåíò_6-4" x1="226.54" y1="23.01" x2="295.02" y2="23.01" xlink:href="#Áåçûìÿííûé_ãðàäèåíò_6"/>
    <linearGradient id="Áåçûìÿííûé_ãðàäèåíò_6-5" x1="305.72" y1="76.48" x2="506.71" y2="76.48" xlink:href="#Áåçûìÿííûé_ãðàäèåíò_6"/>
    <linearGradient id="Áåçûìÿííûé_ãðàäèåíò_6-6" x1="94.57" y1="76.48" x2="208.27" y2="76.48" xlink:href="#Áåçûìÿííûé_ãðàäèåíò_6"/>
  </defs>
  <g style="isolation: isolate">
    <g id="Capa_2" data-name="Capa 2">
      <g id="Ñëîé_1" data-name="Ñëîé 1">
        <path d="M61.21,167.9s53.21-11,58-11.56,101.49-.55,101.49-.55,39.13-2.88,45.23-3.88,76.19,11.21,79.15,11.21,75.09-27,84-27,98.68,28.07,113.49,29.29,32.56,7.45,32.56,7.45,7.9,0,9.87,3.66-34.55,3.67-33.56,8.55-177.7,13.44-177.7,13.44S427,199.78,427,205.89c0,8.55-195,13.27-194.48,2.44.23-4.88-85.86,5.22-88.82-4.55s-101.19-8.67-101.19-8.67S0,186,0,182.56,61.21,167.9,61.21,167.9Z" style="fill: url(#Áåçûìÿííûé_ãðàäèåíò_6)"/>
        <path d="M49.93,171.16s-41.84,6.46-38.77,11.15,117.07,17.19,119.11,7-26.58-5.48-26.58-5.48,50.1-2.34,52.14-8.6-54.19-2.35-54.19-2.35Z" style="fill: #872538;opacity: 0.42;mix-blend-mode: multiply"/>
        <path d="M161.64,168.71c0,3.07,53.22.53,53-1.78S181,162.58,181,162.58Z" style="fill: #872538;opacity: 0.42;mix-blend-mode: multiply"/>
        <path d="M533.42,166.43c16.16,2.48,16.16,14.56-22.07,15.56S450,180,450,180s7,8.05,5,11.07-74.45,8-73.44-3S433.89,177,433.89,177l72.43-23.14Z" style="fill: #872538;opacity: 0.42;mix-blend-mode: multiply"/>
        <g style="opacity: 0.15;mix-blend-mode: multiply">
          <path d="M235.46,187.56c0,.6-1.11,1.08-2.47,1.08s-2.47-.48-2.47-1.08,1.1-1.09,2.47-1.09S235.46,187,235.46,187.56Z" style="fill: #872538"/>
          <path d="M252.24,184.84c0,.9-2.43,1.63-5.43,1.63s-5.43-.73-5.43-1.63,2.43-1.63,5.43-1.63S252.24,183.94,252.24,184.84Z" style="fill: #872538"/>
          <path d="M269,188.64c0,.6-1.33,1.09-3,1.09s-3-.49-3-1.09,1.32-1.08,3-1.08S269,188,269,188.64Z" style="fill: #872538"/>
          <path d="M321.34,168.55c0,.3-.88.54-2,.54s-2-.24-2-.54.89-.54,2-.54S321.34,168.25,321.34,168.55Z" style="fill: #872538"/>
          <path d="M338.12,182.67c0,.9-2.43,1.63-5.43,1.63s-5.43-.73-5.43-1.63,2.44-1.63,5.43-1.63S338.12,181.77,338.12,182.67Z" style="fill: #872538"/>
          <ellipse cx="328.25" cy="187.01" rx="1.97" ry="0.54" style="fill: #872538"/>
          <path d="M284.82,175.07c0,.3-.67.54-1.49.54s-1.48-.24-1.48-.54.67-.55,1.48-.55S284.82,174.77,284.82,175.07Z" style="fill: #872538"/>
          <path d="M214.72,180.5c0,.3-.88.54-2,.54s-2-.24-2-.54.88-.54,2-.54S214.72,180.2,214.72,180.5Z" style="fill: #872538"/>
          <path d="M362.8,199c0,.3-1.32.54-3,.54s-3-.24-3-.54,1.33-.54,3-.54S362.8,198.66,362.8,199Z" style="fill: #872538"/>
          <path d="M393.41,204.94c0,1.2-6.41,2.17-14.32,2.17s-14.31-1-14.31-2.17,6.41-2.18,14.31-2.18S393.41,203.74,393.41,204.94Z" style="fill: #872538"/>
        </g>
        <g style="opacity: 0.15;mix-blend-mode: multiply">
          <path d="M503.65,168.73c0-.6,1.1-1.08,2.47-1.08s2.46.5,2.46,1.1-1.11,1.08-2.47,1.08S503.64,169.33,503.65,168.73Z" style="fill: #872538"/>
          <path d="M486.86,171.41c0-.9,2.43-1.63,5.43-1.62s5.43.74,5.42,1.64-2.43,1.63-5.43,1.62S486.85,172.3,486.86,171.41Z" style="fill: #872538"/>
          <path d="M470.08,167.56c0-.6,1.33-1.08,3-1.08s3,.5,3,1.1-1.33,1.08-3,1.07S470.08,168.16,470.08,167.56Z" style="fill: #872538"/>
          <path d="M417.7,187.51c0-.3.89-.54,2-.53s2,.24,2,.54-.88.54-2,.54S417.7,187.81,417.7,187.51Z" style="fill: #872538"/>
          <path d="M401,173.35c0-.9,2.44-1.62,5.44-1.61s5.43.74,5.42,1.64-2.43,1.62-5.43,1.61S401,174.25,401,173.35Z" style="fill: #872538"/>
          <path d="M408.87,169c0-.3.89-.54,2-.54s2,.25,2,.55-.88.54-2,.53S408.87,169.33,408.87,169Z" style="fill: #872538"/>
          <path d="M454.25,181.09c0-.3.66-.54,1.48-.54s1.48.25,1.48.55-.66.54-1.48.54S454.25,181.39,454.25,181.09Z" style="fill: #872538"/>
          <path d="M524.36,175.85c0-.3.88-.54,2-.54s2,.25,2,.55-.88.54-2,.54S524.36,176.15,524.36,175.85Z" style="fill: #872538"/>
          <path d="M376.33,157c0-.3,1.33-.54,3-.53s3,.25,3,.55-1.32.54-3,.53S376.33,157.29,376.33,157Z" style="fill: #872538"/>
        </g>
        <g>
          <path d="M320.82,21.12l3.57-9.2h1.53V22.65h-1.2V14.53l-3.22,8.12h-1.43l-3.23-8.13v8.13h-1.2V11.92h1.61Z" style="fill: #872538"/>
          <path d="M345.26,18.48c0,2.35,1.07,3.29,2.86,3.29s2.86-.94,2.86-3.29V11.92h1.12V19c0,2.13-1.28,3.79-4,3.79-3,0-4.05-1.66-4.05-3.79V11.92h1.19Z" style="fill: #872538"/>
          <path d="M373.53,16.49c1.6.53,3.19,1.2,3.19,3.3s-1.83,3.05-3.79,3.05a7.15,7.15,0,0,1-3.47-.89l.33-1.19a4.64,4.64,0,0,0,3,1c1.93,0,2.66-.75,2.66-1.76,0-1.46-1.51-2-2.77-2.4-1.83-.62-3-1.32-3-3.06,0-1.94,1.48-2.72,3.39-2.72a7.56,7.56,0,0,1,3,.62l-.33,1.25a4.5,4.5,0,0,0-2.74-.79c-1.34,0-2.17.48-2.17,1.59S371.67,15.85,373.53,16.49Z" style="fill: #872538"/>
          <path d="M400.23,22.65h-6.09V11.92h5.77v1.13h-4.57v3.34h3.5v1.14h-3.5v4h4.89Z" style="fill: #872538"/>
          <path d="M427,17.3c0,2.86-1.75,5.54-5.24,5.54s-5-2.52-5-5.43c0-3.09,1.85-5.58,5.13-5.58S427,14.37,427,17.3Zm-1.3.05c0-2.64-1.2-4.44-3.87-4.44S418,14.7,418,17.25c0,3,1.32,4.52,3.73,4.52C424.54,21.77,425.67,19.82,425.67,17.35Z" style="fill: #872538"/>
          <path d="M463.57,11.92h.08c1,0,2.28-.09,3.4-.09a5.48,5.48,0,0,1,3.64,1.22,5.75,5.75,0,0,1,1.61,4.35c0,2.92-1.61,5.44-5.08,5.44a34.41,34.41,0,0,1-3.65-.19Zm1.2,1v8.71c.67.07,1.5.1,2.4.1,2.52,0,3.81-1.55,3.81-4.5,0-2.61-1-4.36-3.84-4.36C466.3,12.91,465.44,12.92,464.77,13Z" style="fill: #872538"/>
          <path d="M496,22.65H489.9V11.92h5.77v1.13H491.1v3.34h3.5v1.14h-3.5v4H496Z" style="fill: #872538"/>
        </g>
        <g>
          <path d="M321.34,98.17H318v5.12h-1.22V92.56h5.8V93.7H318V97h3.39Z" style="fill: #872538"/>
          <path d="M329.26,98.33a2.58,2.58,0,0,1-.15,1h-5.48v.16c0,1.66.85,3.16,2.65,3.16a4.76,4.76,0,0,0,2.63-.95l.2.93a5.73,5.73,0,0,1-3,.88,3.67,3.67,0,0,1-3.74-3.93,3.74,3.74,0,0,1,3.86-4C328.17,95.57,329.26,96.58,329.26,98.33Zm-5.51.12h4.43a1.46,1.46,0,0,0,0-.29,1.76,1.76,0,0,0-2-1.68A2.38,2.38,0,0,0,323.75,98.45Z" style="fill: #872538"/>
          <path d="M330.22,99.57c0-2.15,1.16-4,3.47-4a2.63,2.63,0,0,1,2.7,1.64V91.26h1.14v12h-.9L336.5,102h-.07a3.46,3.46,0,0,1-2.92,1.53C331.3,103.49,330.22,101.64,330.22,99.57Zm6.17,1.32V98.5a2.66,2.66,0,0,0-2.54-2c-1.5,0-2.42,1.27-2.42,3.09,0,1.4.55,2.91,2.21,2.91A3.25,3.25,0,0,0,336.39,100.89Z" style="fill: #872538"/>
          <path d="M345.79,98.33a2.61,2.61,0,0,1-.14,1h-5.48v.16c0,1.66.84,3.16,2.65,3.16a4.79,4.79,0,0,0,2.63-.95l.2.93a5.73,5.73,0,0,1-3,.88,3.67,3.67,0,0,1-3.75-3.93,3.74,3.74,0,0,1,3.86-4C344.7,95.57,345.79,96.58,345.79,98.33Zm-5.51.12h4.44a1.46,1.46,0,0,0,0-.29,1.77,1.77,0,0,0-2-1.68A2.4,2.4,0,0,0,340.28,98.45Z" style="fill: #872538"/>
          <path d="M351.28,97a2.11,2.11,0,0,0-1-.33c-.86,0-1.61,1-1.87,2.23v4.37h-1.13V95.81h.89l.13,1.65h.07a2.31,2.31,0,0,1,2.14-1.89,1.79,1.79,0,0,1,1.14.38Z" style="fill: #872538"/>
          <path d="M353,92.24a.88.88,0,0,1,.85.84.85.85,0,0,1-.85.82.81.81,0,0,1-.81-.82A.84.84,0,0,1,353,92.24Zm.57,11.05h-1.14V95.81h1.14Z" style="fill: #872538"/>
          <path d="M361.35,97.18a4.69,4.69,0,0,0-2.47-.71c-1.89,0-2.65,1.39-2.65,2.92,0,1.71,1,3.21,2.76,3.21a3.93,3.93,0,0,0,2.49-1l.23,1.06a5.84,5.84,0,0,1-2.93.81c-2.52,0-3.76-1.85-3.76-4a3.61,3.61,0,0,1,3.87-3.92,5.5,5.5,0,0,1,2.73.65Z" style="fill: #872538"/>
          <path d="M370,99.6c0,2.12-1.15,3.89-3.72,3.89a4,4,0,0,1-.07-7.92C368.84,95.57,370,97.49,370,99.6Zm-1.2,0c0-1.64-.81-3.14-2.64-3.14s-2.52,1.38-2.52,3,.8,3.16,2.62,3.16S368.79,101.23,368.79,99.62Z" style="fill: #872538"/>
          <path d="M383.59,103.29h-1.38l-1.58-3.61h-4.8l-1.43,3.61h-1.3l4.29-10.73h1.49Zm-7.3-4.74h3.84l-2-4.62Z" style="fill: #872538"/>
          <path d="M384.75,101.94a.82.82,0,0,1,.78.78.78.78,0,0,1-.78.75.75.75,0,0,1-.75-.75A.78.78,0,0,1,384.75,101.94Z" style="fill: #872538"/>
          <path d="M394.4,97.13c1.63.54,3.25,1.2,3.25,3.3s-1.87,3.06-3.87,3.06a7.56,7.56,0,0,1-3.54-.89l.34-1.19a4.81,4.81,0,0,0,3.11,1c2,0,2.71-.75,2.71-1.76,0-1.46-1.55-2-2.83-2.41-1.87-.62-3.07-1.31-3.07-3,0-1.94,1.51-2.72,3.46-2.72a7.93,7.93,0,0,1,3.08.62l-.35,1.25a4.62,4.62,0,0,0-2.79-.8c-1.37,0-2.21.49-2.21,1.6S392.5,96.5,394.4,97.13Z" style="fill: #872538"/>
          <path d="M406.13,99.6c0,2.12-1.15,3.89-3.72,3.89a4,4,0,0,1-.07-7.92C405,95.57,406.13,97.49,406.13,99.6Zm-1.2,0c0-1.64-.82-3.14-2.64-3.14s-2.52,1.38-2.52,3,.8,3.16,2.62,3.16S404.93,101.23,404.93,99.62Z" style="fill: #872538"/>
          <path d="M408.8,103.29h-1.14v-12h1.14Z" style="fill: #872538"/>
          <path d="M417.91,99.6c0,2.12-1.16,3.89-3.73,3.89a4,4,0,0,1-.07-7.92C416.75,95.57,417.91,97.49,417.91,99.6Zm-1.21,0c0-1.64-.81-3.14-2.63-3.14s-2.52,1.38-2.52,3,.79,3.16,2.61,3.16S416.7,101.23,416.7,99.62Zm-3.79-5.3-.09-.33,0-.11,2.93-1.64a.56.56,0,0,1,.59.57.84.84,0,0,1-.07.31L413,94.37Z" style="fill: #872538"/>
          <path d="M423.37,97a2.11,2.11,0,0,0-1-.33c-.86,0-1.61,1-1.87,2.23v4.37h-1.14V95.81h.9l.12,1.65h.07a2.32,2.32,0,0,1,2.15-1.89,1.81,1.81,0,0,1,1.14.38Z" style="fill: #872538"/>
          <path d="M424,102.32l3.95-5.55h-3.79v-1h5.11v1l-4,5.58h4.14v1H424Z" style="fill: #872538"/>
          <path d="M435.46,103.29l-.13-1.33h-.07a3.85,3.85,0,0,1-3,1.53,2,2,0,0,1-2.14-2.19c0-2.49,2.87-2.75,4.38-2.75h.74v-.2a1.61,1.61,0,0,0-.67-1.5,2.39,2.39,0,0,0-1.43-.32,4,4,0,0,0-2.21.65l-.26-1a5,5,0,0,1,2.6-.64,4,4,0,0,1,2.08.47,2.4,2.4,0,0,1,1,2.17v5.08Zm-.24-2.4V99.37h-.15c-1.76,0-3.77.17-3.77,1.86a1.18,1.18,0,0,0,1.28,1.3A3.3,3.3,0,0,0,435.22,100.89Z" style="fill: #872538"/>
          <path d="M443.45,103.29V98.35c0-1.3-.65-1.82-1.56-1.82a2.72,2.72,0,0,0-2.56,2v4.79H438.2V95.81h.89l.13,1.4h.07a2.71,2.71,0,0,1,2.76-1.64,2.33,2.33,0,0,1,2.54,2.64v5.08Z" style="fill: #872538"/>
          <path d="M453.52,99.6c0,2.12-1.15,3.89-3.72,3.89a4,4,0,0,1-.06-7.92C452.37,95.57,453.52,97.49,453.52,99.6Zm-1.2,0c0-1.64-.81-3.14-2.63-3.14s-2.52,1.38-2.52,3,.79,3.16,2.61,3.16S452.32,101.23,452.32,99.62Z" style="fill: #872538"/>
          <path d="M458.68,92.56c.7,0,1.72-.08,2.5-.08,1.92,0,3.21,1,3.21,2.8a2.37,2.37,0,0,1-1.11,2.08,2.79,2.79,0,0,1,2.08,2.79c0,1.81-1.31,3.34-4,3.34a19,19,0,0,1-2.68-.2ZM463,95.15c0-.94-.46-1.6-1.76-1.6-.47,0-1,0-1.38,0v3.48h1A1.89,1.89,0,0,0,463,95.15Zm1,4.88c0-1.24-.76-2-2.73-2-.47,0-1,0-1.38,0v4.33c.42,0,.91,0,1.42,0C463.06,102.42,464,101.59,464,100Z" style="fill: #872538"/>
          <path d="M471.56,103.29l-.13-1.33h-.06a3.85,3.85,0,0,1-3,1.53,2,2,0,0,1-2.14-2.19c0-2.49,2.88-2.75,4.39-2.75h.73v-.2a1.61,1.61,0,0,0-.67-1.5,2.37,2.37,0,0,0-1.43-.32,4,4,0,0,0-2.21.65l-.26-1a5,5,0,0,1,2.6-.64,3.93,3.93,0,0,1,2.08.47,2.41,2.41,0,0,1,1,2.17v5.08Zm-.24-2.4V99.37h-.15c-1.75,0-3.77.17-3.77,1.86a1.19,1.19,0,0,0,1.29,1.3A3.3,3.3,0,0,0,471.32,100.89Z" style="fill: #872538"/>
          <path d="M478.34,97a2.11,2.11,0,0,0-1-.33c-.86,0-1.61,1-1.87,2.23v4.37H474.3V95.81h.9l.13,1.65h.06a2.33,2.33,0,0,1,2.15-1.89,1.79,1.79,0,0,1,1.14.38Z" style="fill: #872538"/>
          <path d="M483.53,97a2.11,2.11,0,0,0-1-.33c-.86,0-1.61,1-1.87,2.23v4.37H479.5V95.81h.9l.12,1.65h.07a2.32,2.32,0,0,1,2.15-1.89,1.76,1.76,0,0,1,1.13.38Z" style="fill: #872538"/>
          <path d="M490.87,98.33a2.61,2.61,0,0,1-.14,1h-5.48v.16c0,1.66.85,3.16,2.65,3.16a4.79,4.79,0,0,0,2.63-.95l.2.93a5.73,5.73,0,0,1-3,.88A3.67,3.67,0,0,1,484,99.56a3.74,3.74,0,0,1,3.85-4C489.79,95.57,490.87,96.58,490.87,98.33Zm-5.51.12h4.44a1.46,1.46,0,0,0,0-.29,1.77,1.77,0,0,0-2-1.68A2.4,2.4,0,0,0,485.36,98.45Z" style="fill: #872538"/>
          <path d="M492.67,96.58h-1.25V96l1.29-.17.24-2.26h.86v2.26h1.76v.77h-1.76v5.19c0,.69.2.84.64.84a2,2,0,0,0,1.18-.39l.23.86a4.14,4.14,0,0,1-1.71.39c-1.38,0-1.48-.87-1.48-1.67Z" style="fill: #872538"/>
          <path d="M503.89,99.6c0,2.12-1.16,3.89-3.73,3.89a4,4,0,0,1-.06-7.92C502.73,95.57,503.89,97.49,503.89,99.6Zm-1.21,0c0-1.64-.81-3.14-2.63-3.14s-2.52,1.38-2.52,3,.79,3.16,2.62,3.16S502.68,101.23,502.68,99.62Z" style="fill: #872538"/>
        </g>
        <g>
          <path d="M291.51,50.09C285.42,44,242.78,9.48,206.24,37.91c0,0,8.12-6.09,28.42-6.09S271.2,42,281.36,56.18,299.63,111,267.14,113,244.81,70.39,259,62.27L248.87,78.51H255c6.09-12.18,20.3-24.36,20.3-24.36s-14.4-14.69-28.42-18.27c-2.37-.61-9-2.17-14.21-2a30.3,30.3,0,0,0-10.15,2V44a6.29,6.29,0,0,0,2,4.06s-6.09,42.63-48.73,56.85S98.63,88.66,92.54,76.48,82.39,42,98.63,33.85c0,0-12.18-4.06-18.27,12.18s6.09,77.15,81.21,77.15c64.26,0,70.58-53.48,71.06-61.32v.41c0,12.18-4.06,20.3-6.09,32.49s8.12,40.6,40.6,40.6,38.58-32.48,38.58-32.48,2-12.19,0-22.34S297.6,56.18,291.51,50.09Z" style="fill: url(#Áåçûìÿííûé_ãðàäèåíò_6-2)"/>
          <path d="M267.14,70.39s0,26.4-10.15,14.21h-8.12s-2,8.12,0,14.22H257c20.3,0,24.37-34.52,24.37-36.55s-4.07-6.09-4.07-6.09C269.17,70.39,267.14,70.39,267.14,70.39Z" style="fill: url(#Áåçûìÿííûé_ãðàäèåíò_6-3)"/>
          <path d="M291.51,46s10.15-6.09-4.06-28.42S263.08,1.36,261.05,3.39s-4.06,4.06-8.12,0c0,0-10.15-16.24-26.39,22.34C226.54,25.73,259,17.61,291.51,46Zm-8.12-24.36c6.09,2,4.06,8.12,2,10.15s-4.06,2-4.06-4.06S283.39,21.67,283.39,21.67Z" style="fill: url(#Áåçûìÿííûé_ãðàäèåíò_6-4)"/>
          <polygon points="305.72 70.39 309.78 82.57 506.71 82.57 506.71 70.39 305.72 70.39" style="fill: url(#Áåçûìÿííûé_ãðàäèåíò_6-5)"/>
          <polygon points="206.24 82.57 208.27 70.39 94.57 70.39 100.66 82.57 206.24 82.57" style="fill: url(#Áåçûìÿííûé_ãðàäèåíò_6-6)"/>
        </g>
        <g>
          <path d="M315,28.6h.09c1.05-.05,2.39-.12,3.53-.12,3.51,0,5.85,1.8,5.85,5.16,0,2.7-1.78,5-5.58,5-.78,0-1.46,0-2.07-.07v6.1H315Zm1.82,1.53V37c.59,0,1.27.07,2,.07,2.38,0,3.62-1.24,3.62-3.58,0-2-.94-3.35-3.67-3.35C318.08,30.09,317.4,30.11,316.81,30.13Z" style="fill: #872538"/>
          <path d="M340.46,44.66h-2.07L336,39.26h-7.18l-2.15,5.4h-1.94l6.42-16.06h2.22Zm-10.93-7.1h5.74l-3-6.91Z" style="fill: #872538"/>
          <path d="M351.69,44.66h-9V28.6h1.83V43h7.17Z" style="fill: #872538"/>
          <path d="M363.82,44.66h-9.29V28.6h8.81v1.71h-7v5h5.36V37h-5.36v6h7.47Z" style="fill: #872538"/>
          <path d="M381.61,36.66c0,4.28-2.68,8.3-8,8.3-5.16,0-7.67-3.78-7.67-8.13,0-4.63,2.82-8.35,7.84-8.35S381.61,32.28,381.61,36.66Zm-2,.07c0-3.94-1.82-6.64-5.91-6.64S368,32.76,368,36.58c0,4.46,2,6.77,5.7,6.77C377.88,43.35,379.61,40.43,379.61,36.73Z" style="fill: #872538"/>
          <path d="M387.22,31.52V44.66h-1.83V28.6h2.22l8.27,13.17V28.6h1.83V44.66H395.5Z" style="fill: #872538"/>
          <path d="M412.67,30.31h-5.13V44.66h-1.83V30.31h-5.13V28.6h12.09Z" style="fill: #872538"/>
          <path d="M429.67,36.66c0,4.28-2.67,8.3-8,8.3-5.16,0-7.67-3.78-7.67-8.13,0-4.63,2.82-8.35,7.84-8.35S429.67,32.28,429.67,36.66Zm-2,.07c0-3.94-1.83-6.64-5.91-6.64S416,32.76,416,36.58c0,4.46,2,6.77,5.7,6.77C426,43.35,427.68,40.43,427.68,36.73Z" style="fill: #872538"/>
          <path d="M442.47,44.66h-9V28.6h1.83V43h7.18Z" style="fill: #872538"/>
          <path d="M459.52,36.66c0,4.28-2.68,8.3-8,8.3-5.16,0-7.67-3.78-7.67-8.13,0-4.63,2.83-8.35,7.84-8.35S459.52,32.28,459.52,36.66Zm-2,.07c0-3.94-1.82-6.64-5.91-6.64s-5.75,2.67-5.75,6.49c0,4.46,2,6.77,5.7,6.77C455.79,43.35,457.52,40.43,457.52,36.73Z" style="fill: #872538"/>
          <path d="M475.67,43.33A9.92,9.92,0,0,1,470.05,45c-5.31,0-7.76-3.78-7.76-8.16,0-4.6,2.72-8.32,8-8.32a12.71,12.71,0,0,1,5.13,1.05l-.51,1.75a8.89,8.89,0,0,0-4.77-1.19c-4.33,0-5.86,2.63-5.86,6.52,0,4.43,2,6.74,5.81,6.74a9.24,9.24,0,0,0,3.73-.78V38.05h1.82Z" style="fill: #872538"/>
          <path d="M478.27,27.12l-.15-.49.07-.17L482.6,24a.79.79,0,0,1,.85.82,1,1,0,0,1-.1.47l-4.89,1.87Zm3.23,17.54h-1.82V28.6h1.82Z" style="fill: #872538"/>
          <path d="M499.74,44.66h-2.07l-2.36-5.4h-7.18L486,44.66H484l6.43-16.06h2.21Zm-10.93-7.1h5.75l-3-6.91Z" style="fill: #872538"/>
        </g>
        <g>
          <path d="M315,50.49h.08c1,0,2.31-.08,3.44-.08a5.61,5.61,0,0,1,3.7,1.22A5.7,5.7,0,0,1,323.88,56c0,2.93-1.63,5.45-5.15,5.45a34.93,34.93,0,0,1-3.7-.2Zm1.21,1v8.72c.68.06,1.52.1,2.44.1,2.56,0,3.86-1.55,3.86-4.51,0-2.6-1-4.36-3.89-4.36C317.79,51.48,316.92,51.5,316.24,51.53Z" style="fill: #872538"/>
          <path d="M336.92,61.22h-6.17V50.49h5.84v1.14H332V55h3.56V56.1H332v4h5Z" style="fill: #872538"/>
          <path d="M360,60.33a6.53,6.53,0,0,1-3.72,1.09c-3.53,0-5.16-2.52-5.16-5.45s1.81-5.56,5.33-5.56a8.56,8.56,0,0,1,3.41.7l-.34,1.17a5.93,5.93,0,0,0-3.17-.8c-2.87,0-3.89,1.76-3.89,4.36,0,3,1.31,4.51,3.86,4.51a6,6,0,0,0,2.48-.52v-3H360Z" style="fill: #872538"/>
          <path d="M368.13,57.06c0,2.34,1.08,3.29,2.89,3.29s2.9-1,2.9-3.29V50.49h1.13v7.12c0,2.14-1.29,3.79-4,3.79-3,0-4.11-1.65-4.11-3.79V50.49h1.22Z" style="fill: #872538"/>
          <path d="M391.28,61.22h-1.37l-1.56-3.61h-4.77l-1.42,3.61h-1.29l4.26-10.73h1.47ZM384,56.48h3.81l-2-4.62Z" style="fill: #872538"/>
          <path d="M397.1,50.49h.08c1,0,2.31-.08,3.44-.08a5.63,5.63,0,0,1,3.7,1.22A5.7,5.7,0,0,1,406,56c0,2.93-1.63,5.45-5.15,5.45a34.93,34.93,0,0,1-3.7-.2Zm1.21,1v8.72c.68.06,1.52.1,2.44.1,2.55,0,3.86-1.55,3.86-4.51,0-2.6-1-4.36-3.89-4.36C399.86,51.48,399,51.5,398.31,51.53Z" style="fill: #872538"/>
          <path d="M421.59,61.22h-1.37l-1.56-3.61h-4.77l-1.42,3.61h-1.29l4.26-10.73h1.47Zm-7.25-4.74h3.81l-2-4.62Z" style="fill: #872538"/>
          <path d="M433.39,61.22h-6V50.49h1.21v9.6h4.77Z" style="fill: #872538"/>
          <path d="M448.51,61.22h-1.38l-1.56-3.61H440.8l-1.42,3.61h-1.29l4.26-10.73h1.47Zm-7.25-4.74h3.81l-2-4.62Z" style="fill: #872538"/>
          <path d="M455.53,59.58c0,2.3-.89,4.18-2.81,4.18l-.23-.89c1.7,0,1.83-1.82,1.83-3.3V50.49h1.21Z" style="fill: #872538"/>
          <path d="M472,61.22h-1.37L469,57.61h-4.76l-1.43,3.61h-1.29l4.27-10.73h1.47Zm-7.25-4.74h3.81l-2-4.62Z" style="fill: #872538"/>
          <path d="M477.78,50.49c.76,0,1.64-.08,2.4-.08,2.33,0,3.88,1.09,3.88,3.09a3,3,0,0,1-2.38,3l4.09,4.73h-1.5l-4-4.58c-.49,0-.91,0-1.3,0v4.63h-1.2Zm1.2,1v4c.39,0,.85,0,1.33,0,1.58,0,2.41-.76,2.41-2.19,0-1.12-.63-1.89-2.44-1.89C479.83,51.48,479.37,51.5,479,51.52Z" style="fill: #872538"/>
          <path d="M500.63,61.22h-1.38l-1.56-3.61h-4.77l-1.42,3.61h-1.29l4.26-10.73h1.47Zm-7.25-4.74h3.81l-2-4.62Z" style="fill: #872538"/>
        </g>
      </g>
    </g>
  </g>
</svg>
