<svg id="Capa_1" data-name="Capa 1" xmlns="http://www.w3.org/2000/svg" viewBox="0 0 117.18 37.09">
  <g>
    <path d="M67.69,17.79l1-2.53h.41v3h-.32V16l-.88,2.23h-.4L66.6,16v2.23h-.33v-3h.44Z" transform="translate(-1.43 -12)" style="fill: #222"/>
    <path d="M74.38,17.06c0,.65.3.9.79.9s.78-.25.78-.9v-1.8h.31v2a1,1,0,0,1-1.09,1c-.82,0-1.11-.45-1.11-1v-2h.32Z" transform="translate(-1.43 -12)" style="fill: #222"/>
    <path d="M82.13,16.52c.44.14.87.33.87.9s-.5.84-1,.84A1.93,1.93,0,0,1,81,18l.09-.32a1.33,1.33,0,0,0,.84.27c.53,0,.73-.2.73-.48s-.42-.54-.76-.66c-.5-.17-.83-.36-.83-.83s.41-.75.93-.75a2.14,2.14,0,0,1,.83.17l-.09.34a1.27,1.27,0,0,0-.76-.21c-.36,0-.59.13-.59.43S81.62,16.34,82.13,16.52Z" transform="translate(-1.43 -12)" style="fill: #222"/>
    <path d="M89.44,18.21H87.78v-3h1.58v.32H88.1v.91h1v.31h-1v1.09h1.34Z" transform="translate(-1.43 -12)" style="fill: #222"/>
    <path d="M96.77,16.74a1.41,1.41,0,0,1-1.43,1.52A1.35,1.35,0,0,1,94,16.77a1.41,1.41,0,1,1,2.81,0Zm-.36,0c0-.72-.32-1.21-1.06-1.21s-1,.49-1,1.19.37,1.23,1,1.23S96.41,17.43,96.41,16.75Z" transform="translate(-1.43 -12)" style="fill: #222"/>
    <path d="M106.8,15.26h0l.93,0a1.51,1.51,0,0,1,1,.34,1.55,1.55,0,0,1,.44,1.19,1.35,1.35,0,0,1-1.39,1.49c-.41,0-.74,0-1-.05Zm.33.29v2.39a6.54,6.54,0,0,0,.66,0c.68,0,1-.42,1-1.23s-.28-1.19-1-1.19Z" transform="translate(-1.43 -12)" style="fill: #222"/>
    <path d="M115.68,18.21H114v-3h1.58v.32h-1.25v.91h1v.31h-1v1.09h1.34Z" transform="translate(-1.43 -12)" style="fill: #222"/>
  </g>
  <g>
    <path d="M67.83,38.9H66.9v1.4h-.33V37.36h1.59v.31H66.9v.91h.93Z" transform="translate(-1.43 -12)" style="fill: #222"/>
    <path d="M70,38.94a.67.67,0,0,1,0,.27h-1.5v0c0,.46.23.87.72.87a1.33,1.33,0,0,0,.73-.26l0,.25a1.59,1.59,0,0,1-.81.24,1,1,0,0,1-1-1.07,1,1,0,0,1,1.06-1.1A.72.72,0,0,1,70,38.94Zm-1.51,0h1.22v-.08a.49.49,0,0,0-.54-.46A.66.66,0,0,0,68.49,39Z" transform="translate(-1.43 -12)" style="fill: #222"/>
    <path d="M70.26,39.28a1,1,0,0,1,.95-1.1.71.71,0,0,1,.74.45V37h.31v3.3H72l0-.36h0a1,1,0,0,1-.81.41C70.56,40.35,70.26,39.85,70.26,39.28Zm1.69.36V39a.72.72,0,0,0-.69-.54c-.41,0-.67.34-.67.84s.16.8.61.8A.88.88,0,0,0,72,39.64Z" transform="translate(-1.43 -12)" style="fill: #222"/>
    <path d="M74.53,38.94a.67.67,0,0,1,0,.27H73v0c0,.46.23.87.72.87a1.33,1.33,0,0,0,.73-.26l0,.25a1.56,1.56,0,0,1-.81.24,1,1,0,0,1-1-1.07,1,1,0,0,1,1.06-1.1A.72.72,0,0,1,74.53,38.94ZM73,39h1.22v-.08a.49.49,0,0,0-.54-.46A.66.66,0,0,0,73,39Z" transform="translate(-1.43 -12)" style="fill: #222"/>
    <path d="M76,38.58a.61.61,0,0,0-.28-.09c-.23,0-.44.29-.51.61v1.2h-.31v-2h.24l0,.45h0a.63.63,0,0,1,.58-.52.51.51,0,0,1,.32.11Z" transform="translate(-1.43 -12)" style="fill: #222"/>
    <path d="M76.51,37.27a.24.24,0,0,1,.23.23.23.23,0,0,1-.23.23.23.23,0,0,1-.23-.23A.23.23,0,0,1,76.51,37.27Zm.15,3h-.31v-2h.31Z" transform="translate(-1.43 -12)" style="fill: #222"/>
    <path d="M78.79,38.63a1.19,1.19,0,0,0-.68-.2.71.71,0,0,0-.72.8.79.79,0,0,0,.76.88,1.08,1.08,0,0,0,.68-.27l.06.29a1.58,1.58,0,0,1-.8.22,1.09,1.09,0,0,1,0-2.17,1.63,1.63,0,0,1,.75.18Z" transform="translate(-1.43 -12)" style="fill: #222"/>
    <path d="M81.16,39.29a1,1,0,0,1-1,1.06,1.09,1.09,0,0,1,0-2.17A1,1,0,0,1,81.16,39.29Zm-.33,0c0-.45-.22-.86-.72-.86s-.69.38-.69.82.22.87.71.87S80.83,39.74,80.83,39.29Z" transform="translate(-1.43 -12)" style="fill: #222"/>
    <path d="M84.89,40.3h-.38l-.44-1H82.76l-.39,1H82l1.18-2.94h.4Zm-2-1.3h1.06l-.56-1.27Z" transform="translate(-1.43 -12)" style="fill: #222"/>
    <path d="M85.2,39.93a.23.23,0,0,1,.22.21.22.22,0,0,1-.22.21.2.2,0,0,1-.2-.21A.21.21,0,0,1,85.2,39.93Z" transform="translate(-1.43 -12)" style="fill: #222"/>
    <path d="M87.85,38.61c.44.15.89.33.89.91s-.51.83-1.06.83a2.07,2.07,0,0,1-1-.24l.09-.33a1.31,1.31,0,0,0,.85.28c.54,0,.75-.2.75-.48s-.43-.54-.78-.66c-.51-.17-.84-.36-.84-.84s.41-.74,1-.74a2.05,2.05,0,0,1,.84.17l-.09.34a1.33,1.33,0,0,0-.77-.22c-.38,0-.61.14-.61.44S87.33,38.44,87.85,38.61Z" transform="translate(-1.43 -12)" style="fill: #222"/>
    <path d="M91.06,39.29a1,1,0,0,1-1,1.06,1.09,1.09,0,0,1,0-2.17A1,1,0,0,1,91.06,39.29Zm-.33,0c0-.45-.22-.86-.72-.86s-.69.38-.69.82.22.87.72.87S90.73,39.74,90.73,39.29Z" transform="translate(-1.43 -12)" style="fill: #222"/>
    <path d="M91.79,40.3h-.31V37h.31Z" transform="translate(-1.43 -12)" style="fill: #222"/>
    <path d="M94.29,39.29a1,1,0,0,1-1,1.06,1.09,1.09,0,0,1,0-2.17A1,1,0,0,1,94.29,39.29Zm-.33,0c0-.45-.23-.86-.72-.86s-.7.38-.7.82.22.87.72.87S94,39.74,94,39.29Zm-1-1.45,0-.09,0,0,.8-.45a.16.16,0,0,1,.16.16.31.31,0,0,1,0,.08l-.9.34Z" transform="translate(-1.43 -12)" style="fill: #222"/>
    <path d="M95.79,38.58a.69.69,0,0,0-.29-.09c-.23,0-.44.29-.51.61v1.2h-.31v-2h.25l0,.45h0a.63.63,0,0,1,.59-.52.48.48,0,0,1,.31.11Z" transform="translate(-1.43 -12)" style="fill: #222"/>
    <path d="M95.94,40,97,38.51H96v-.26h1.4v.26L96.3,40h1.13v.26H95.94Z" transform="translate(-1.43 -12)" style="fill: #222"/>
    <path d="M99.1,40.3l0-.36h0a1,1,0,0,1-.83.41.55.55,0,0,1-.58-.6c0-.68.79-.75,1.2-.75H99v0a.44.44,0,0,0-.18-.41.63.63,0,0,0-.39-.09,1.1,1.1,0,0,0-.61.18l-.07-.27a1.34,1.34,0,0,1,.71-.18,1.12,1.12,0,0,1,.57.13.67.67,0,0,1,.28.6V40.3ZM99,39.64v-.41h0c-.48,0-1,0-1,.51a.32.32,0,0,0,.35.35A.9.9,0,0,0,99,39.64Z" transform="translate(-1.43 -12)" style="fill: #222"/>
    <path d="M101.29,40.3V39c0-.36-.18-.5-.43-.5a.73.73,0,0,0-.7.54V40.3h-.31v-2h.24l0,.38h0a.74.74,0,0,1,.75-.45.64.64,0,0,1,.7.73V40.3Z" transform="translate(-1.43 -12)" style="fill: #222"/>
    <path d="M104.05,39.29a1,1,0,0,1-1,1.06,1.09,1.09,0,0,1,0-2.17A1,1,0,0,1,104.05,39.29Zm-.33,0c0-.45-.23-.86-.73-.86s-.69.38-.69.82.22.87.72.87S103.72,39.74,103.72,39.29Z" transform="translate(-1.43 -12)" style="fill: #222"/>
    <path d="M105.46,37.36l.68,0c.53,0,.88.26.88.76a.65.65,0,0,1-.3.57.76.76,0,0,1,.57.77c0,.5-.36.91-1.1.91a4.81,4.81,0,0,1-.73-.05Zm1.19.71c0-.26-.12-.44-.48-.44h-.38v1h.27A.52.52,0,0,0,106.65,38.07Zm.27,1.34c0-.34-.21-.56-.75-.56h-.38v1.19h.39C106.66,40.06,106.92,39.83,106.92,39.41Z" transform="translate(-1.43 -12)" style="fill: #222"/>
    <path d="M109,40.3l0-.36h0a1,1,0,0,1-.82.41.55.55,0,0,1-.59-.6c0-.68.79-.75,1.2-.75h.2v0a.44.44,0,0,0-.18-.41.63.63,0,0,0-.39-.09,1.1,1.1,0,0,0-.61.18l-.07-.27a1.36,1.36,0,0,1,.71-.18,1.09,1.09,0,0,1,.57.13.67.67,0,0,1,.28.6V40.3Zm-.07-.66v-.41h0c-.48,0-1,0-1,.51a.32.32,0,0,0,.35.35A.9.9,0,0,0,108.92,39.64Z" transform="translate(-1.43 -12)" style="fill: #222"/>
    <path d="M110.84,38.58a.61.61,0,0,0-.28-.09c-.23,0-.44.29-.51.61v1.2h-.31v-2H110l0,.45h0a.63.63,0,0,1,.59-.52.5.5,0,0,1,.31.11Z" transform="translate(-1.43 -12)" style="fill: #222"/>
    <path d="M112.27,38.58a.65.65,0,0,0-.28-.09c-.24,0-.44.29-.52.61v1.2h-.31v-2h.25l0,.45h0a.64.64,0,0,1,.59-.52.48.48,0,0,1,.31.11Z" transform="translate(-1.43 -12)" style="fill: #222"/>
    <path d="M114.28,38.94a.67.67,0,0,1,0,.27h-1.5v0c0,.46.23.87.72.87a1.33,1.33,0,0,0,.73-.26l0,.25a1.56,1.56,0,0,1-.81.24,1,1,0,0,1-1-1.07,1,1,0,0,1,1.06-1.1A.72.72,0,0,1,114.28,38.94Zm-1.51,0H114v-.08a.49.49,0,0,0-.54-.46A.66.66,0,0,0,112.77,39Z" transform="translate(-1.43 -12)" style="fill: #222"/>
    <path d="M114.77,38.46h-.34V38.3l.35,0,.07-.62h.23v.62h.49v.21h-.49v1.42c0,.19.06.23.18.23a.61.61,0,0,0,.32-.1l.07.23a1.12,1.12,0,0,1-.47.11c-.38,0-.41-.24-.41-.46Z" transform="translate(-1.43 -12)" style="fill: #222"/>
    <path d="M117.84,39.29a1,1,0,0,1-1,1.06,1.09,1.09,0,1,1,1-1.06Zm-.33,0c0-.45-.22-.86-.72-.86s-.69.38-.69.82.22.87.72.87S117.51,39.74,117.51,39.29Z" transform="translate(-1.43 -12)" style="fill: #222"/>
  </g>
  <g>
    <path d="M59.66,25.72C58,24.05,46.31,14.6,36.29,22.39c0,0,2.23-1.67,7.79-1.67a15.55,15.55,0,0,1,12.8,6.67c2.78,3.9,5,15-3.9,15.58s-6.12-11.68-2.22-13.91L48,33.51h1.66c1.67-3.34,5.57-6.67,5.57-6.67s-4-4-7.79-5a16.38,16.38,0,0,0-3.89-.56,8.25,8.25,0,0,0-2.79.56v2.22a1.73,1.73,0,0,0,.56,1.12S39.63,36.85,28,40.74,6.81,36.29,5.14,33,2.36,23.5,6.81,21.27c0,0-3.33-1.11-5,3.34S3.48,45.75,24.06,45.75c17.6,0,19.33-14.65,19.47-16.8v.11c0,3.34-1.12,5.56-1.67,8.9S44.08,49.09,53,49.09s10.57-8.9,10.57-8.9a19.84,19.84,0,0,0,0-6.12C63,31.29,61.33,27.39,59.66,25.72Z" transform="translate(-1.43 -12)" style="fill: #222"/>
    <path d="M53,31.29s0,7.23-2.78,3.89H48a8.2,8.2,0,0,0,0,3.89H50.2c5.56,0,6.68-9.45,6.68-10s-1.12-1.67-1.12-1.67C53.54,31.29,53,31.29,53,31.29Z" transform="translate(-1.43 -12)" style="fill: #222"/>
    <path d="M59.66,24.61s2.78-1.67-1.12-7.79-6.67-4.45-7.23-3.89-1.11,1.11-2.22,0c0,0-2.78-4.45-7.23,6.12C41.86,19.05,50.76,16.82,59.66,24.61Zm-2.23-6.67A1.63,1.63,0,0,1,58,20.72c-.56.55-1.11.55-1.11-1.12S57.43,17.94,57.43,17.94Z" transform="translate(-1.43 -12)" style="fill: #222"/>
    <polygon points="62.12 19.29 63.23 22.62 117.19 22.62 117.19 19.29 62.12 19.29" style="fill: #222"/>
    <polygon points="34.86 22.62 35.42 19.29 4.27 19.29 5.93 22.62 34.86 22.62" style="fill: #222"/>
  </g>
  <g>
    <path d="M66.09,19.84h0c.28,0,.65,0,1,0,1,0,1.6.5,1.6,1.42a1.34,1.34,0,0,1-1.52,1.36,5,5,0,0,1-.57,0v1.68h-.5Zm.5.42v1.86a4.7,4.7,0,0,0,.55,0,.88.88,0,0,0,1-1c0-.54-.26-.92-1-.92Z" transform="translate(-1.43 -12)" style="fill: #222"/>
    <path d="M73.07,24.24H72.5l-.65-1.48h-2l-.59,1.48h-.53l1.76-4.4h.6Zm-3-1.95h1.58l-.83-1.89Z" transform="translate(-1.43 -12)" style="fill: #222"/>
    <path d="M76.15,24.24H73.68v-4.4h.5v3.93h2Z" transform="translate(-1.43 -12)" style="fill: #222"/>
    <path d="M79.47,24.24H76.92v-4.4h2.42v.46H77.42v1.37h1.47v.47H77.42v1.63h2Z" transform="translate(-1.43 -12)" style="fill: #222"/>
    <path d="M84.34,22a2.13,2.13,0,0,1-2.19,2.28,2,2,0,0,1-2.1-2.23A2.15,2.15,0,1,1,84.34,22Zm-.55,0c0-1.08-.5-1.82-1.62-1.82S80.6,21,80.6,22c0,1.22.55,1.86,1.56,1.86C83.32,23.88,83.79,23.08,83.79,22.06Z" transform="translate(-1.43 -12)" style="fill: #222"/>
    <path d="M85.88,20.64v3.6h-.5v-4.4H86l2.26,3.6v-3.6h.5v4.4h-.6Z" transform="translate(-1.43 -12)" style="fill: #222"/>
    <path d="M92.85,20.3h-1.4v3.94H91V20.3H89.54v-.46h3.31Z" transform="translate(-1.43 -12)" style="fill: #222"/>
    <path d="M97.51,22a2.13,2.13,0,0,1-2.19,2.28,2,2,0,0,1-2.1-2.23A2.15,2.15,0,1,1,97.51,22Zm-.55,0c0-1.08-.5-1.82-1.62-1.82S93.77,21,93.77,22c0,1.22.55,1.86,1.56,1.86S97,23.08,97,22.06Z" transform="translate(-1.43 -12)" style="fill: #222"/>
    <path d="M101,24.24H98.55v-4.4h.5v3.93h2Z" transform="translate(-1.43 -12)" style="fill: #222"/>
    <path d="M105.69,22a2.13,2.13,0,0,1-2.2,2.28,2,2,0,0,1-2.1-2.23,2.15,2.15,0,1,1,4.3-.05Zm-.55,0c0-1.08-.5-1.82-1.62-1.82S102,21,102,22c0,1.22.55,1.86,1.56,1.86S105.14,23.08,105.14,22.06Z" transform="translate(-1.43 -12)" style="fill: #222"/>
    <path d="M110.11,23.87a2.68,2.68,0,0,1-1.54.45,2,2,0,0,1-2.12-2.24,2.1,2.1,0,0,1,2.2-2.28,3.56,3.56,0,0,1,1.4.29l-.14.48a2.38,2.38,0,0,0-1.3-.33c-1.19,0-1.61.72-1.61,1.79s.54,1.85,1.59,1.85a2.44,2.44,0,0,0,1-.22V22.42h.5Z" transform="translate(-1.43 -12)" style="fill: #222"/>
    <path d="M110.83,19.43l0-.13v-.05l1.21-.67a.22.22,0,0,1,.24.23.35.35,0,0,1,0,.13l-1.34.51Zm.88,4.81h-.5v-4.4h.5Z" transform="translate(-1.43 -12)" style="fill: #222"/>
    <path d="M116.71,24.24h-.57l-.64-1.48h-2l-.59,1.48h-.53l1.76-4.4h.6Zm-3-1.95h1.58l-.83-1.89Z" transform="translate(-1.43 -12)" style="fill: #222"/>
  </g>
  <g>
    <path d="M66.1,25.83h0l.95,0a1.54,1.54,0,0,1,1,.34,1.56,1.56,0,0,1,.45,1.19,1.36,1.36,0,0,1-1.41,1.49,8.88,8.88,0,0,1-1-.06Zm.33.29v2.39l.67,0c.7,0,1.06-.42,1.06-1.23s-.28-1.19-1.07-1.19Z" transform="translate(-1.43 -12)" style="fill: #222"/>
    <path d="M72.1,28.77H70.41V25.83H72v.32H70.74v.91h1v.31h-1v1.09H72.1Z" transform="translate(-1.43 -12)" style="fill: #222"/>
    <path d="M78.43,28.53a1.76,1.76,0,0,1-1,.3A1.36,1.36,0,0,1,76,27.34a1.4,1.4,0,0,1,1.46-1.53,2.4,2.4,0,0,1,.93.19l-.09.32a1.69,1.69,0,0,0-.87-.21c-.79,0-1.06.48-1.06,1.19s.35,1.23,1,1.23a1.59,1.59,0,0,0,.68-.14v-.83h.33Z" transform="translate(-1.43 -12)" style="fill: #222"/>
    <path d="M80.65,27.63c0,.65.29.9.79.9s.8-.25.8-.9v-1.8h.31v2a1,1,0,0,1-1.11,1c-.83,0-1.12-.45-1.12-1v-2h.33Z" transform="translate(-1.43 -12)" style="fill: #222"/>
    <path d="M87,28.77h-.37l-.43-1H84.88l-.39,1h-.35l1.17-2.94h.4Zm-2-1.3h1l-.55-1.26Z" transform="translate(-1.43 -12)" style="fill: #222"/>
    <path d="M88.59,25.83h0l.94,0a1.5,1.5,0,0,1,1,.34A1.56,1.56,0,0,1,91,27.34a1.36,1.36,0,0,1-1.41,1.49,8.54,8.54,0,0,1-1-.06Zm.33.29v2.39l.67,0c.7,0,1-.42,1-1.23s-.27-1.19-1.06-1.19Z" transform="translate(-1.43 -12)" style="fill: #222"/>
    <path d="M95.3,28.77h-.38l-.43-1h-1.3l-.39,1h-.36l1.17-2.94H94Zm-2-1.3h1l-.55-1.26Z" transform="translate(-1.43 -12)" style="fill: #222"/>
    <path d="M98.53,28.77H96.89V25.83h.33v2.63h1.31Z" transform="translate(-1.43 -12)" style="fill: #222"/>
    <path d="M102.67,28.77h-.38l-.42-1h-1.31l-.39,1h-.35L101,25.83h.4Zm-2-1.3h1l-.55-1.26Z" transform="translate(-1.43 -12)" style="fill: #222"/>
    <path d="M104.59,28.32c0,.63-.24,1.15-.76,1.15l-.07-.25c.47,0,.5-.49.5-.9V25.83h.33Z" transform="translate(-1.43 -12)" style="fill: #222"/>
    <path d="M109.1,28.77h-.38l-.43-1H107l-.39,1h-.36l1.17-2.94h.4Zm-2-1.3h1l-.54-1.26Z" transform="translate(-1.43 -12)" style="fill: #222"/>
    <path d="M110.69,25.83l.66,0c.64,0,1.06.3,1.06.85a.81.81,0,0,1-.65.82l1.12,1.29h-.41l-1.09-1.25-.36,0v1.27h-.33Zm.33.28v1.1h.36c.44,0,.66-.21.66-.6s-.17-.51-.66-.51Z" transform="translate(-1.43 -12)" style="fill: #222"/>
    <path d="M117,28.77h-.37l-.43-1h-1.31l-.39,1h-.35l1.17-2.94h.4Zm-2-1.3H116l-.55-1.26Z" transform="translate(-1.43 -12)" style="fill: #222"/>
  </g>
</svg>
