<svg width="459" height="273" viewBox="0 0 459 273" fill="none" xmlns="http://www.w3.org/2000/svg">
<path fill-rule="evenodd" clip-rule="evenodd" d="M431.359 95.0226C431.859 89.8559 433.659 77.7225 436.859 70.5226C432.025 67.0226 421.759 54.6226 419.359 33.0226C419.359 33.0226 391.859 2.02235 380.359 2.52235C380.359 2.52235 378.359 2.02247 365.359 8.52247H364.859H354.859C354.859 8.52247 345.359 0.522498 342.359 1.0225C342.359 1.0225 339.359 0.522461 332.359 6.52246C332.359 6.52246 327.859 10.0225 322.359 15.5225C322.359 15.5225 319.359 18.5225 317.359 24.5225C317.359 24.5225 316.359 28.5225 313.359 31.5225C313.359 31.5225 310.359 35.0225 303.859 39.0225C303.859 39.0225 298.359 43.5225 295.359 49.0225C295.359 49.0225 294.859 51.5225 295.359 55.5225C295.359 55.5225 302.859 54.5225 317.359 54.5225H335.359C335.359 54.5225 352.859 55.0225 369.359 60.0225C369.359 60.0225 390.359 62.0225 428.359 93.0225L431.359 95.0226ZM296.859 96.0228C289.526 127.023 260.859 192.923 204.859 208.523C148.859 224.123 99.5255 210.023 81.8588 201.023C71.8588 196.856 47.4588 182.323 29.8588 157.523C12.2588 132.723 6.85889 75.5228 42.8588 63.5228C39.1921 62.6895 29.6588 61.8228 20.8588 65.0228C9.85876 69.0228 -1.14124 89.5227 1.35876 121.023C3.85876 152.523 17.3588 186.023 37.3588 208.523C57.3588 231.023 128.718 250.045 165.859 249.523C167.638 249.498 169.408 249.48 171.173 249.462C206.252 249.104 239.137 248.769 294.359 194.023C294.859 179.856 298.959 145.423 311.359 121.023C306.359 140.356 296.859 184.923 298.859 208.523C301.359 238.023 337.359 274.523 375.859 272.023C414.359 269.523 443.359 240.523 450.359 222.523C456.326 207.179 456.48 204.915 457.324 192.503L457.324 192.501C457.471 190.352 457.637 187.9 457.859 185.023C459.359 165.523 448.359 118.523 420.359 96.0228C411.859 87.0228 388.359 67.5227 362.359 61.5227C336.692 56.356 280.359 51.6227 260.359 74.0227C272.359 70.856 300.759 64.9226 318.359 66.5226C338.359 66.8559 383.659 75.6226 404.859 108.023C411.359 117.356 424.559 143.123 425.359 171.523C426.692 191.689 419.059 232.523 377.859 234.523C362.859 234.189 333.559 227.023 336.359 201.023C336.859 185.856 344.559 148.323 371.359 119.523C371.359 119.523 362.859 137.523 356.859 149.023C357.525 150.189 360.459 152.323 366.859 151.523C372.025 139.856 385.259 114.823 396.859 108.023C383.025 87.0226 335.859 57.9325 290.359 72.0226C290.192 77.3561 291.259 89.623 296.859 96.0228ZM339.859 195.523C340.621 179.123 345.843 170.023 348.359 167.523H365.859C365.059 174.323 371.525 175.023 374.859 174.523C384.059 176.923 382.359 154.523 380.359 143.023C389.559 136.223 396.859 119.523 399.359 112.023C408.959 118.423 411.359 134.023 411.359 141.023C410.959 166.623 402.525 183.356 398.359 188.523C391.559 195.723 375.859 198.523 368.859 199.023C359.259 199.423 345.525 196.856 339.859 195.523ZM411 44C411.5 39 415 36 415 36L417.5 39.5L417 53C411 49.5 411 44 411 44Z" fill="#191820"/>
<path d="M436.859 70.5226L437.316 70.7257L437.48 70.3553L437.152 70.1176L436.859 70.5226ZM431.359 95.0226L431.081 95.4386L431.776 95.9017L431.856 95.0708L431.359 95.0226ZM419.359 33.0226L419.856 32.9674L419.838 32.8096L419.733 32.6908L419.359 33.0226ZM380.359 2.52235L380.238 3.00743L380.308 3.02503L380.38 3.02188L380.359 2.52235ZM365.359 8.52247V9.02247H365.477L365.582 8.96968L365.359 8.52247ZM354.859 8.52247L354.537 8.90492L354.676 9.02247H354.859V8.52247ZM342.359 1.0225L342.277 1.51569L342.359 1.5294L342.441 1.51569L342.359 1.0225ZM332.359 6.52246L332.666 6.91714L332.675 6.90983L332.684 6.90209L332.359 6.52246ZM317.359 24.5225L316.884 24.3643L316.878 24.3826L316.874 24.4012L317.359 24.5225ZM313.359 31.5225L313.005 31.1689L312.992 31.1825L312.979 31.1971L313.359 31.5225ZM303.859 39.0225L303.597 38.5966L303.568 38.6142L303.542 38.6355L303.859 39.0225ZM295.359 49.0225L294.92 48.783L294.883 48.8498L294.868 48.9244L295.359 49.0225ZM295.359 55.5225L294.863 55.5845L294.925 56.0847L295.425 56.0181L295.359 55.5225ZM335.359 54.5225L335.373 54.0227L335.366 54.0225H335.359V54.5225ZM369.359 60.0225L369.214 60.501L369.262 60.5155L369.311 60.5202L369.359 60.0225ZM428.359 93.0225L428.043 93.4099L428.061 93.4251L428.081 93.4385L428.359 93.0225ZM204.859 208.523L204.725 208.041L204.725 208.041L204.859 208.523ZM296.859 96.0228L297.346 96.1379L297.405 95.8874L297.235 95.6936L296.859 96.0228ZM81.8588 201.023L82.0858 200.577L82.0688 200.569L82.0511 200.561L81.8588 201.023ZM29.8588 157.523L29.4511 157.812L29.4511 157.812L29.8588 157.523ZM42.8588 63.5228L43.017 63.9972L44.7136 63.4316L42.9697 63.0353L42.8588 63.5228ZM20.8588 65.0228L21.0296 65.4927L21.0296 65.4927L20.8588 65.0228ZM1.35876 121.023L0.860328 121.062L0.860328 121.062L1.35876 121.023ZM165.859 249.523L165.866 250.023L165.866 250.023L165.859 249.523ZM171.173 249.462L171.178 249.962L171.178 249.962L171.173 249.462ZM294.359 194.023L294.711 194.378L294.851 194.238L294.858 194.04L294.359 194.023ZM311.359 121.023L311.843 121.148L310.913 120.796L311.359 121.023ZM298.859 208.523L299.357 208.481L298.859 208.523ZM450.359 222.523L449.893 222.341L449.893 222.341L450.359 222.523ZM457.324 192.503L457.823 192.537L457.823 192.537L457.324 192.503ZM457.324 192.501L456.826 192.467L456.825 192.467L457.324 192.501ZM457.859 185.023L458.357 185.061L458.357 185.061L457.859 185.023ZM420.359 96.0228L419.995 96.3661L420.019 96.3911L420.046 96.4126L420.359 96.0228ZM362.359 61.5227L362.471 61.0353L362.457 61.0325L362.359 61.5227ZM260.359 74.0227L259.986 73.6897L258.878 74.9306L260.486 74.5061L260.359 74.0227ZM318.359 66.5226L318.313 67.0205L318.332 67.0222L318.35 67.0225L318.359 66.5226ZM404.859 108.023L404.44 108.296L404.444 108.302L404.448 108.308L404.859 108.023ZM425.359 171.523L424.859 171.537L424.859 171.546L424.86 171.556L425.359 171.523ZM377.859 234.523L377.848 235.022L377.865 235.023L377.883 235.022L377.859 234.523ZM336.359 201.023L336.856 201.076L336.858 201.058L336.858 201.039L336.359 201.023ZM371.359 119.523L371.811 119.736L370.993 119.182L371.359 119.523ZM356.859 149.023L356.415 148.791L356.289 149.033L356.425 149.271L356.859 149.023ZM366.859 151.523L366.921 152.019L367.201 151.984L367.316 151.725L366.859 151.523ZM396.859 108.023L397.112 108.454L397.566 108.188L397.276 107.748L396.859 108.023ZM290.359 72.0226L290.211 71.545L289.87 71.6505L289.859 72.007L290.359 72.0226ZM348.359 167.523V167.023H348.153L348.006 167.168L348.359 167.523ZM339.859 195.523L339.359 195.499L339.34 195.914L339.744 196.009L339.859 195.523ZM365.859 167.523L366.355 167.581L366.421 167.023H365.859V167.523ZM374.859 174.523L374.985 174.039L374.886 174.013L374.785 174.028L374.859 174.523ZM380.359 143.023L380.062 142.62L379.813 142.804L379.866 143.108L380.359 143.023ZM399.359 112.023L399.636 111.607L399.091 111.243L398.884 111.864L399.359 112.023ZM411.359 141.023L411.859 141.03V141.023H411.359ZM398.359 188.523L398.722 188.866L398.736 188.852L398.748 188.836L398.359 188.523ZM368.859 199.023L368.88 199.522L368.887 199.522L368.894 199.521L368.859 199.023ZM415 36L415.407 35.7094L415.089 35.2649L414.675 35.6204L415 36ZM411 44L410.502 43.9502L410.5 43.9751V44H411ZM417.5 39.5L418 39.5185L418.006 39.3481L417.907 39.2094L417.5 39.5ZM417 53L416.748 53.4319L417.469 53.8523L417.5 53.0185L417 53ZM436.402 70.3195C433.167 77.599 431.362 89.8026 430.861 94.9744L431.856 95.0708C432.356 89.9092 434.151 77.846 437.316 70.7257L436.402 70.3195ZM418.862 33.0778C421.276 54.8034 431.607 67.3367 436.566 70.9276L437.152 70.1176C432.444 66.7085 422.242 54.4418 419.856 32.9674L418.862 33.0778ZM380.38 3.02188C381.711 2.96405 383.318 3.36246 385.138 4.14839C386.952 4.93161 388.942 6.08354 391.024 7.49131C395.189 10.3068 399.683 14.1156 403.832 17.9521C407.978 21.7863 411.767 25.6377 414.52 28.5313C415.896 29.9778 417.013 31.1844 417.786 32.029C418.172 32.4513 418.472 32.783 418.675 33.009C418.777 33.122 418.855 33.2086 418.907 33.2668C418.933 33.2959 418.952 33.3179 418.965 33.3326C418.972 33.3399 418.977 33.3454 418.98 33.3491C418.982 33.3509 418.983 33.3522 418.984 33.3531C418.984 33.3536 418.984 33.3539 418.984 33.3541C418.985 33.3543 418.985 33.3544 419.359 33.0226C419.733 32.6908 419.733 32.6906 419.732 32.6904C419.732 32.6901 419.732 32.6897 419.731 32.6892C419.731 32.6882 419.729 32.6868 419.728 32.6848C419.724 32.681 419.719 32.6752 419.712 32.6677C419.699 32.6526 419.679 32.6301 419.652 32.6006C419.6 32.5415 419.521 32.454 419.419 32.3401C419.214 32.1122 418.912 31.7785 418.524 31.3541C417.747 30.5053 416.626 29.2939 415.244 27.842C412.482 24.9387 408.677 21.0712 404.511 17.2179C400.347 13.3667 395.81 9.51928 391.584 6.66284C389.471 5.23464 387.425 4.04671 385.534 3.23031C383.65 2.41662 381.882 1.95565 380.337 2.02282L380.38 3.02188ZM365.582 8.96968C372.072 5.72489 375.797 4.23715 377.888 3.56063C378.933 3.22243 379.56 3.09038 379.912 3.04097C380.088 3.01636 380.191 3.01292 380.241 3.01353C380.266 3.01383 380.277 3.01511 380.275 3.01497C380.275 3.01489 380.271 3.01445 380.265 3.01331C380.261 3.01274 380.258 3.01199 380.253 3.01102C380.251 3.01054 380.248 3.01 380.246 3.00941C380.244 3.00911 380.243 3.00879 380.242 3.00846C380.241 3.0083 380.24 3.00804 380.24 3.00796C380.239 3.00769 380.238 3.00743 380.359 2.52235C380.48 2.03727 380.479 2.037 380.478 2.03673C380.477 2.03664 380.476 2.03637 380.476 2.03619C380.474 2.03583 380.473 2.03547 380.471 2.03511C380.468 2.0344 380.465 2.03369 380.461 2.033C380.455 2.0316 380.448 2.03023 380.441 2.02892C380.426 2.02628 380.409 2.02382 380.391 2.02167C380.354 2.01739 380.309 2.01427 380.254 2.0136C380.143 2.01226 379.989 2.02055 379.774 2.05063C379.345 2.11062 378.66 2.25985 377.58 2.60919C375.421 3.30772 371.646 4.82004 365.135 8.07525L365.582 8.96968ZM364.859 9.02247H365.359V8.02247H364.859V9.02247ZM354.859 9.02247H364.859V8.02247H354.859V9.02247ZM342.441 1.51569C342.702 1.47225 343.089 1.51631 343.608 1.67845C344.117 1.83747 344.706 2.09502 345.348 2.42743C346.631 3.09194 348.078 4.0303 349.446 4.99372C350.811 5.9554 352.084 6.93371 353.017 7.67231C353.483 8.0414 353.864 8.35013 354.128 8.56636C354.26 8.67446 354.362 8.75941 354.432 8.81719C354.466 8.84607 354.493 8.86816 354.511 8.88295C354.519 8.89035 354.526 8.89592 354.53 8.8996C354.533 8.90144 354.534 8.90281 354.535 8.9037C354.536 8.90415 354.536 8.90447 354.536 8.90468C354.537 8.90478 354.537 8.90484 354.537 8.90489C354.537 8.90492 354.537 8.90492 354.859 8.52247C355.181 8.14001 355.181 8.13995 355.181 8.13986C355.181 8.13979 355.18 8.13967 355.18 8.13953C355.18 8.13925 355.179 8.13884 355.179 8.13832C355.178 8.13727 355.176 8.13574 355.173 8.13374C355.169 8.12974 355.162 8.12384 355.152 8.11611C355.134 8.10066 355.107 8.07789 355.071 8.04831C355 7.98914 354.895 7.9027 354.762 7.79303C354.494 7.57371 354.109 7.26136 353.638 6.88826C352.696 6.14249 351.407 5.15206 350.022 4.17624C348.639 3.20217 347.149 2.23429 345.807 1.53943C345.137 1.19216 344.491 0.906739 343.906 0.723967C343.331 0.544311 342.766 0.447748 342.277 0.529301L342.441 1.51569ZM332.684 6.90209C336.154 3.9279 338.606 2.58824 340.163 1.98915C340.941 1.68995 341.495 1.57601 341.84 1.53456C342.013 1.51382 342.134 1.51116 342.206 1.51263C342.242 1.51336 342.266 1.51513 342.277 1.51621C342.283 1.51675 342.286 1.51712 342.286 1.5171C342.286 1.5171 342.285 1.51699 342.283 1.51677C342.283 1.51665 342.282 1.51651 342.28 1.51633C342.28 1.51624 342.279 1.51615 342.279 1.51604C342.278 1.51599 342.278 1.5159 342.278 1.51587C342.277 1.51578 342.277 1.51569 342.359 1.0225C342.441 0.529302 342.44 0.529207 342.44 0.529111C342.44 0.529076 342.439 0.528979 342.439 0.528911C342.438 0.528775 342.437 0.528634 342.436 0.528487C342.434 0.528194 342.432 0.527881 342.43 0.52755C342.425 0.526889 342.42 0.52616 342.414 0.52539C342.402 0.523849 342.387 0.522143 342.37 0.520486C342.334 0.517171 342.286 0.514056 342.226 0.512835C342.107 0.510392 341.939 0.515541 341.721 0.541678C341.285 0.593966 340.651 0.730023 339.804 1.05581C338.112 1.7067 335.563 3.11702 332.033 6.14283L332.684 6.90209ZM322.712 15.876C325.452 13.1364 327.943 10.8949 329.748 9.33867C330.65 8.56066 331.381 7.95423 331.886 7.54278C332.138 7.33707 332.334 7.18012 332.466 7.07486C332.532 7.02224 332.582 6.98253 332.616 6.95612C332.633 6.94292 332.645 6.93304 332.654 6.92652C332.658 6.92327 332.661 6.92085 332.663 6.91929C332.664 6.9185 332.665 6.91793 332.665 6.91757C332.665 6.91739 332.666 6.91727 332.666 6.9172C332.666 6.91716 332.666 6.91714 332.666 6.91713C332.666 6.91713 332.666 6.91714 332.359 6.52246C332.052 6.12778 332.052 6.12782 332.052 6.12788C332.052 6.12791 332.052 6.12798 332.051 6.12805C332.051 6.12819 332.051 6.12838 332.051 6.12863C332.05 6.12912 332.049 6.12983 332.048 6.13075C332.046 6.13259 332.042 6.13528 332.038 6.13881C332.029 6.14588 332.015 6.15632 331.998 6.1701C331.963 6.19764 331.911 6.23851 331.843 6.29232C331.708 6.39996 331.509 6.55942 331.254 6.76776C330.743 7.18444 330.005 7.79676 329.095 8.58126C327.275 10.1501 324.766 12.4085 322.005 15.1689L322.712 15.876ZM317.833 24.6806C318.817 21.7281 320.046 19.5179 321.025 18.0498C321.514 17.3158 321.941 16.7675 322.243 16.4051C322.394 16.2238 322.514 16.0891 322.595 16.0009C322.635 15.9569 322.666 15.9244 322.686 15.9036C322.696 15.8932 322.703 15.8857 322.707 15.8811C322.71 15.8788 322.711 15.8772 322.712 15.8764C322.712 15.8759 322.713 15.8757 322.713 15.8756C322.713 15.8756 322.713 15.8756 322.713 15.8757C322.713 15.8757 322.713 15.8758 322.713 15.8758C322.712 15.8759 322.712 15.876 322.359 15.5225C322.005 15.1689 322.005 15.169 322.005 15.1692C322.005 15.1692 322.005 15.1694 322.005 15.1695C322.004 15.1698 322.004 15.17 322.004 15.1704C322.003 15.1711 322.002 15.1719 322.001 15.173C321.999 15.175 321.996 15.1779 321.993 15.1814C321.986 15.1886 321.976 15.1986 321.964 15.2117C321.939 15.2377 321.903 15.2756 321.857 15.3252C321.766 15.4245 321.636 15.5711 321.475 15.7649C321.152 16.1524 320.703 16.7291 320.193 17.4951C319.171 19.027 317.9 21.3168 316.884 24.3643L317.833 24.6806ZM313.712 31.876C315.269 30.3198 316.299 28.5127 316.939 27.1044C317.26 26.3984 317.485 25.7881 317.63 25.3524C317.703 25.1345 317.755 24.96 317.79 24.8386C317.808 24.778 317.821 24.7306 317.83 24.6977C317.834 24.6812 317.837 24.6684 317.84 24.6594C317.841 24.6549 317.842 24.6513 317.843 24.6487C317.843 24.6474 317.843 24.6463 317.843 24.6455C317.844 24.6451 317.844 24.6447 317.844 24.6444C317.844 24.6443 317.844 24.6441 317.844 24.644C317.844 24.6439 317.844 24.6437 317.359 24.5225C316.874 24.4012 316.874 24.4011 316.874 24.401C316.874 24.401 316.874 24.4009 316.874 24.4009C316.874 24.4008 316.874 24.4008 316.874 24.4009C316.874 24.4011 316.874 24.4015 316.873 24.4021C316.873 24.4033 316.873 24.4055 316.872 24.4087C316.87 24.415 316.868 24.425 316.864 24.4386C316.857 24.4657 316.845 24.5072 316.829 24.5618C316.798 24.6709 316.749 24.8323 316.681 25.0362C316.545 25.4443 316.333 26.0215 316.029 26.6906C315.419 28.0322 314.449 29.7252 313.005 31.1689L313.712 31.876ZM304.121 39.4483C307.397 37.4322 309.795 35.5399 311.377 34.1478C312.168 33.4518 312.755 32.8808 313.146 32.4818C313.341 32.2823 313.488 32.1258 313.586 32.0182C313.635 31.9644 313.673 31.9228 313.698 31.8942C313.711 31.8799 313.72 31.8688 313.727 31.861C313.73 31.8572 313.733 31.8541 313.735 31.8519C313.736 31.8508 313.737 31.8499 313.737 31.8492C313.737 31.8489 313.738 31.8486 313.738 31.8484C313.738 31.8483 313.738 31.8481 313.738 31.8481C313.738 31.848 313.738 31.8479 313.359 31.5225C312.979 31.1971 312.979 31.197 312.979 31.1969C312.979 31.1969 312.979 31.1969 312.979 31.1969C312.979 31.1968 312.979 31.1969 312.979 31.197C312.979 31.1971 312.979 31.1975 312.978 31.1981C312.977 31.1993 312.975 31.2013 312.973 31.2042C312.968 31.21 312.96 31.219 312.949 31.2313C312.927 31.2559 312.894 31.2934 312.848 31.3431C312.757 31.4425 312.619 31.5907 312.431 31.7819C312.057 32.1641 311.488 32.7181 310.716 33.3971C309.173 34.755 306.821 36.6128 303.597 38.5966L304.121 39.4483ZM295.798 49.2619C297.267 46.5677 299.358 44.1045 301.093 42.3073C301.959 41.4107 302.732 40.6843 303.288 40.1827C303.565 39.9319 303.789 39.7375 303.942 39.6064C304.018 39.5408 304.077 39.491 304.117 39.4579C304.137 39.4413 304.152 39.429 304.162 39.4208C304.166 39.4168 304.17 39.4138 304.172 39.4119C304.174 39.4109 304.174 39.4103 304.175 39.4098C304.175 39.4096 304.175 39.4095 304.175 39.4094C304.175 39.4094 304.175 39.4094 304.175 39.4094C304.175 39.4094 304.175 39.4094 303.859 39.0225C303.542 38.6355 303.542 38.6356 303.542 38.6356C303.542 38.6357 303.542 38.6358 303.542 38.6359C303.541 38.6361 303.541 38.6364 303.541 38.6367C303.54 38.6374 303.539 38.6384 303.537 38.6396C303.534 38.6421 303.53 38.6456 303.524 38.6502C303.513 38.6595 303.497 38.673 303.475 38.6908C303.433 38.7263 303.371 38.7786 303.291 38.8468C303.132 38.9832 302.902 39.1833 302.617 39.4404C302.048 39.9544 301.258 40.6967 300.374 41.6127C298.609 43.4404 296.45 45.9773 294.92 48.783L295.798 49.2619ZM295.855 55.4604C295.609 53.4935 295.609 51.8987 295.67 50.8002C295.701 50.251 295.747 49.826 295.784 49.5408C295.803 49.3982 295.82 49.2906 295.831 49.2199C295.837 49.1845 295.842 49.1584 295.845 49.1418C295.847 49.1335 295.848 49.1275 295.848 49.1239C295.849 49.1222 295.849 49.121 295.849 49.1204C295.849 49.1201 295.849 49.12 295.849 49.12C295.849 49.12 295.849 49.1201 295.849 49.1202C295.849 49.1202 295.849 49.1203 295.849 49.1203C295.849 49.1204 295.849 49.1205 295.359 49.0225C294.868 48.9244 294.868 48.9245 294.868 48.9247C294.868 48.9247 294.868 48.9249 294.868 48.925C294.868 48.9252 294.868 48.9255 294.868 48.9258C294.868 48.9264 294.868 48.9272 294.868 48.9282C294.867 48.93 294.867 48.9325 294.866 48.9356C294.865 48.9417 294.863 48.9503 294.861 48.9612C294.857 48.9832 294.852 49.0147 294.845 49.0555C294.831 49.1371 294.813 49.2561 294.793 49.4104C294.752 49.7189 294.704 50.1689 294.672 50.7447C294.608 51.8962 294.608 53.5515 294.863 55.5845L295.855 55.4604ZM317.359 54.0225C310.097 54.0225 304.586 54.2729 300.887 54.5236C299.038 54.649 297.642 54.7744 296.707 54.8687C296.24 54.9159 295.887 54.9552 295.651 54.9829C295.533 54.9967 295.444 55.0076 295.384 55.0151C295.354 55.0189 295.332 55.0217 295.317 55.0237C295.309 55.0247 295.303 55.0255 295.299 55.026C295.297 55.0263 295.296 55.0265 295.295 55.0266C295.294 55.0267 295.294 55.0267 295.293 55.0268C295.293 55.0268 295.293 55.0268 295.293 55.0268C295.293 55.0268 295.293 55.0268 295.359 55.5225C295.425 56.0181 295.425 56.0181 295.425 56.0181C295.425 56.0181 295.425 56.0181 295.425 56.0181C295.425 56.018 295.425 56.018 295.426 56.018C295.426 56.0179 295.428 56.0177 295.429 56.0175C295.433 56.017 295.438 56.0164 295.445 56.0155C295.459 56.0137 295.48 56.0109 295.509 56.0074C295.566 56.0002 295.652 55.9896 295.768 55.9761C295.998 55.9491 296.345 55.9103 296.807 55.8637C297.732 55.7705 299.117 55.6459 300.955 55.5213C304.632 55.2721 310.12 55.0225 317.359 55.0225V54.0225ZM335.359 54.0225H317.359V55.0225H335.359V54.0225ZM369.504 59.5439C361.215 57.0322 352.683 55.6527 346.229 54.9008C343.001 54.5247 340.289 54.3052 338.384 54.1798C337.431 54.1171 336.68 54.0778 336.166 54.0542C335.909 54.0424 335.711 54.0346 335.578 54.0296C335.511 54.0272 335.46 54.0254 335.426 54.0243C335.409 54.0238 335.396 54.0233 335.387 54.0231C335.382 54.0229 335.379 54.0228 335.377 54.0228C335.376 54.0227 335.375 54.0227 335.374 54.0227C335.374 54.0227 335.374 54.0227 335.373 54.0227C335.373 54.0227 335.373 54.0227 335.359 54.5225C335.344 55.0223 335.344 55.0223 335.345 55.0223C335.345 55.0223 335.345 55.0223 335.345 55.0223C335.345 55.0223 335.346 55.0223 335.347 55.0223C335.349 55.0224 335.352 55.0225 335.356 55.0226C335.364 55.0229 335.377 55.0232 335.393 55.0238C335.426 55.0249 335.475 55.0265 335.541 55.029C335.672 55.0338 335.866 55.0415 336.12 55.0532C336.628 55.0765 337.372 55.1154 338.318 55.1776C340.21 55.3022 342.904 55.5202 346.113 55.8941C352.535 56.6422 361.003 58.0127 369.214 60.501L369.504 59.5439ZM428.675 92.635C409.644 77.1098 394.856 68.8347 384.809 64.4394C379.786 62.2418 375.949 61.0144 373.361 60.3357C372.066 59.9964 371.085 59.7943 370.423 59.6767C370.092 59.6179 369.841 59.5802 369.671 59.5571C369.586 59.5455 369.522 59.5376 369.478 59.5325C369.455 59.5299 369.438 59.528 369.427 59.5268C369.421 59.5262 369.416 59.5257 369.413 59.5253C369.411 59.5252 369.409 59.525 369.408 59.5249C369.408 59.5249 369.407 59.5248 369.407 59.5248C369.407 59.5248 369.406 59.5247 369.359 60.0225C369.311 60.5202 369.311 60.5202 369.311 60.5202C369.311 60.5202 369.311 60.5202 369.311 60.5202C369.311 60.5202 369.312 60.5203 369.313 60.5203C369.314 60.5205 369.317 60.5208 369.322 60.5213C369.33 60.5222 369.344 60.5237 369.363 60.5258C369.4 60.5302 369.458 60.5373 369.536 60.5479C369.693 60.5692 369.93 60.6048 370.248 60.6612C370.883 60.7741 371.839 60.9704 373.107 61.303C375.644 61.9681 379.431 63.1782 384.408 65.3555C394.362 69.7103 409.074 77.9351 428.043 93.4099L428.675 92.635ZM431.636 94.6066L428.636 92.6064L428.081 93.4385L431.081 95.4386L431.636 94.6066ZM204.993 209.004C233.15 201.161 254.403 180.682 269.523 158.328C284.644 135.972 293.667 111.69 297.346 96.1379L296.372 95.9077C292.718 111.356 283.74 135.524 268.695 157.768C253.648 180.013 232.568 200.285 204.725 208.041L204.993 209.004ZM81.6319 201.468C99.3937 210.517 148.856 224.643 204.993 209.004L204.725 208.041C148.862 223.603 99.6573 209.529 82.0858 200.577L81.6319 201.468ZM29.4511 157.812C47.1148 182.702 71.5964 197.288 81.6665 201.484L82.0511 200.561C72.1213 196.424 47.8029 181.944 30.2666 157.233L29.4511 157.812ZM42.7007 63.0485C24.4171 69.143 16.7142 86.7039 15.7595 105.698C14.8046 124.694 20.5774 145.308 29.4511 157.812L30.2666 157.233C21.5403 144.937 15.8131 124.552 16.7582 105.748C17.7035 86.9417 25.3006 69.9026 43.017 63.9972L42.7007 63.0485ZM21.0296 65.4927C29.7136 62.3349 39.1441 63.1913 42.748 64.0104L42.9697 63.0353C39.2402 62.1877 29.6039 61.3107 20.6879 64.5529L21.0296 65.4927ZM1.85719 120.983C0.612249 105.297 2.73105 92.3755 6.51071 82.8954C10.2986 73.3946 15.7215 67.4229 21.0296 65.4927L20.6879 64.5529C14.996 66.6227 9.4189 72.901 5.58181 82.5251C1.73647 92.1699 -0.394727 105.249 0.860328 121.062L1.85719 120.983ZM37.7325 208.191C17.8115 185.78 4.34941 152.385 1.85719 120.983L0.860328 121.062C3.36811 152.66 16.9061 186.266 36.9851 208.855L37.7325 208.191ZM165.852 249.023C147.349 249.283 120.278 244.671 95.3246 237.177C82.852 233.432 70.9233 228.97 60.8714 224.046C50.8099 219.117 42.6684 213.744 37.7325 208.191L36.9851 208.855C42.0491 214.552 50.3275 219.994 60.4314 224.944C70.5449 229.898 82.5272 234.378 95.037 238.135C120.048 245.647 147.227 250.285 165.866 250.023L165.852 249.023ZM171.167 248.962C169.403 248.98 167.632 248.998 165.852 249.023L165.866 250.023C167.644 249.998 169.413 249.98 171.178 249.962L171.167 248.962ZM294.007 193.668C266.43 221.007 244.464 234.727 225.044 241.667C205.623 248.607 188.71 248.783 171.167 248.962L171.178 249.962C188.714 249.783 205.783 249.612 225.38 242.609C244.979 235.605 267.066 221.785 294.711 194.378L294.007 193.668ZM310.913 120.796C298.464 145.292 294.36 179.811 293.859 194.005L294.858 194.04C295.357 179.901 299.453 145.553 311.805 121.249L310.913 120.796ZM299.357 208.481C298.363 196.748 300.228 179.76 302.977 163.255C305.724 146.763 309.346 130.802 311.843 121.148L310.875 120.898C308.371 130.577 304.743 146.566 301.991 163.091C299.24 179.603 297.355 196.698 298.361 208.565L299.357 208.481ZM375.826 271.524C356.744 272.763 338.244 264.336 324.19 251.898C310.129 239.455 300.593 223.065 299.357 208.481L298.361 208.565C299.625 223.48 309.338 240.091 323.527 252.647C337.723 265.21 356.474 273.782 375.891 272.522L375.826 271.524ZM449.893 222.341C446.435 231.233 437.505 242.914 424.619 252.687C411.743 262.453 394.959 270.281 375.826 271.524L375.891 272.522C395.258 271.264 412.225 263.342 425.223 253.484C438.213 243.632 447.283 231.812 450.825 222.704L449.893 222.341ZM456.825 192.469C456.402 198.684 456.154 202.314 455.274 206.306C454.393 210.3 452.876 214.67 449.893 222.341L450.825 222.704C453.808 215.032 455.351 210.598 456.251 206.521C457.15 202.442 457.401 198.734 457.823 192.537L456.825 192.469ZM456.825 192.467L456.825 192.47L457.823 192.537L457.823 192.534L456.825 192.467ZM457.36 184.984C457.139 187.864 456.972 190.318 456.826 192.467L457.823 192.534C457.969 190.386 458.136 187.935 458.357 185.061L457.36 184.984ZM420.046 96.4126C433.946 107.582 443.654 124.862 449.7 141.816C455.747 158.773 458.103 175.325 457.36 184.984L458.357 185.061C459.114 175.22 456.72 158.523 450.642 141.48C444.563 124.434 434.772 106.963 420.672 95.6331L420.046 96.4126ZM362.246 62.0099C388.111 67.9787 411.529 87.4015 419.995 96.3661L420.722 95.6795C412.189 86.6441 388.606 67.0667 362.471 61.0355L362.246 62.0099ZM260.732 74.3557C265.65 68.8476 272.827 64.9808 281.272 62.3707C289.714 59.7616 299.388 58.4188 309.258 57.9346C329 56.9662 349.457 59.4357 362.26 62.0129L362.457 61.0325C349.593 58.443 329.051 55.9625 309.209 56.9358C299.288 57.4225 289.524 58.7734 280.977 61.4153C272.432 64.0562 265.068 67.9978 259.986 73.6897L260.732 74.3557ZM318.404 66.0246C309.541 65.2189 297.992 66.3103 287.182 67.9911C276.364 69.6731 266.247 71.9518 260.231 73.5392L260.486 74.5061C266.471 72.9269 276.554 70.6555 287.336 68.9792C298.126 67.3015 309.576 66.2263 318.313 67.0205L318.404 66.0246ZM405.277 107.749C394.599 91.4298 377.869 81.0856 361.337 74.7804C344.804 68.4748 328.421 66.1902 318.367 66.0227L318.35 67.0225C328.297 67.1883 344.564 69.4537 360.981 75.7148C377.398 81.9763 393.918 92.2154 404.44 108.296L405.277 107.749ZM425.859 171.509C425.055 142.984 411.807 117.124 405.269 107.737L404.448 108.308C410.911 117.588 424.062 143.262 424.859 171.537L425.859 171.509ZM377.883 235.022C398.684 234.012 411.038 223.182 418 210.07C424.947 196.987 426.529 181.638 425.858 171.49L424.86 171.556C425.522 181.574 423.954 196.725 417.117 209.601C410.296 222.447 398.234 233.033 377.835 234.023L377.883 235.022ZM335.862 200.969C335.151 207.571 336.477 213.003 339.123 217.435C341.766 221.861 345.707 225.259 350.185 227.831C359.13 232.969 370.295 234.855 377.848 235.022L377.87 234.023C370.422 233.857 359.437 231.992 350.683 226.964C346.311 224.453 342.514 221.164 339.982 216.922C337.453 212.688 336.167 207.475 336.856 201.076L335.862 200.969ZM370.993 119.182C344.089 148.093 336.362 185.754 335.859 201.006L336.858 201.039C337.356 185.958 345.028 148.552 371.725 119.863L370.993 119.182ZM357.302 149.254C360.306 143.497 363.933 136.116 366.809 130.178C368.247 127.208 369.497 124.598 370.388 122.73C370.834 121.796 371.189 121.048 371.434 120.533C371.556 120.275 371.65 120.076 371.714 119.941C371.746 119.874 371.77 119.823 371.786 119.788C371.794 119.771 371.801 119.758 371.805 119.749C371.807 119.745 371.808 119.742 371.809 119.739C371.81 119.738 371.81 119.737 371.81 119.737C371.811 119.737 371.811 119.736 371.811 119.736C371.811 119.736 371.811 119.736 371.359 119.523C370.907 119.309 370.907 119.309 370.907 119.309C370.906 119.309 370.906 119.31 370.906 119.31C370.906 119.31 370.906 119.311 370.905 119.312C370.904 119.314 370.903 119.318 370.901 119.322C370.896 119.331 370.89 119.344 370.882 119.361C370.866 119.395 370.842 119.446 370.81 119.514C370.746 119.648 370.652 119.847 370.53 120.104C370.286 120.619 369.931 121.366 369.486 122.3C368.595 124.166 367.346 126.775 365.909 129.742C363.034 135.679 359.412 143.048 356.415 148.791L357.302 149.254ZM366.797 151.026C360.494 151.814 357.816 149.69 357.293 148.775L356.425 149.271C357.235 150.688 360.424 152.831 366.921 152.019L366.797 151.026ZM396.606 107.591C393.635 109.333 390.591 112.221 387.623 115.724C384.65 119.233 381.733 123.385 379.023 127.681C373.604 136.272 368.993 145.469 366.402 151.32L367.316 151.725C369.891 145.91 374.48 136.757 379.869 128.214C382.563 123.943 385.453 119.833 388.386 116.371C391.323 112.904 394.282 110.113 397.112 108.454L396.606 107.591ZM290.507 72.5002C313.114 65.4993 336.157 69.2202 355.289 77.3242C374.432 85.4328 389.592 97.9004 396.441 108.298L397.276 107.748C390.292 97.1447 374.952 84.5673 355.679 76.4034C336.394 68.2349 313.103 64.4558 290.211 71.545L290.507 72.5002ZM297.235 95.6936C294.519 92.5895 292.875 88.0226 291.936 83.5207C290.999 79.0295 290.776 74.6691 290.859 72.0382L289.859 72.007C289.775 74.7096 290.002 79.1494 290.957 83.725C291.909 88.2898 293.599 93.0564 296.483 96.3521L297.235 95.6936ZM348.006 167.168C345.373 169.785 340.126 179.023 339.359 195.499L340.358 195.546C341.117 179.222 346.314 170.26 348.711 167.877L348.006 167.168ZM365.859 167.023H348.359V168.023H365.859V167.023ZM374.785 174.028C373.173 174.27 370.839 174.212 369.032 173.312C368.139 172.868 367.387 172.225 366.899 171.318C366.411 170.412 366.165 169.201 366.355 167.581L365.362 167.464C365.153 169.244 365.415 170.67 366.018 171.792C366.622 172.914 367.546 173.69 368.586 174.208C370.646 175.233 373.211 175.275 374.933 175.017L374.785 174.028ZM379.866 143.108C380.863 148.84 381.781 157.27 381.31 163.95C381.074 167.301 380.492 170.142 379.446 171.983C378.927 172.897 378.312 173.532 377.599 173.88C376.894 174.225 376.04 174.314 374.985 174.039L374.733 175.006C375.978 175.331 377.083 175.245 378.038 174.779C378.985 174.317 379.731 173.506 380.315 172.477C381.476 170.434 382.069 167.407 382.308 164.02C382.787 157.225 381.854 148.705 380.851 142.937L379.866 143.108ZM398.884 111.864C397.643 115.589 395.205 121.61 391.933 127.544C388.655 133.489 384.573 139.286 380.062 142.62L380.656 143.425C385.345 139.959 389.512 134.006 392.809 128.027C396.113 122.035 398.574 115.957 399.833 112.181L398.884 111.864ZM411.859 141.023C411.859 137.477 411.253 131.775 409.435 126.144C407.619 120.522 404.572 114.897 399.636 111.607L399.081 112.439C403.746 115.548 406.698 120.924 408.483 126.451C410.265 131.97 410.859 137.568 410.859 141.023H411.859ZM398.748 188.836C402.995 183.57 411.457 166.724 411.859 141.03L410.859 141.015C410.46 166.522 402.056 183.142 397.97 188.209L398.748 188.836ZM368.894 199.521C372.426 199.269 378.136 198.439 383.825 196.765C389.497 195.096 395.229 192.565 398.722 188.866L397.995 188.179C394.689 191.68 389.17 194.15 383.543 195.805C377.931 197.457 372.292 198.276 368.823 198.524L368.894 199.521ZM339.744 196.009C345.42 197.345 359.208 199.925 368.88 199.522L368.838 198.523C359.309 198.92 345.631 196.367 339.973 195.036L339.744 196.009ZM415 36C414.675 35.6204 414.674 35.6205 414.674 35.6206C414.674 35.6207 414.674 35.6209 414.674 35.621C414.674 35.6212 414.673 35.6215 414.673 35.6219C414.672 35.6226 414.671 35.6234 414.67 35.6245C414.667 35.6266 414.664 35.6295 414.66 35.6331C414.652 35.6402 414.64 35.6503 414.626 35.6634C414.597 35.6894 414.556 35.727 414.504 35.7761C414.401 35.8742 414.255 36.0179 414.08 36.2054C413.73 36.5802 413.26 37.1313 412.774 37.8433C411.805 39.2658 410.763 41.3445 410.502 43.9502L411.498 44.0498C411.737 41.6555 412.695 39.7342 413.601 38.4067C414.053 37.7437 414.489 37.2323 414.811 36.8883C414.971 36.7165 415.103 36.5868 415.193 36.5013C415.238 36.4585 415.273 36.4268 415.295 36.4065C415.306 36.3963 415.315 36.3889 415.32 36.3845C415.322 36.3822 415.324 36.3807 415.325 36.3799C415.326 36.3795 415.326 36.3793 415.326 36.3792C415.326 36.3792 415.326 36.3792 415.326 36.3793C415.326 36.3793 415.326 36.3794 415.326 36.3794C415.326 36.3795 415.325 36.3796 415 36ZM417.907 39.2094L415.407 35.7094L414.593 36.2906L417.093 39.7906L417.907 39.2094ZM417.5 53.0185L418 39.5185L417 39.4815L416.5 52.9815L417.5 53.0185ZM411 44C410.5 44 410.5 44.0003 410.5 44.0006C410.5 44.0007 410.5 44.0011 410.5 44.0013C410.5 44.0018 410.5 44.0025 410.5 44.0031C410.5 44.0045 410.5 44.0063 410.5 44.0083C410.5 44.0124 410.5 44.0179 410.5 44.0246C410.5 44.0381 410.501 44.0568 410.502 44.0804C410.503 44.1277 410.507 44.195 410.513 44.2803C410.526 44.451 410.551 44.6942 410.6 44.9952C410.699 45.5967 410.896 46.4314 411.288 47.3787C412.074 49.2785 413.642 51.6197 416.748 53.4319L417.252 52.5681C414.358 50.8803 412.926 48.7215 412.212 46.9963C411.854 46.1311 411.676 45.372 411.587 44.833C411.543 44.5636 411.521 44.3498 411.51 44.206C411.505 44.1341 411.502 44.0798 411.501 44.0448C411.501 44.0274 411.5 44.0147 411.5 44.0072C411.5 44.0034 411.5 44.0009 411.5 43.9997C411.5 43.9991 411.5 43.9988 411.5 43.9989C411.5 43.9989 411.5 43.999 411.5 43.9992C411.5 43.9993 411.5 43.9995 411.5 43.9995C411.5 43.9998 411.5 44 411 44Z" fill="#191820"/>
</svg>
