<svg xmlns="http://www.w3.org/2000/svg" viewBox="0 0 117.18 37.09"><g id="Capa_2" data-name="Capa 2"><g id="Capa_1-2" data-name="Capa 1"><path d="M66.25,5.79l1-2.53h.42v3h-.33V4l-.88,2.23h-.39L65.16,4V6.21h-.33V3.26h.45Z" style="fill:#222"/><path d="M73,5.06c0,.65.29.9.78.9s.79-.25.79-.9V3.26h.3v2a1,1,0,0,1-1.09,1c-.81,0-1.11-.45-1.11-1v-2H73Z" style="fill:#222"/><path d="M80.7,4.52c.43.14.87.33.87.9s-.5.84-1,.84a1.9,1.9,0,0,1-1-.25l.09-.32A1.3,1.3,0,0,0,80.5,6c.53,0,.73-.2.73-.48s-.41-.54-.76-.66c-.5-.17-.82-.36-.82-.83s.4-.75.93-.75a2.12,2.12,0,0,1,.82.17l-.09.34a1.26,1.26,0,0,0-.75-.21c-.37,0-.59.13-.59.43S80.19,4.34,80.7,4.52Z" style="fill:#222"/><path d="M88,6.21H86.34V3.26h1.58v.32H86.67v.91h1V4.8h-1V5.89H88Z" style="fill:#222"/><path d="M95.34,4.74A1.42,1.42,0,0,1,93.9,6.26a1.35,1.35,0,0,1-1.37-1.49,1.41,1.41,0,1,1,2.81,0Zm-.36,0c0-.72-.33-1.21-1.06-1.21s-1,.49-1,1.19S93.25,6,93.91,6,95,5.43,95,4.75Z" style="fill:#222"/><path d="M105.37,3.26h0l.93,0a1.51,1.51,0,0,1,1,.34,1.59,1.59,0,0,1,.44,1.19,1.35,1.35,0,0,1-1.39,1.49c-.42,0-.74,0-1,0Zm.32.29V5.94c.19,0,.41,0,.66,0,.69,0,1-.42,1-1.23s-.27-1.19-1-1.19Z" style="fill:#222"/><path d="M114.25,6.21h-1.67V3.26h1.58v.32h-1.25v.91h1V4.8h-1V5.89h1.34Z" style="fill:#222"/><path d="M66.4,26.9h-.93v1.4h-.34V25.36h1.59v.31H65.47v.91h.93Z" style="fill:#222"/><path d="M68.57,26.94a.91.91,0,0,1,0,.27H67v0c0,.46.24.87.73.87a1.27,1.27,0,0,0,.72-.26l.06.25a1.6,1.6,0,0,1-.82.24,1,1,0,0,1-1-1.07,1,1,0,0,1,1.06-1.1A.72.72,0,0,1,68.57,26.94Zm-1.51,0h1.21a.19.19,0,0,0,0-.08.49.49,0,0,0-.55-.46A.65.65,0,0,0,67.06,27Z" style="fill:#222"/><path d="M68.83,27.28a1,1,0,0,1,1-1.1.72.72,0,0,1,.74.45V25h.31v3.3h-.24l0-.36h0a1,1,0,0,1-.8.41C69.12,28.35,68.83,27.85,68.83,27.28Zm1.69.36V27a.73.73,0,0,0-.7-.54c-.41,0-.66.34-.66.84s.15.8.61.8A.89.89,0,0,0,70.52,27.64Z" style="fill:#222"/><path d="M73.1,26.94a.91.91,0,0,1,0,.27H71.55v0c0,.46.24.87.73.87a1.27,1.27,0,0,0,.72-.26l.06.25a1.59,1.59,0,0,1-.81.24,1,1,0,0,1-1-1.07,1,1,0,0,1,1.06-1.1A.72.72,0,0,1,73.1,26.94Zm-1.51,0H72.8a.19.19,0,0,0,0-.08.49.49,0,0,0-.55-.46A.65.65,0,0,0,71.59,27Z" style="fill:#222"/><path d="M74.6,26.58a.61.61,0,0,0-.28-.09c-.24,0-.44.29-.51.61v1.2h-.32V26.25h.25l0,.45h0a.64.64,0,0,1,.59-.52.48.48,0,0,1,.31.11Z" style="fill:#222"/><path d="M75.07,25.27a.25.25,0,0,1,.24.23.24.24,0,0,1-.24.23.22.22,0,0,1-.22-.23A.23.23,0,0,1,75.07,25.27Zm.16,3h-.31V26.25h.31Z" style="fill:#222"/><path d="M77.36,26.63a1.24,1.24,0,0,0-.68-.2.71.71,0,0,0-.73.8.79.79,0,0,0,.76.88,1,1,0,0,0,.68-.27l.07.29a1.59,1.59,0,0,1-.81.22,1.09,1.09,0,0,1,0-2.17,1.55,1.55,0,0,1,.74.18Z" style="fill:#222"/><path d="M79.73,27.29a1,1,0,0,1-1,1.06,1.09,1.09,0,0,1,0-2.17A1,1,0,0,1,79.73,27.29Zm-.33,0c0-.45-.23-.86-.73-.86s-.69.38-.69.82.22.87.72.87S79.4,27.74,79.4,27.29Z" style="fill:#222"/><path d="M83.45,28.3h-.38l-.43-1H81.33l-.4,1h-.35l1.17-2.94h.41Zm-2-1.3h1L82,25.73Z" style="fill:#222"/><path d="M83.77,27.93a.22.22,0,0,1,.21.21.21.21,0,0,1-.21.21.21.21,0,0,1-.21-.21A.21.21,0,0,1,83.77,27.93Z" style="fill:#222"/><path d="M86.41,26.61c.45.15.89.33.89.91s-.51.83-1.06.83a2.1,2.1,0,0,1-1-.24l.1-.33a1.27,1.27,0,0,0,.85.28c.54,0,.74-.2.74-.48s-.42-.54-.77-.66c-.52-.17-.85-.36-.85-.84s.42-.74,1-.74a2.1,2.1,0,0,1,.85.17l-.1.34a1.3,1.3,0,0,0-.76-.22c-.38,0-.61.14-.61.44S85.89,26.44,86.41,26.61Z" style="fill:#222"/><path d="M89.63,27.29a1,1,0,0,1-1,1.06,1.09,1.09,0,0,1,0-2.17A1,1,0,0,1,89.63,27.29Zm-.33,0c0-.45-.22-.86-.72-.86s-.69.38-.69.82.21.87.71.87S89.3,27.74,89.3,27.29Z" style="fill:#222"/><path d="M90.36,28.3h-.31V25h.31Z" style="fill:#222"/><path d="M92.85,27.29a1,1,0,0,1-1,1.06,1.09,1.09,0,0,1,0-2.17A1,1,0,0,1,92.85,27.29Zm-.33,0c0-.45-.22-.86-.72-.86s-.69.38-.69.82.22.87.72.87S92.52,27.74,92.52,27.29Zm-1-1.45,0-.09v0l.8-.45c.11,0,.16.07.16.16a.25.25,0,0,1,0,.08l-.9.34Z" style="fill:#222"/><path d="M94.35,26.58a.61.61,0,0,0-.28-.09c-.24,0-.44.29-.51.61v1.2h-.31V26.25h.24l0,.45h0a.63.63,0,0,1,.58-.52.51.51,0,0,1,.32.11Z" style="fill:#222"/><path d="M94.51,28l1.08-1.52h-1v-.26H96v.26L94.86,28H96v.26H94.51Z" style="fill:#222"/><path d="M97.66,28.3l0-.36h0a1,1,0,0,1-.83.41.55.55,0,0,1-.59-.6c0-.68.79-.75,1.21-.75h.2V27a.42.42,0,0,0-.19-.41.61.61,0,0,0-.39-.09,1,1,0,0,0-.6.18l-.08-.27a1.37,1.37,0,0,1,.72-.18,1.12,1.12,0,0,1,.57.13.67.67,0,0,1,.28.6V28.3Zm-.06-.66v-.41h0c-.48,0-1,0-1,.51a.32.32,0,0,0,.35.35A.9.9,0,0,0,97.6,27.64Z" style="fill:#222"/><path d="M99.85,28.3V27c0-.36-.18-.5-.43-.5a.74.74,0,0,0-.7.54V28.3h-.31V26.25h.25l0,.38h0a.75.75,0,0,1,.76-.45.64.64,0,0,1,.69.73V28.3Z" style="fill:#222"/><path d="M102.61,27.29a1,1,0,0,1-1,1.06,1.09,1.09,0,0,1,0-2.17A1,1,0,0,1,102.61,27.29Zm-.33,0c0-.45-.22-.86-.72-.86s-.69.38-.69.82.22.87.72.87S102.28,27.74,102.28,27.29Z" style="fill:#222"/><path d="M104,25.36l.68,0c.53,0,.88.26.88.76a.65.65,0,0,1-.3.57.78.78,0,0,1,.57.77c0,.5-.36.91-1.1.91a4.81,4.81,0,0,1-.73-.05Zm1.19.71c0-.26-.13-.44-.48-.44h-.38v.95h.27A.52.52,0,0,0,105.22,26.07Zm.27,1.34c0-.34-.21-.56-.75-.56h-.38v1.19h.39C105.22,28.06,105.49,27.83,105.49,27.41Z" style="fill:#222"/><path d="M107.55,28.3l0-.36h0a1,1,0,0,1-.83.41.55.55,0,0,1-.59-.6c0-.68.79-.75,1.21-.75h.2V27a.44.44,0,0,0-.18-.41.66.66,0,0,0-.4-.09,1.06,1.06,0,0,0-.6.18l-.07-.27a1.34,1.34,0,0,1,.71-.18,1.12,1.12,0,0,1,.57.13.67.67,0,0,1,.28.6V28.3Zm-.06-.66v-.41h0c-.48,0-1,0-1,.51a.32.32,0,0,0,.36.35A.9.9,0,0,0,107.49,27.64Z" style="fill:#222"/><path d="M109.41,26.58a.61.61,0,0,0-.28-.09c-.24,0-.44.29-.51.61v1.2h-.31V26.25h.24l0,.45h0a.65.65,0,0,1,.59-.52.48.48,0,0,1,.31.11Z" style="fill:#222"/><path d="M110.83,26.58a.61.61,0,0,0-.28-.09c-.23,0-.44.29-.51.61v1.2h-.31V26.25H110l0,.45h0a.63.63,0,0,1,.59-.52.5.5,0,0,1,.31.11Z" style="fill:#222"/><path d="M112.85,26.94a.91.91,0,0,1,0,.27H111.3v0c0,.46.24.87.73.87a1.27,1.27,0,0,0,.72-.26l.06.25a1.59,1.59,0,0,1-.81.24,1,1,0,0,1-1-1.07,1,1,0,0,1,1.06-1.1A.72.72,0,0,1,112.85,26.94Zm-1.51,0h1.21a.19.19,0,0,0,0-.08.49.49,0,0,0-.55-.46A.65.65,0,0,0,111.34,27Z" style="fill:#222"/><path d="M113.34,26.46H113V26.3l.35-.05.06-.62h.24v.62h.48v.21h-.48v1.42c0,.19,0,.23.17.23a.61.61,0,0,0,.33-.1l.06.23a1.08,1.08,0,0,1-.47.11c-.37,0-.4-.24-.4-.46Z" style="fill:#222"/><path d="M116.41,27.29a1,1,0,0,1-1,1.06,1.09,1.09,0,0,1,0-2.17A1,1,0,0,1,116.41,27.29Zm-.33,0c0-.45-.22-.86-.72-.86s-.69.38-.69.82.22.87.72.87S116.08,27.74,116.08,27.29Z" style="fill:#222"/><path d="M58.22,13.72C56.55,12.05,44.87,2.6,34.86,10.39c0,0,2.23-1.67,7.79-1.67a15.52,15.52,0,0,1,12.79,6.67c2.78,3.9,5,15-3.89,15.58s-6.12-11.68-2.23-13.91l-2.78,4.45h1.67c1.67-3.34,5.56-6.67,5.56-6.67s-4-4-7.78-5a16.4,16.4,0,0,0-3.9-.56,8.23,8.23,0,0,0-2.78.56v2.22a1.73,1.73,0,0,0,.56,1.12S38.2,24.85,26.52,28.74,5.38,24.29,3.71,21,.93,11.5,5.38,9.27c0,0-3.34-1.11-5,3.34S2,33.75,22.62,33.75C40.23,33.75,42,19.1,42.09,17v.11c0,3.34-1.11,5.56-1.67,8.9s2.23,11.13,11.13,11.13,10.57-8.9,10.57-8.9a20.2,20.2,0,0,0,0-6.12C61.56,19.29,59.89,15.39,58.22,13.72Z" style="fill:#222"/><path d="M51.55,19.29s0,7.23-2.78,3.89H46.54a8.35,8.35,0,0,0,0,3.89h2.23c5.56,0,6.67-9.45,6.67-10s-1.11-1.67-1.11-1.67C52.1,19.29,51.55,19.29,51.55,19.29Z" style="fill:#222"/><path d="M58.22,12.61S61,10.94,57.11,4.82,50.44.37,49.88.93,48.77,2,47.65.93c0,0-2.78-4.45-7.23,6.12C40.42,7.05,49.32,4.82,58.22,12.61ZM56,5.94a1.63,1.63,0,0,1,.55,2.78c-.55.55-1.11.55-1.11-1.12S56,5.94,56,5.94Z" style="fill:#222"/><polygon points="62.12 19.29 63.23 22.62 117.19 22.62 117.19 19.29 62.12 19.29" style="fill:#222"/><polygon points="34.86 22.62 35.42 19.29 4.27 19.29 5.93 22.62 34.86 22.62" style="fill:#222"/><path d="M64.66,7.84h0c.29,0,.66,0,1,0,1,0,1.6.5,1.6,1.42a1.35,1.35,0,0,1-1.53,1.36,4.79,4.79,0,0,1-.56,0v1.68h-.5Zm.5.42v1.86a4.52,4.52,0,0,0,.54,0,.88.88,0,0,0,1-1c0-.54-.26-.92-1-.92Z" style="fill:#222"/><path d="M71.63,12.24h-.56l-.65-1.48h-2l-.58,1.48h-.54l1.76-4.4h.61Zm-3-2h1.57L69.39,8.4Z" style="fill:#222"/><path d="M74.71,12.24H72.25V7.84h.5v3.93h2Z" style="fill:#222"/><path d="M78,12.24H75.49V7.84H77.9V8.3H76V9.67h1.47v.47H76v1.63H78Z" style="fill:#222"/><path d="M82.91,10a2.14,2.14,0,0,1-2.2,2.28,2,2,0,0,1-2.1-2.23,2.15,2.15,0,1,1,4.3-.05Zm-.55,0c0-1.08-.5-1.82-1.62-1.82S79.17,9,79.17,10c0,1.22.55,1.86,1.56,1.86S82.36,11.08,82.36,10.06Z" style="fill:#222"/><path d="M84.45,8.64v3.6H84V7.84h.6l2.27,3.6V7.84h.5v4.4h-.61Z" style="fill:#222"/><path d="M91.42,8.3H90v3.94h-.5V8.3h-1.4V7.84h3.31Z" style="fill:#222"/><path d="M96.08,10a2.14,2.14,0,0,1-2.2,2.28,2,2,0,0,1-2.1-2.23,2.15,2.15,0,1,1,4.3-.05Zm-.55,0c0-1.08-.5-1.82-1.62-1.82S92.34,9,92.34,10c0,1.22.55,1.86,1.56,1.86S95.53,11.08,95.53,10.06Z" style="fill:#222"/><path d="M99.58,12.24H97.12V7.84h.5v3.93h2Z" style="fill:#222"/><path d="M104.25,10a2.13,2.13,0,0,1-2.19,2.28,2,2,0,0,1-2.1-2.23,2.15,2.15,0,1,1,4.29-.05Zm-.54,0c0-1.08-.5-1.82-1.62-1.82S100.51,9,100.51,10c0,1.22.56,1.86,1.56,1.86C103.23,11.88,103.71,11.08,103.71,10.06Z" style="fill:#222"/><path d="M108.68,11.87a2.68,2.68,0,0,1-1.54.45A2,2,0,0,1,105,10.08a2.1,2.1,0,0,1,2.2-2.28,3.57,3.57,0,0,1,1.41.29l-.14.48a2.42,2.42,0,0,0-1.31-.33c-1.18,0-1.6.72-1.6,1.79s.54,1.85,1.59,1.85a2.44,2.44,0,0,0,1-.22V10.42h.5Z" style="fill:#222"/><path d="M109.39,7.43l0-.13,0,0,1.21-.67a.22.22,0,0,1,.23.23.32.32,0,0,1,0,.13l-1.34.51Zm.89,4.81h-.5V7.84h.5Z" style="fill:#222"/><path d="M115.27,12.24h-.56l-.65-1.48h-2l-.58,1.48H111l1.76-4.4h.61Zm-3-2h1.57L113,8.4Z" style="fill:#222"/><path d="M64.67,13.83h0l.94,0a1.36,1.36,0,0,1,1.46,1.53,1.35,1.35,0,0,1-1.41,1.49,8.69,8.69,0,0,1-1-.06Zm.33.29v2.39l.67,0c.7,0,1.06-.42,1.06-1.23s-.28-1.19-1.07-1.19Z" style="fill:#222"/><path d="M70.66,16.77H69V13.83h1.61v.32H69.3v.91h1v.31h-1v1.09h1.36Z" style="fill:#222"/><path d="M77,16.53a1.79,1.79,0,0,1-1,.3,1.36,1.36,0,0,1-1.42-1.49A1.41,1.41,0,0,1,76,13.81,2.4,2.4,0,0,1,77,14l-.09.32a1.69,1.69,0,0,0-.87-.21c-.79,0-1.07.48-1.07,1.19s.36,1.23,1.06,1.23a1.59,1.59,0,0,0,.68-.14v-.83H77Z" style="fill:#222"/><path d="M79.21,15.63c0,.65.3.9.8.9s.79-.25.79-.9v-1.8h.31v2a1,1,0,0,1-1.1,1c-.83,0-1.13-.45-1.13-1v-2h.33Z" style="fill:#222"/><path d="M85.56,16.77h-.38l-.43-1h-1.3l-.39,1h-.35l1.16-2.94h.41Zm-2-1.3h1.05l-.55-1.26Z" style="fill:#222"/><path d="M87.15,13.83h0l1,0a1.54,1.54,0,0,1,1,.34,1.56,1.56,0,0,1,.45,1.19,1.36,1.36,0,0,1-1.41,1.49,8.88,8.88,0,0,1-1-.06Zm.33.29v2.39l.67,0c.7,0,1.06-.42,1.06-1.23s-.28-1.19-1.07-1.19Z" style="fill:#222"/><path d="M93.86,16.77h-.37l-.43-1H91.75l-.39,1H91l1.17-2.94h.4Zm-2-1.3h1l-.55-1.26Z" style="fill:#222"/><path d="M97.09,16.77H95.46V13.83h.33v2.63h1.3Z" style="fill:#222"/><path d="M101.24,16.77h-.38l-.43-1h-1.3l-.39,1h-.36l1.17-2.94h.4Zm-2-1.3h1l-.54-1.26Z" style="fill:#222"/><path d="M103.16,16.32c0,.63-.24,1.15-.77,1.15l-.06-.25c.46,0,.5-.49.5-.9V13.83h.33Z" style="fill:#222"/><path d="M107.66,16.77h-.37l-.43-1h-1.31l-.39,1h-.35L106,13.83h.4Zm-2-1.3h1l-.55-1.26Z" style="fill:#222"/><path d="M109.26,13.83l.66,0c.63,0,1.06.3,1.06.85a.81.81,0,0,1-.65.82l1.12,1.29H111l-1.1-1.25-.35,0v1.27h-.33Zm.33.28v1.1H110c.43,0,.66-.21.66-.6s-.17-.51-.67-.51Z" style="fill:#222"/><path d="M115.52,16.77h-.38l-.43-1h-1.3l-.39,1h-.36l1.17-2.94h.4Zm-2-1.3h1L114,14.21Z" style="fill:#222"/></g></g></svg>