<svg id="Capa_1" data-name="Capa 1" xmlns="http://www.w3.org/2000/svg" viewBox="0 0 1000 715.85">
  <rect x="102.29" width="803" height="600" fill="#ebf3fa"/>
  <path d="M72.5,109.5" transform="translate(102.29)" fill="#963" stroke="#000" stroke-miterlimit="10"/>
  <path d="M897.71,416.6q-.54,7.61-1.39,15h0q-.66,5.82-1.52,11.54C869.6,612,720.12,714.61,415.64,715.84q-51.75-.35-108.82-3.48-9.15-.6-18.45-1.29a603.33,603.33,0,0,1-89.61-13.45C65.14,667-60.16,588-93,440.94q-2.77-12.48-4.66-25.6h0c-.21-1.43-.4-2.87-.59-4.31-.13-1-.25-2-.37-2.95,9.45,0,19.73.11,30.75.23,90.24.9,229.37,4.7,357.78,18,18.94,2,39.25,3.13,60.61,3.63,28.83.67,59.58.15,91.51-1.21,151.08-6.44,328.47-31.61,452.91-37Q896.82,404.36,897.71,416.6Z" transform="translate(102.29)" fill="#dfa680"/>
  <path d="M895.31,431.65h0q-.66,5.82-1.52,11.54c-5,33.83-15.1,65-30.38,93.23-61,112.62-205.33,178.42-448.78,179.42q-57.35-.45-121.2-4.92a706.21,706.21,0,0,1-95.68-13.3C88.81,672.69-14.6,615.52-66.87,515.57-82.33,486-93.32,452.68-98.64,415.34h0c-.21-1.43-.4-2.87-.59-4.31q-.48-3.69-.89-7.44h0c-.17-1.56-.33-3.13-.47-4.7a390.06,390.06,0,0,1-1.58-46.24c0-1,0-2,.08-3,9.27.88,20.72,2,33.35,3.3,57.11,5.87,138.32,15.42,150.4,23.32,18.93,12.38,51.73,96.07,61.92,101.57s531.31-4.42,543-7.14,43.86-86.2,67.2-93c14.59-4.25,80.13-7.65,143.34-10.24A391.83,391.83,0,0,1,895.31,431.65Z" transform="translate(102.29)" fill="#c9875e"/>
  <path d="M863.41,536.43c-61,112.62-205.33,178.42-448.78,179.42q-57.35-.45-121.2-4.92a706.21,706.21,0,0,1-95.68-13.3C88.81,672.69-14.6,615.52-66.87,515.57c39.15-4.21,129.17-13.4,175.13,2.12,58.85,19.87,150.81,16.63,228.26,28.46s72-14.23,181.45-10.26S620.67,560.68,683.85,552C732.2,545.31,814.83,531.37,863.41,536.43Z" transform="translate(102.29)" fill="#aa6d44"/>
  <g>
    <rect x="4.98" y="546.22" width="38.01" height="8.84" transform="translate(414.57 80.89) rotate(34.03)" fill="#dfa680"/>
    <path d="M14.67,539s2.91-7.84-2.19-10.21-9,2.14-9.18,5.27c-.09,1.57-5.94,2.7-5.09,6.73,1.64,7.77,11.51,5.54,11.51,5.54Z" transform="translate(102.29)" fill="#dfa680"/>
    <path d="M39.56,555.83s6.19-5.63,10.29-1.78,1.38,9.16-1.46,10.49c-1.42.66-.28,6.51-4.34,7.22-7.82,1.39-9.44-8.6-9.44-8.6Z" transform="translate(102.29)" fill="#dfa680"/>
  </g>
  <path d="M359.78,590.42l-.45.89a5.92,5.92,0,0,1-2.3,2.45,5.11,5.11,0,0,0-2.49,4.92,6,6,0,0,1-.61,3.3l-.45.89a6,6,0,0,1-6.18,3.22,5.84,5.84,0,0,1-1.86-.59,2,2,0,0,0-2.76,1,103.76,103.76,0,0,1-14.33,24.22l.16-2.54-5.23.37-2.45-2.94a127.75,127.75,0,0,0,12.46-22.29,4.17,4.17,0,0,0,.27-1,3.8,3.8,0,0,0-2-3.91,6,6,0,0,1-2.63-8l.45-.89a5.75,5.75,0,0,1,1.47-1.86,9.41,9.41,0,0,0,3.31-6.52,5.93,5.93,0,0,1,.62-2.29l.45-.89a6,6,0,0,1,8-2.62l1.07.54a3.44,3.44,0,0,0,4.63-1.52l.16-.29a3.86,3.86,0,0,1,5.63-1.44,4,4,0,0,1,1.19,5l-.5,1a2.55,2.55,0,0,0,1.12,3.42l.62.31A6,6,0,0,1,359.78,590.42Z" transform="translate(102.29)" fill="#dfa680"/>
  <path d="M400.69,611.57l-.77-.23a2.89,2.89,0,0,1-2-3.59l.35-1.2a4.53,4.53,0,0,0-2.41-5.42,4.42,4.42,0,0,0-6,2.8l-.11.37a3.94,3.94,0,0,1-4.88,2.69l-1.32-.39a6.85,6.85,0,0,0-8.46,4.67l-.32,1.09a6.91,6.91,0,0,0-.22,2.7,10.74,10.74,0,0,1-2.32,8,6.68,6.68,0,0,0-1.26,2.39l-.32,1.1a6.85,6.85,0,0,0,4.67,8.46h0a4.33,4.33,0,0,1,3,5.1c-2.67,11.89-12.48,47.33-37.71,63.5,0,0,35.7-3.7,48.93-61.93a2.31,2.31,0,0,1,2.89-1.7h0a6.87,6.87,0,0,0,8.47-4.67l.31-1.09a6.78,6.78,0,0,0,0-3.84,5.8,5.8,0,0,1,1.75-6,6.76,6.76,0,0,0,2.06-3.24l.32-1.09A6.84,6.84,0,0,0,400.69,611.57Z" transform="translate(102.29)" fill="#dfa680"/>
  <g>
    <path d="M280.35,658.38a51.54,51.54,0,0,0,6.4-80.72l0,0A51.6,51.6,0,0,0,267,566.26c-16.58-9.88-40.23-24.79-57.74-39-15.41-12.54-66.66-6.23-74.17.85a53.25,53.25,0,0,0,.57,7.78A80.29,80.29,0,0,0,121.42,542c-2,1.09-1.15,3.37,1.33,3.37,4.51,0,10.3.1,15,.37a67.42,67.42,0,0,0,2.31,6.85c-3.55,1.63-8.3,6-11.6,9.38-1.32,1.35-.08,3,1.85,2.43,4.16-1.24,9.74-2.77,13.7-3.58a62.12,62.12,0,0,0,4,6.06c-3.07,2.39-6.49,8.12-8.76,12.43a1.81,1.81,0,0,0,2.62,2.38,146.71,146.71,0,0,1,13.56-6.6l1.59,1.38c-2.22,3.23-3.85,9.54-4.82,14.21a1.82,1.82,0,0,0,3.19,1.55c3-3,7.13-6.89,10.29-9.43,1.17.75,2.34,1.48,3.52,2.19a61.43,61.43,0,0,0-2.3,11.68,1.81,1.81,0,0,0,3.3,1.26c2.1-2.45,4.75-5.47,7.17-8,2,1.24,4,2.53,5.86,3.9a70.43,70.43,0,0,0-1.75,9.85,1.81,1.81,0,0,0,3.3,1.26c1.47-1.72,3.2-3.71,5-5.63A42.73,42.73,0,0,1,200.19,617v0a51.56,51.56,0,0,0,80.15,41.39ZM173.55,555.93c-8.14,1.13-16.86-2.14-18-10.29s5-12.27,13.19-13.39,15.19,1.21,16.31,9.35S181.7,554.81,173.55,555.93Zm20.6,28.18c-7.14-1.2-13.59-6.23-12.39-13.35s7.45-9,14.59-7.78,12.42,5,11.22,12.14S201.28,585.31,194.15,584.11ZM239,618.7c-9.06-5-8.59-14.33-3.59-23.39s12.65-14.42,21.71-9.41,10.79,13.34,5.78,22.39S248.05,623.7,239,618.7Z" transform="translate(102.29)" fill="#dfa680"/>
    <g>
      <path d="M106.36,573.13s15.52,20.52,34.14,31.9c21.12,12.91,54.31,11.3,57.71,34.14s-22.2,35.77-43.41,7.19C138.92,625,104.91,617,99.3,603.71,90,581.78,106.36,573.13,106.36,573.13Z" transform="translate(102.29)" fill="#dfa680"/>
      <path d="M125.13,573.45a2,2,0,0,0-1.86-3.26c-6.06,1.19-14.88,3.49-15.46,7-.88,5.31,5.78,11.43,8,7.93A115.67,115.67,0,0,1,125.13,573.45Z" transform="translate(102.29)" fill="#dfa680"/>
      <path d="M133,585a1.7,1.7,0,0,0-2.32-2.25c-4.73,2.43-11.48,6.45-11.12,9.45.54,4.6,7.51,8.07,8.51,4.65A97.92,97.92,0,0,1,133,585Z" transform="translate(102.29)" fill="#dfa680"/>
      <path d="M145.06,593.62a1.71,1.71,0,0,0-3-1.32c-3.61,3.9-8.56,10-7.2,12.69,2.08,4.14,9.82,5,9.59,1.45A96.45,96.45,0,0,1,145.06,593.62Z" transform="translate(102.29)" fill="#dfa680"/>
      <path d="M162.17,601.59a1.75,1.75,0,0,0-3-1.35c-3.69,4-8.76,10.23-7.37,13,2.13,4.23,10,5.12,9.82,1.48A99.39,99.39,0,0,1,162.17,601.59Z" transform="translate(102.29)" fill="#dfa680"/>
      <path d="M176.25,609.22a1.74,1.74,0,0,0-3-1.35c-3.7,4-8.77,10.22-7.38,13,2.13,4.23,10.06,5.12,9.82,1.48A101.13,101.13,0,0,1,176.25,609.22Z" transform="translate(102.29)" fill="#dfa680"/>
      <path d="M185.51,615.16a1.74,1.74,0,0,0-3-1.35c-3.7,4-8.77,10.22-7.38,13,2.14,4.23,10.06,5.12,9.82,1.48A101.13,101.13,0,0,1,185.51,615.16Z" transform="translate(102.29)" fill="#dfa680"/>
    </g>
  </g>
  <path d="M502.29,543.62c-1.33.52-33.58,11.55-48.81,10.22s-44.23-9.71-61.38,6.52,25.88,16.63,33.21,25,12.21,17,23.37,11.42,24.66-12.15,36.42-10,46-12.1,46.56-24S523.7,535.11,502.29,543.62Z" transform="translate(102.29)" fill="#dfa680"/>
  <g>
    <path d="M500.7,605.79S485.56,606.93,485,622.1s11,18.6,11.17,19.83-.43,24.43,4.13,20.69,3.74-19.61,6-21.54c8.17-6.91,10.77-21.44,3.49-32.92,0,0,.72-16.79-1.85-17.07C503.8,590.65,504.44,602.44,500.7,605.79Z" transform="translate(102.29)" fill="#dfa680"/>
    <path d="M579.31,604.46s-10.45,5.66-6,16.69,13.8,9.79,14.33,10.6,7.51,17.59,9.58,13.46-3.61-15.21-2.59-17.32c3.63-7.55.83-18.77-8-24.64,0,0-4.87-12.23-6.79-11.61C576.68,592.65,580.91,600.87,579.31,604.46Z" transform="translate(102.29)" fill="#dfa680"/>
    <path d="M626,610.45s-7.09,8,0,15.95,14.66,4,15.36,4.55,11.74,12.55,12.22,8.43-7.72-11.74-7.51-13.84c.75-7.48-5.05-16.1-14.34-18.33,0,0-7.87-8.84-9.3-7.72C620.14,601.28,626.23,606.92,626,610.45Z" transform="translate(102.29)" fill="#dfa680"/>
    <path d="M634.18,581.66s-5,8.36,2.72,14.3,13.81,1.13,14.53,1.49,12.65,9.26,12.38,5.49-8.9-9.22-9.07-11.14c-.59-6.84-7.25-13.58-16-14,0,0-8.54-6.6-9.63-5.36C627.39,574.43,633.81,578.46,634.18,581.66Z" transform="translate(102.29)" fill="#dfa680"/>
    <path d="M660.53,550s-1.24,6.64,5.2,8.63,9.25-2.59,9.79-2.53,10.45,3,9.36.58-8-3.84-8.56-5c-2-4.3-8-7.07-13.74-5.26,0,0-7.13-2.22-7.54-1.15C654.38,547,659.52,548,660.53,550Z" transform="translate(102.29)" fill="#dfa680"/>
    <path d="M668.18,535.42s-.79,4.19,3.28,5.45,5.84-1.64,6.19-1.6,6.6,1.88,5.92.37-5.06-2.43-5.42-3.19c-1.28-2.72-5-4.47-8.68-3.32,0,0-4.5-1.41-4.76-.73C664.29,533.48,667.53,534.16,668.18,535.42Z" transform="translate(102.29)" fill="#dfa680"/>
    <path d="M693.32,505.84a81.71,81.71,0,0,1-8.48,5.76c-2.9,1.49-2.83,3.92-1.65,4.62s4.87,4.46,6.69,2.94,3.24-5.87,4.48-8S695.94,503.89,693.32,505.84Z" transform="translate(102.29)" fill="#dfa680"/>
    <path d="M680.3,518.91a4.53,4.53,0,0,0-4.51,3.29c-1.1,3.51-3.65,3.53-2.89,5.66s6.2,5.48,7.9,3.75,1.09-4.42,2.53-5.37S684.18,519.22,680.3,518.91Z" transform="translate(102.29)" fill="#dfa680"/>
  </g>
  <g>
    <path d="M803.6,495.74c2.67-10.59,12.76-18,23.69-18s21.17,9.35,21.89,20.26c.94,14.19-8.9,21.63-19.83,21.61-3.6,0-8.44-2.06-11.34-3.74l-5.54,6C807.92,520,800.34,508.64,803.6,495.74Z" transform="translate(102.29)" fill="#dfa680"/>
    <path d="M817.85,516c-.09-.1-9.4-10.57-2.82-23a14.25,14.25,0,0,1,13.22-8.09c5.54.07,11,3.09,13,7.18a13.18,13.18,0,0,1,.77,10.94,10.78,10.78,0,0,1-6.64,6.12,9.88,9.88,0,0,1-9-1.06,9,9,0,0,1-3.91-7.05,7.45,7.45,0,0,1,2.92-6.3,8.09,8.09,0,0,1,7.34-1.27,5.51,5.51,0,0,1,3.79,5.44c.06,2.11-.79,4-2,4.43-2,.75-4,.59-4.93-.41a2,2,0,0,1-.36-2.23l.4.17a1.56,1.56,0,0,0,.27,1.76c.7.72,2.35,1.1,4.47.31,1-.39,1.78-2.12,1.73-4,0-.94-.36-4.07-3.49-5a7.66,7.66,0,0,0-6.95,1.2A7,7,0,0,0,823,501a8.64,8.64,0,0,0,3.72,6.71,9.46,9.46,0,0,0,8.59,1,10.32,10.32,0,0,0,6.38-5.87,12.72,12.72,0,0,0-.76-10.59c-1.95-3.95-7.28-6.87-12.67-6.94h-.17a13.8,13.8,0,0,0-12.66,7.86c-6.44,12.18,2.67,22.43,2.76,22.53Z" transform="translate(102.29)" fill="#c9875e"/>
  </g>
  <g>
    <path d="M287.67,522.53a11.94,11.94,0,0,1,11.56-8.79,11.07,11.07,0,0,1,10.67,9.89c.46,6.92-4.34,10.54-9.67,10.53a13,13,0,0,1-5.53-1.82l-2.7,2.94C289.78,534.37,286.08,528.82,287.67,522.53Z" transform="translate(102.29)" fill="#dfa680"/>
    <path d="M294.62,532.41s-4.58-5.16-1.38-11.23a7,7,0,0,1,6.45-3.94c2.7,0,5.38,1.51,6.37,3.5a6.38,6.38,0,0,1,.37,5.33,5.23,5.23,0,0,1-3.24,3,4.81,4.81,0,0,1-4.37-.52,4.41,4.41,0,0,1-1.91-3.43,3.68,3.68,0,0,1,1.43-3.08,4,4,0,0,1,3.58-.62,2.67,2.67,0,0,1,1.84,2.65,2.22,2.22,0,0,1-1,2.17,2.33,2.33,0,0,1-2.4-.2,1,1,0,0,1-.17-1.09l.19.08a.77.77,0,0,0,.13.86,2.12,2.12,0,0,0,2.18.15c.51-.19.87-1,.84-2a2.54,2.54,0,0,0-1.7-2.46,3.76,3.76,0,0,0-3.39.59,3.41,3.41,0,0,0-1.34,2.9,4.2,4.2,0,0,0,1.82,3.27,4.62,4.62,0,0,0,4.19.49,5.06,5.06,0,0,0,3.11-2.87,6.22,6.22,0,0,0-.37-5.16c-.95-1.92-3.55-3.35-6.18-3.38h-.08a6.72,6.72,0,0,0-6.18,3.83c-3.14,5.94,1.3,10.94,1.35,11Z" transform="translate(102.29)" fill="#c9875e"/>
  </g>
  <g>
    <path d="M-50.62,416.25a20,20,0,0,1,19.37-14.72c8.93,0,17.3,7.65,17.89,16.56.77,11.6-7.28,17.68-16.21,17.66-2.94,0-6.89-1.68-9.27-3.06l-4.53,4.93C-47.08,436.09-53.27,426.79-50.62,416.25Z" transform="translate(102.29)" fill="#dfa680"/>
    <path d="M-39,432.81c-.07-.09-7.68-8.64-2.31-18.82a11.7,11.7,0,0,1,10.81-6.61c4.53.07,9,2.53,10.67,5.87a10.74,10.74,0,0,1,.62,8.94,8.8,8.8,0,0,1-5.42,5,8.1,8.1,0,0,1-7.33-.87,7.39,7.39,0,0,1-3.2-5.76,6.11,6.11,0,0,1,2.39-5.15,6.61,6.61,0,0,1,6-1,4.5,4.5,0,0,1,3.1,4.44c0,1.73-.64,3.25-1.64,3.63-1.65.61-3.23.48-4-.34a1.61,1.61,0,0,1-.3-1.82l.33.14a1.26,1.26,0,0,0,.22,1.44c.57.59,1.92.89,3.65.25.85-.32,1.46-1.73,1.41-3.29a4.27,4.27,0,0,0-2.85-4.12,6.29,6.29,0,0,0-5.68,1,5.7,5.7,0,0,0-2.25,4.86A7,7,0,0,0-31.73,426a7.73,7.73,0,0,0,7,.82,8.41,8.41,0,0,0,5.21-4.8,10.38,10.38,0,0,0-.62-8.65c-1.6-3.23-5.95-5.61-10.36-5.67h-.13A11.27,11.27,0,0,0-41,414.16c-5.26,9.95,2.18,18.33,2.25,18.41Z" transform="translate(102.29)" fill="#c9875e"/>
  </g>
  <path d="M787.65,435.1s-8.37-10-20.16-6.26-14.76,17.53-10.65,21.66,17.08,1.8,23.27.05S791.43,438.41,787.65,435.1Z" transform="translate(102.29)" fill="#dfa680"/>
  <path d="M803.49,447.11s-3.59-4.26-8.64-2.68-6.32,7.51-4.56,9.28,7.32.77,10,0S805.11,448.54,803.49,447.11Z" transform="translate(102.29)" fill="#aa6d44" opacity="0.5"/>
  <path d="M803.72,433.57s-2.3-2.73-5.54-1.72-4,4.82-2.92,5.95,4.69.49,6.39,0S804.75,434.48,803.72,433.57Z" transform="translate(102.29)" fill="#dfa680"/>
  <path d="M53.51,463.78S41.76,449.84,25.23,455,4.53,479.58,10.3,485.37s24,2.53,32.63.07S58.8,468.43,53.51,463.78Z" transform="translate(102.29)" fill="#dfa680"/>
  <path d="M75.71,480.63s-5-6-12.11-3.76-8.87,10.53-6.4,13,10.26,1.08,14,0S78,482.62,75.71,480.63Z" transform="translate(102.29)" fill="#aa6d44" opacity="0.5"/>
  <path d="M76,461.64s-3.22-3.83-7.76-2.41-5.68,6.75-4.1,8.34,6.58.69,9,0S77.49,462.92,76,461.64Z" transform="translate(102.29)" fill="#dfa680"/>
  <g>
    <path d="M413.67,450.36c-17.61-4.33-33.54,3.76-36.3,8.85l8.09,6.61c-2.31,3.06-5.12,8.07-5.53,12.07,4.16.15,8.93.19,14.42.08H395c1.56,0,3.18-.08,4.86-.14,4.81-.16,9.87-.27,15.1-.36h.63c1.24,0,2.49,0,3.75-.06,2.54,0,5.1-.07,7.68-.09h.59l6-.05h.64l3.31,0C437.46,465.15,427.76,453.83,413.67,450.36Z" transform="translate(102.29)" fill="#fddbba"/>
    <g>
      <path d="M415.6,477.46H415a8.41,8.41,0,0,0-1.21-1.85,10.53,10.53,0,0,0-8.08-3.43,12.6,12.6,0,0,0-9.37,3.94A8.21,8.21,0,0,0,395,478h-.66a9.77,9.77,0,0,1,1.48-2.16,13.21,13.21,0,0,1,9.85-4.11,11.27,11.27,0,0,1,8.57,3.63A8.49,8.49,0,0,1,415.6,477.46Z" transform="translate(102.29)" fill="#c9875e"/>
      <path d="M427.62,477.3H427c-.24-3.82-2.14-9.46-10.29-13.38-16.5-7.91-30.95,2-31.1,2.08l-.18-.19-.2-.19c.15-.1,14.9-10.22,31.77-2.12C425.42,467.54,427.38,473.36,427.62,477.3Z" transform="translate(102.29)" fill="#c9875e"/>
    </g>
  </g>
  <g>
    <path d="M677.8,440.54l-4.51-.13-3.57,18.89,3.89,14.79,9.7-.55s-.34-8.66-.53-9.32-2.06-6.65-1.82-7.22.07-11,.07-11Z" transform="translate(102.29)" fill="#f3c39c"/>
    <path d="M643.5,472.67l4.58-16.88c.46-1.69,4.26-12.09,5.07-12.25s20.14-3.13,20.14-3.13c0,2,2.43,16.3,2.08,17.36s-3.35,5.94-3.53,7.06,1.77,9.26,1.77,9.26Z" transform="translate(102.29)" fill="#fddbba"/>
  </g>
  <g>
    <path d="M648.26,471.84l-.51-6.17a3,3,0,0,0-1.44-2.34,53.16,53.16,0,0,0-5.39-3c-.5-.12-5.24-.22-8.73-.28a3,3,0,0,0-3,3.6l1.06,5.52a3.06,3.06,0,0,0,.48,1.15l3.18,4.62a3,3,0,0,0,2.87,1.29l8.85-1.1A3,3,0,0,0,648.26,471.84Z" transform="translate(102.29)" fill="#f3c39c"/>
    <path d="M625.18,477.7a3,3,0,0,1-3.35-2.35c-.5-2.26-1.09-5.2-.92-5.74.27-.89,8.93-9.48,10.15-9.4a26.13,26.13,0,0,1,6.81,2.11c1.28.76,5,7.63,5,8.38l.15,1.8a3,3,0,0,1-2.64,3.25Z" transform="translate(102.29)" fill="#fddbba"/>
  </g>
  <g>
    <path d="M83.12,393l1.81-5.8a3,3,0,0,0-.46-2.66,53.71,53.71,0,0,0-3.79-4.75c-.41-.29-4.7-2.12-7.85-3.45a3,3,0,0,0-4.07,2.17L67.7,384a3,3,0,0,0,0,1.22l1.2,5.38a3,3,0,0,0,2.14,2.22L79.52,395A3,3,0,0,0,83.12,393Z" transform="translate(102.29)" fill="#f3c39c"/>
    <path d="M60,389.9a3,3,0,0,1-2.18-3.37c.38-2.24.92-5.14,1.26-5.56.58-.72,11.61-5.36,12.7-4.85a26.34,26.34,0,0,1,5.43,4.42c.88,1.17,1.73,8.77,1.5,9.49l-.52,1.68a3,3,0,0,1-3.59,2Z" transform="translate(102.29)" fill="#fddbba"/>
  </g>
  <g>
    <path d="M337.46,476.73l0-3.55a1.74,1.74,0,0,0-.69-1.42,32.79,32.79,0,0,0-2.92-2c-.28-.1-3-.41-5-.64A1.75,1.75,0,0,0,327,471l.31,3.21a1.64,1.64,0,0,0,.21.68l1.57,2.82a1.73,1.73,0,0,0,1.57.9l5.12-.15A1.75,1.75,0,0,0,337.46,476.73Z" transform="translate(102.29)" fill="#f3c39c"/>
    <path d="M323.94,478.83a1.74,1.74,0,0,1-1.78-1.53,15.85,15.85,0,0,1-.22-3.33c.21-.49,5.62-4.93,6.32-4.83a15.6,15.6,0,0,1,3.78,1.58c.69.51,2.42,4.63,2.42,5.07l0,1a1.74,1.74,0,0,1-1.68,1.72Z" transform="translate(102.29)" fill="#fddbba"/>
  </g>
  <g>
    <path d="M358.64,476.06l.06-4.65a2.3,2.3,0,0,0-.91-1.86A40.28,40.28,0,0,0,354,466.9c-.36-.13-3.9-.54-6.51-.83a2.27,2.27,0,0,0-2.51,2.47l.4,4.21a2.16,2.16,0,0,0,.28.89l2.05,3.69a2.28,2.28,0,0,0,2.05,1.17l6.7-.2A2.28,2.28,0,0,0,358.64,476.06Z" transform="translate(102.29)" fill="#f3c39c"/>
    <path d="M341,478.8a2.29,2.29,0,0,1-2.34-2,21.29,21.29,0,0,1-.28-4.36c.27-.64,7.36-6.45,8.27-6.31a19.86,19.86,0,0,1,4.94,2.07c.9.66,3.17,6.06,3.16,6.63v1.35a2.28,2.28,0,0,1-2.21,2.24Z" transform="translate(102.29)" fill="#fddbba"/>
  </g>
  <path d="M747.31,584.21s-10.07-12-24.26-7.53-17.77,21.09-12.82,26.06,20.56,2.17,28,.06S751.86,588.2,747.31,584.21Z" transform="translate(102.29)" fill="#c9875e"/>
  <path d="M766.37,598.67s-4.32-5.13-10.4-3.23-7.61,9-5.49,11.17,8.81.93,12,0S768.31,600.38,766.37,598.67Z" transform="translate(102.29)" fill="#c9875e"/>
  <path d="M766.64,582.37s-2.76-3.28-6.66-2.07-4.88,5.79-3.52,7.16,5.65.59,7.69,0S767.89,583.47,766.64,582.37Z" transform="translate(102.29)" fill="#dfa680"/>
</svg>
