<svg id="Capa_1" data-name="Capa 1" xmlns="http://www.w3.org/2000/svg" viewBox="0 0 803 600">
  <g>
    <rect x="0.5" y="0.5" width="802" height="599"/>
    <path d="M802,1V599H1V1H802m1-1H0V600H803V0Z"/>
  </g>
  <g>
    <g>
      <path d="M636.6,284.12a1.83,1.83,0,0,1,1.37-1.64l8.53-2.2a1.82,1.82,0,0,1,1.63.38,1.79,1.79,0,0,1,.65,1.54c-.09,1.09-1,10.68-6.14,12.88a4.24,4.24,0,0,1-1.63.35,3.29,3.29,0,0,1-2-.63C636.22,292.79,636.46,286.12,636.6,284.12Z" style="fill: #c6c5ca"/>
      <path d="M625.15,310.72c.57-3.66,1.93-8.41,5.14-10.27a3.23,3.23,0,0,1,3.23-.13c.78.41,3.15,1.67,3.8,11.5a1.81,1.81,0,0,1-.6,1.48,1.78,1.78,0,0,1-1.22.47,1.51,1.51,0,0,1-.3,0c-2.35-.39-5.16-.7-8.37-.92a1.8,1.8,0,0,1-1.3-.68A1.84,1.84,0,0,1,625.15,310.72Z" style="fill: #c6c5ca"/>
      <path d="M610.43,310.26c.44-2.95,1.72-8.2,5.28-10.11a3.35,3.35,0,0,1,3.26,0c2,1.1,3.25,4.62,3.7,10.45a1.83,1.83,0,0,1-.5,1.41,1.85,1.85,0,0,1-1.33.56h-.06c-2.59-.09-5.39-.14-8.55-.16a1.81,1.81,0,0,1-1.38-.64A1.83,1.83,0,0,1,610.43,310.26Z" style="fill: #c6c5ca"/>
      <path d="M580.23,308.35c.6-3.5,2-8,5-9.84a3.21,3.21,0,0,1,3.23-.15c2.12,1.13,3.4,5.09,3.82,11.78a1.86,1.86,0,0,1-.57,1.44,1.84,1.84,0,0,1-1.26.5h-.19a54.43,54.43,0,0,1-8.77-1.65A1.83,1.83,0,0,1,580.23,308.35Z" style="fill: #c6c5ca"/>
      <path d="M565.91,300.67c1.66-2.88,4.38-6.42,7.9-6.95a3.32,3.32,0,0,1,3.11,1.06c1.12,1.28,1.39,3.45.88,6.85a38.84,38.84,0,0,1-1.11,4.93,1.82,1.82,0,0,1-1,1.15,1.76,1.76,0,0,1-1.53,0,43.9,43.9,0,0,1-7.77-4.65A1.85,1.85,0,0,1,565.91,300.67Z" style="fill: #c6c5ca"/>
      <path d="M595.3,310.41a25.46,25.46,0,0,1,1-4.81c1-3.15,2.48-5.27,4.41-6.3a3.33,3.33,0,0,1,3.29,0c1.47.82,2.46,2.78,3.11,6.14a41.45,41.45,0,0,1,.61,5,1.85,1.85,0,0,1-1.82,1.93l-3.67,0-5.11,0h0a1.84,1.84,0,0,1-1.82-2Z" style="fill: #c6c5ca"/>
      <path d="M562.13,282.05a1.82,1.82,0,0,1,1.51-.48c2.53.36,5.26.64,8.37.85a1.83,1.83,0,0,1,1.68,2.14c-.59,3.36-2,7.73-5.17,9.45a3.61,3.61,0,0,1-1.71.45,3.28,3.28,0,0,1-1.55-.4c-2-1.11-3.26-4.66-3.7-10.54A1.77,1.77,0,0,1,562.13,282.05Z" style="fill: #c6c5ca"/>
      <path d="M576,283.26a1.88,1.88,0,0,1,1.4-.56c2.55.1,5.33.16,8.49.2a1.79,1.79,0,0,1,1.38.65,1.81,1.81,0,0,1,.41,1.47c-.46,2.87-1.75,8-5.24,9.84a3.61,3.61,0,0,1-1.71.45,3.19,3.19,0,0,1-1.53-.39c-.74-.41-3-1.63-3.7-10.24A1.86,1.86,0,0,1,576,283.26Z" style="fill: #c6c5ca"/>
      <path d="M590.6,283.52a1.79,1.79,0,0,1,1.34-.59h0c2.56,0,5.3,0,8.6.09a1.83,1.83,0,0,1,1.78,2.1c-.45,2.92-1.74,8.1-5.26,10a3.63,3.63,0,0,1-1.71.46,3.27,3.27,0,0,1-1.54-.4c-.74-.4-3-1.63-3.69-10.25A1.82,1.82,0,0,1,590.6,283.52Z" style="fill: #c6c5ca"/>
      <path d="M605.57,283.71a1.85,1.85,0,0,1,1.37-.56H607c3,.07,5.8.13,8.59.17a1.83,1.83,0,0,1,1.79,2.07c-1,7.48-4.06,9.88-5.34,10.57a3.61,3.61,0,0,1-1.71.45,3.22,3.22,0,0,1-1.56-.41c-2.07-1.15-3.32-4.82-3.72-10.9A1.87,1.87,0,0,1,605.57,283.71Z" style="fill: #c6c5ca"/>
      <path d="M620.81,283.94a1.88,1.88,0,0,1,1.33-.59c3.26,0,6.07-.11,8.61-.26a1.78,1.78,0,0,1,1.44.57,1.81,1.81,0,0,1,.49,1.47c-.9,7.66-4.06,10.12-5.37,10.83a3.67,3.67,0,0,1-1.71.45A3.22,3.22,0,0,1,624,296c-2-1.12-3.29-4.72-3.71-10.69A1.82,1.82,0,0,1,620.81,283.94Z" style="fill: #c6c5ca"/>
    </g>
    <path d="M537.25,229.31c6.55-7.64,20.59-10.35,53.66-10.35,15.66,0,32.41,5.87,46,16.11,13.13,9.92,21,22.3,21,33.12,0,4.78-1.5,8.67-4.46,11.57-6.24,6.1-18.23,7.26-32.83,7.26-4.34,0-8.9-.1-13.61-.21-5-.11-10.07-.23-15.2-.23-14.92,0-26.35-.47-35.19-2.63a34.42,34.42,0,0,0,11,15.39c7.63,6.17,17.78,9.42,29.37,9.42l5.22,0c20.46-.16,39.25.15,44.29,5.53a4.88,4.88,0,0,1,1.4,3.78c-.43,5.86-7,7.41-11.82,8.06a138.73,138.73,0,0,1-17.27.75c-3.32,0-6.91,0-10.76-.07-4.6,0-9.35-.09-14.55-.09-14.49,0-27.38-4.22-37.29-12.2-7.86-6.33-12.41-13.8-14.06-18.68s-4.6-20.84-5.84-27.72a31.81,31.81,0,0,1-1.59-6.24C532.42,247.19,531.28,236.28,537.25,229.31Z" style="fill: #e0e0e2"/>
    <path d="M537.25,229.31c6.55-7.64,20.59-10.35,53.66-10.35.75,0,1.51,0,2.27,0-28.11.38-40.61,3.22-46.68,10.3s-4.83,17.88-2.56,32.54c1.65,10.7,7.3,17.35,17.75,20.92,9.33,3.18,22,3.81,39.31,3.81,5.14,0,10.25.12,15.2.23,2.93.07,5.81.13,8.61.17-1.39,0-2.81,0-4.25,0-4.34,0-8.9-.1-13.61-.21-5-.11-10.07-.23-15.2-.23-17.35,0-30-.63-39.31-3.81a34.61,34.61,0,0,1-4.27-1.77c1.2,6.06,2.51,12.14,3.41,14.81,1.64,4.88,6.2,12.35,14,18.68,9.91,8,22.81,12.2,37.29,12.2h-9.45c-14.49,0-27.38-4.22-37.29-12.2-7.85-6.33-12.41-13.8-14-18.68s-4.61-20.84-5.85-27.72a31.81,31.81,0,0,1-1.59-6.24C532.42,247.19,531.28,236.28,537.25,229.31Z" style="fill: #c6c5ca"/>
    <path d="M634.71,255.48a9.38,9.38,0,0,1,9.1,9.18,15.94,15.94,0,0,1-.7,5.71,5.25,5.25,0,0,1-5.29,3.48c-4.69,0-10.14-3.8-10.14-8.7C627.68,259.18,630.37,255.48,634.71,255.48Z" style="fill: #3e3d42"/>
    <path d="M634.71,255.48a8.82,8.82,0,0,1,4.87,1.52c-1.82,1.62-2.86,4.45-2.86,8.15,0,3.11,2.21,5.78,5,7.31a5.57,5.57,0,0,1-3.92,1.39c-4.69,0-10.14-3.8-10.14-8.7C627.68,259.18,630.37,255.48,634.71,255.48Z" style="fill: #2d2d30"/>
    <path d="M577.11,236.28c5.24-6.44,17.3-6.33,24-5.7,7.8.73,13.82,3.49,17.87,8.19,4.64,5.38,6.52,13.15,5.59,23.1-.56,5.89-3.72,9.83-9.4,11.71a32.89,32.89,0,0,1-10.32,1.35c-2.35,0-5-.14-7.88-.41-16.75-1.58-18.36-10.35-19.91-18.83a57.24,57.24,0,0,0-1.5-6.68h0C574,243.78,574.49,239.5,577.11,236.28Z" style="fill: #3e3d42"/>
    <path d="M577.11,236.28c5-6.16,16.25-6.33,23.11-5.78-5.29.5-10.66,2-13.71,5.78-2.62,3.22-3.14,7.5-1.53,12.73h0a57.24,57.24,0,0,1,1.5,6.68c1.55,8.48,3.16,17.25,19.91,18.83,1,.09,1.92.17,2.83.23-1.34.12-2.78.18-4.34.18-2.35,0-5-.14-7.88-.41-16.75-1.58-18.36-10.35-19.91-18.83a57.24,57.24,0,0,0-1.5-6.68h0C574,243.78,574.49,239.5,577.11,236.28Z" style="fill: #2d2d30"/>
    <path d="M550.72,237.69a6,6,0,0,1,4.39-2.23c7.73-.69,14.62,4.74,15.36,12.11.07.73.18,1.58.31,2.56.76,5.69,1.9,14.28-2.07,19.24a9.88,9.88,0,0,1-7.18,3.6c-.22,0-.45,0-.68,0-2.57,0-5.85-1.33-8.09-7.05a44.18,44.18,0,0,1-2.43-11.6h0c-.11-1.1-.3-2.32-.49-3.61C549.09,245.82,548.32,240.73,550.72,237.69Z" style="fill: #3e3d42"/>
    <path d="M550.72,237.69a6,6,0,0,1,4.39-2.23,14.68,14.68,0,0,1,6.43.86,5.54,5.54,0,0,0-1.57,1.37c-2.39,3-1.63,8.13-.88,13.05.19,1.29.38,2.51.49,3.62h0A44.19,44.19,0,0,0,562,266a12.42,12.42,0,0,0,4,5.72,11.18,11.18,0,0,1-4.47,1.3c-.22,0-.45,0-.68,0-2.57,0-5.85-1.33-8.09-7.05a44.19,44.19,0,0,1-2.43-11.59h0c-.11-1.11-.3-2.33-.49-3.62C549.09,245.82,548.32,240.73,550.72,237.69Z" style="fill: #2d2d30"/>
  </g>
  <g>
    <path d="M468.65,345.16v16.68h-2.73V345.16Z" style="fill: #fff"/>
    <path d="M489.82,345.16v16.68h-2.73V350.41L482,361.84h-1.9L475,350.41v11.43h-2.74V345.16h3l5.85,13.08,5.83-13.08Z" style="fill: #fff"/>
    <path d="M503.48,358.43h-7l-1.2,3.41h-2.85l6-16.71h3.17l6,16.71h-2.88Zm-.77-2.23L500,348.45l-2.74,7.75Z" style="fill: #fff"/>
    <path d="M522.22,350a4.45,4.45,0,0,0-1.8-1.89,5.45,5.45,0,0,0-2.66-.63,5.85,5.85,0,0,0-3,.74,5.22,5.22,0,0,0-2,2.11,7.18,7.18,0,0,0,0,6.35,5.21,5.21,0,0,0,2,2.13,5.85,5.85,0,0,0,3,.74,5.22,5.22,0,0,0,3.62-1.25,5.43,5.43,0,0,0,1.71-3.38h-6.27v-2.19H526v2.14a8.07,8.07,0,0,1-1.38,3.58,8.26,8.26,0,0,1-2.9,2.6,8.16,8.16,0,0,1-4,1,8.62,8.62,0,0,1-4.3-1.09,8.17,8.17,0,0,1-3.08-3,9,9,0,0,1,0-8.78,8.13,8.13,0,0,1,3.09-3,9.11,9.11,0,0,1,9,.22,7.44,7.44,0,0,1,3,3.71Z" style="fill: #fff"/>
    <path d="M531.44,347.37v4.89h5.76v2.23h-5.76v5.12h6.48v2.23H528.7V345.13h9.22v2.24Z" style="fill: #fff"/>
    <path d="M555,361.84h-2.73L544,349.38v12.46h-2.73V345.13H544l8.24,12.44V345.13H555Z" style="fill: #fff"/>
    <path d="M578.52,361.84h-2.73l-8.23-12.46v12.46h-2.74V345.13h2.74l8.23,12.44V345.13h2.73Z" style="fill: #fff"/>
    <path d="M585.45,360.91a8,8,0,0,1-3.1-3,8.63,8.63,0,0,1-1.14-4.41,8.53,8.53,0,0,1,1.14-4.39,8.08,8.08,0,0,1,3.1-3,9,9,0,0,1,8.59,0,8.13,8.13,0,0,1,3.09,3,8.61,8.61,0,0,1,1.12,4.39,8.71,8.71,0,0,1-1.12,4.41,8.05,8.05,0,0,1-3.09,3,8.93,8.93,0,0,1-8.59,0Zm7.23-2a5.17,5.17,0,0,0,2-2.16,7.48,7.48,0,0,0,0-6.49,5.09,5.09,0,0,0-2-2.13,6.18,6.18,0,0,0-5.9,0,5.16,5.16,0,0,0-2,2.13,7.58,7.58,0,0,0,0,6.49,5.24,5.24,0,0,0,2,2.16,6.11,6.11,0,0,0,5.9,0Z" style="fill: #fff"/>
    <path d="M617.3,346.18a7.28,7.28,0,0,1,3.09,2.93,8.76,8.76,0,0,1,1.09,4.45,8.56,8.56,0,0,1-1.09,4.41,7.21,7.21,0,0,1-3.09,2.87,10.32,10.32,0,0,1-4.67,1h-5.45V345.16h5.45A10.2,10.2,0,0,1,617.3,346.18ZM617.12,358a6.07,6.07,0,0,0,1.56-4.46,6.3,6.3,0,0,0-1.56-4.54,5.92,5.92,0,0,0-4.49-1.63h-2.71v12.22h2.71A6,6,0,0,0,617.12,358Z" style="fill: #fff"/>
    <path d="M626.93,345.16v16.68H624.2V345.16Z" style="fill: #fff"/>
    <path d="M633,361.42a5,5,0,0,1-2.11-1.67,4.24,4.24,0,0,1-.76-2.52h2.92a2.71,2.71,0,0,0,.85,1.78,3.07,3.07,0,0,0,2.13.69,3.32,3.32,0,0,0,2.21-.68,2.26,2.26,0,0,0,.79-1.77,1.94,1.94,0,0,0-.49-1.36,3.21,3.21,0,0,0-1.23-.82,18,18,0,0,0-2-.62,19,19,0,0,1-2.65-.88,4.45,4.45,0,0,1-1.74-1.38,4,4,0,0,1-.72-2.5,4.44,4.44,0,0,1,.72-2.52,4.54,4.54,0,0,1,2-1.65,7.2,7.2,0,0,1,3-.58,6.3,6.3,0,0,1,4,1.21,4.52,4.52,0,0,1,1.72,3.33h-3a2.18,2.18,0,0,0-.86-1.56,3.22,3.22,0,0,0-2.09-.65,3,3,0,0,0-1.92.6,2.08,2.08,0,0,0-.74,1.73,1.76,1.76,0,0,0,.46,1.26,3.33,3.33,0,0,0,1.19.78,18.32,18.32,0,0,0,2,.62,22.67,22.67,0,0,1,2.7.91,4.58,4.58,0,0,1,1.78,1.41,4.07,4.07,0,0,1,.73,2.53,4.51,4.51,0,0,1-.69,2.4,4.87,4.87,0,0,1-2,1.81A6.51,6.51,0,0,1,636,362,7.55,7.55,0,0,1,633,361.42Z" style="fill: #fff"/>
    <path d="M656.09,352.53a4.48,4.48,0,0,1-1.92,1.83,7.15,7.15,0,0,1-3.38.71h-3v6.77H645V345.16h5.76a7.27,7.27,0,0,1,3.25.66,4.53,4.53,0,0,1,2,1.79,4.89,4.89,0,0,1,.66,2.52A5.08,5.08,0,0,1,656.09,352.53Zm-3-.4a2.59,2.59,0,0,0,.76-2c0-1.83-1-2.74-3.09-2.74h-3v5.45h3A3.36,3.36,0,0,0,653.12,352.13Z" style="fill: #fff"/>
    <path d="M662.63,360.91a8,8,0,0,1-3.09-3,8.63,8.63,0,0,1-1.14-4.41,8.53,8.53,0,0,1,1.14-4.39,8.06,8.06,0,0,1,3.09-3,9,9,0,0,1,8.59,0,8,8,0,0,1,3.09,3,8.62,8.62,0,0,1,1.13,4.39,8.72,8.72,0,0,1-1.13,4.41,7.92,7.92,0,0,1-3.09,3,8.94,8.94,0,0,1-8.59,0Zm7.24-2a5.24,5.24,0,0,0,2-2.16,7.58,7.58,0,0,0,0-6.49,5.16,5.16,0,0,0-2-2.13,6.2,6.2,0,0,0-5.91,0,5.07,5.07,0,0,0-2,2.13,7.48,7.48,0,0,0,0,6.49,5.15,5.15,0,0,0,2,2.16,6.12,6.12,0,0,0,5.91,0Z" style="fill: #fff"/>
    <path d="M691.83,361.84h-2.74l-8.23-12.46v12.46h-2.74V345.13h2.74l8.23,12.44V345.13h2.74Z" style="fill: #fff"/>
    <path d="M698.16,345.16v16.68h-2.73V345.16Z" style="fill: #fff"/>
    <path d="M713,354.69a4.18,4.18,0,0,1,.94,2.66,4.12,4.12,0,0,1-.66,2.29,4.48,4.48,0,0,1-1.91,1.61,6.78,6.78,0,0,1-2.91.59h-6.67V345.16h6.36a6.87,6.87,0,0,1,2.93.57,4.33,4.33,0,0,1,1.85,1.55,4,4,0,0,1,.62,2.17,3.68,3.68,0,0,1-.77,2.4,4.45,4.45,0,0,1-2.06,1.42A3.65,3.65,0,0,1,713,354.69Zm-8.47-2.52h3.38a3.23,3.23,0,0,0,2.1-.62,2.1,2.1,0,0,0,.76-1.76A2.15,2.15,0,0,0,710,348a3.12,3.12,0,0,0-2.1-.64H704.5Zm5.88,6.76a2.3,2.3,0,0,0,.79-1.87,2.43,2.43,0,0,0-.84-1.94,3.3,3.3,0,0,0-2.23-.72h-3.6v5.21h3.7A3.27,3.27,0,0,0,710.38,358.93Z" style="fill: #fff"/>
    <path d="M719.62,359.63h5.64v2.21h-8.38V345.16h2.74Z" style="fill: #fff"/>
    <path d="M730.27,347.37v4.89H736v2.23h-5.76v5.12h6.48v2.23h-9.21V345.13h9.21v2.24Z" style="fill: #fff"/>
  </g>
  <text style="writing-mode: tb;text-orientation: upright;glyph-orientation-vertical: 0deg"/></svg>
