<svg xmlns="http://www.w3.org/2000/svg" viewBox="0 0 2244.38 1728.54"><defs><style>.cls-1{fill:#ebf3fa;}.cls-2{fill:#afcdfb;}.cls-3{fill:#edc5a2;}.cls-4{fill:#f9ddbf;}.cls-5{fill:#d8a987;}.cls-6{fill:#2c3a64;}.cls-7{fill:#ed7d2b;}.cls-8{fill:#f99746;}.cls-9{fill:#c18a65;}.cls-10,.cls-11{fill:#a36f4b;}.cls-11{opacity:0.5;}.cls-12{fill:#f8fcff;}.cls-13{fill:#ffb27d;}.cls-14{fill:#fff;}.cls-15{fill:#233862;}.cls-16{fill:#ffcf83;}.cls-17{fill:#e8945b;}.cls-18{fill:#163560;}.cls-19{fill:#edbd77;}.cls-20{fill:#ed975d;}.cls-21{fill:#e8b56b;}.cls-22{fill:#182442;}.cls-23{fill:#2b478b;}</style></defs><g id="Capa_2" data-name="Capa 2"><g id="_ëîé_1" data-name="‘ëîé_1"><path class="cls-1" d="M2242.11,1056.89q-.72,10.13-1.68,20.12-.66,6.87-1.44,13.67h0q-.81,7.1-1.75,14.12-.78,5.93-1.67,11.78c-56.55,378.81-392.05,609.14-1075.4,611.92H1159q-114.94.42-243.1-7.83-20.53-1.34-41.41-2.9a1356.18,1356.18,0,0,1-201.11-30.17C373.5,1619,92.28,1441.51,18.65,1111.52q-1.47-6.62-2.82-13.28c-.59-2.86-1.16-5.72-1.71-8.6q-3.36-17.51-5.94-35.58v0q-.67-4.82-1.32-9.67c-.28-2.19-.56-4.4-.83-6.61-.41-3.34-.79-6.71-1.16-10.09h0q-.57-5.25-1.07-10.54A862.43,862.43,0,0,1,0,929.83c0-1.27,0-2.55,0-3.82,0-4.2.1-8.43.2-12.66l.06-2.23c0-1.53.09-3.06.14-4.59q.39-12.74,1.13-25.7,1.64-28.51,5-58.14,4.77-42.06,13.21-86.44c.33-1.77.68-3.55,1-5.31q3.27-16.25,7.43-32c.65-2.46,1.31-4.91,2-7.35A532.4,532.4,0,0,1,59.18,613a552.85,552.85,0,0,1,28.44-53.79C126,495.33,177,438.9,237.15,388.9,290.21,344.8,350.42,305.72,415.38,271c236.54-126.5,536.19-195.33,784-238.31,719.4-124.81,850.8,122.26,957.1,493.46,11.09,38.68,21.9,78.7,33.06,119.79.26.95.51,1.88.77,2.82q3,11,6,22.12,13.61,49.8,23.42,97.79,10.16,49.89,16.17,97.74c.11.92.22,1.83.34,2.73q4.65,37.83,6.6,74.28c.06,1,.11,2,.16,3.05q.4,8.17.68,16.28A890.93,890.93,0,0,1,2242.11,1056.89Z"/><path class="cls-2" d="M2242.11,1056.89q-.72,10.13-1.68,20.12-.66,6.87-1.44,13.67h0q-.81,7.1-1.75,14.12l-32,18.81a7.45,7.45,0,0,1-4.62,1L1630,1060.41c-5.3-.6-8.49-6.53-6.26-11.65l38.46-88.34a7.8,7.8,0,0,1,7.08-4.8h1.92a7.74,7.74,0,0,0,6.93-4.47l11.55-23.69a7.75,7.75,0,0,1,6.65-4.46l75.22-2.82a7.79,7.79,0,0,0,6.78-4.75l4.14-9.36a7.88,7.88,0,0,1,5.4-4.58l74.85-17.19a7.81,7.81,0,0,0,5.22-4.18L1897,822.34a7.76,7.76,0,0,1,6.88-4.38h2.75a7.87,7.87,0,0,0,7.43-5.74,8.2,8.2,0,0,1,2.21-3.62,7.74,7.74,0,0,1,3.63-1.94l32.11-7a8,8,0,0,0,5.72-5.21l7-20.09a7.86,7.86,0,0,1,6.37-5.31l75.9-9.68a7.91,7.91,0,0,0,6.49-5.66l11.3-37.23a8,8,0,0,1,5.9-5.57l88.65-18.69a7.74,7.74,0,0,0,4.89-3.42l26-40q3,11,6,22.12,13.61,49.8,23.42,97.79,10.16,49.89,16.17,97.74c.11.92.22,1.83.34,2.73q4.65,37.83,6.6,74.28c.06,1,.11,2,.16,3.05q.4,8.17.68,16.28A890.93,890.93,0,0,1,2242.11,1056.89Z"/><path class="cls-2" d="M641.73,1079.84l-625.9,18.4c-.59-2.86-1.16-5.72-1.71-8.6q-3.36-17.51-5.94-35.58v0q-.67-4.82-1.32-9.67c-.28-2.19-.56-4.4-.83-6.61-.41-3.34-.79-6.71-1.16-10.09h0q-.57-5.25-1.07-10.54A862.43,862.43,0,0,1,0,929.83c0-1.27,0-2.55,0-3.82,0-4.2.1-8.43.2-12.66l.06-2.23c0-1.53.09-3.06.14-4.59q.39-12.74,1.13-25.7,1.64-28.51,5-58.14,4.77-42.06,13.21-86.44c.33-1.77.68-3.55,1-5.31l58,11.08c3.62.69,6.47,2.72,7.49,5.32l13.27,33.78c1.09,2.79,4.32,4.92,8.26,5.44l99.05,13.27c3.78.5,6.92,2.48,8.13,5.11l8.39,18.29c1.11,2.42,3.85,4.31,7.28,5l41.77,8.23a12.31,12.31,0,0,1,4.67,1.95,7.54,7.54,0,0,1,2.75,3.35c1.21,3.11,5.05,5.36,9.49,5.57l3.6.16c3.77.18,7.17,1.84,8.84,4.32L337.48,905a10.44,10.44,0,0,0,6.67,4l97.36,19.88a10.21,10.21,0,0,1,6.88,4.4l5,8.58c1.5,2.57,4.87,4.36,8.69,4.64l98.43,7.12c3.69.26,7,1.93,8.53,4.37l14.15,21.77c1.63,2.53,5.07,4.22,8.89,4.4l2.52.12c4,.19,7.52,2,9.07,4.7l46.71,80.9C653.12,1074.56,648.7,1079.64,641.73,1079.84Z"/><path class="cls-3" d="M2115.32,798.13l-25.43-.68L2069.8,903.81l21.9,83.31,54.61-3.11s-1.9-48.78-3-52.49-11.6-37.49-10.22-40.68.39-61.72.39-61.72Z"/><path class="cls-4" d="M1922.12,979.1s23.22-85.56,25.8-95.08,24-68,28.55-68.94,113.42-17.63,113.42-17.63c-.18,11.19,13.67,91.77,11.7,97.74s-18.86,33.43-19.88,39.78,10,52.15,10,52.15Z"/><path class="cls-5" d="M2244.38,1056.89q-1.22,17.07-3.12,33.79h0q-1.5,13.08-3.42,25.9c-56.55,378.81-392.05,609.14-1075.41,611.92q-116.16-.79-244.25-7.82-20.52-1.34-41.4-2.9a1355.78,1355.78,0,0,1-201.11-30.17C375.77,1619,94.55,1441.51,20.92,1111.52q-6.24-28-10.47-57.46v0c-.46-3.21-.89-6.43-1.32-9.67-.29-2.19-.56-4.4-.83-6.61,21.2.09,44.28.25,69,.5,202.55,2,514.79,10.55,803,40.47,42.52,4.42,88.1,7,136,8.14,64.71,1.52,133.73.35,205.38-2.7,339.07-14.45,737.2-71,1016.51-83.13Q2242.36,1029.41,2244.38,1056.89Z"/><path class="cls-3" d="M382.13,959l13.56-80.8s-37.24-38.46-42.83-41.43-92.46-26-92.46-26L256,887.54,277.64,946Z"/><path class="cls-4" d="M181.26,934.6s.69-59.82,4.42-66,65.72-60.74,74.72-57.87,57.71,27.29,65.83,35.42,22.71,66.39,21.74,72.18S342,954,342,954Z"/><rect class="cls-6" x="1622.43" y="670.95" width="12.25" height="415.89" transform="matrix(1, 0.07, -0.07, 1, 69.48, -118.07)"/><path class="cls-7" d="M1668.15,1071.53l-6.87,92.64c-2,26.23-41.89,45-57.27,45.53-15.14-2.78-51.88-27.26-49.93-53.48l6.87-92.64,29.21,2.16a30.43,30.43,0,0,0,23.49,14.1,30.19,30.19,0,0,0,10-.91,30.67,30.67,0,0,0,15.35-9.56Z"/><path class="cls-8" d="M1623.61,1078.93l-14.76,65.56-4.93-67a30.46,30.46,0,0,0,19.69,1.46Z"/><path class="cls-6" d="M1668.62,678.39l-48.82-3.62a17.62,17.62,0,0,1-16.25-18.86l1.58-21.31,8.78.65-1.58,21.31a8.81,8.81,0,0,0,8.12,9.43l48.82,3.62a8.81,8.81,0,0,0,9.43-8.12l1.58-21.31,8.78.65-1.58,21.31A17.62,17.62,0,0,1,1668.62,678.39Z"/><path class="cls-7" d="M1684.93,643.27l-77.35-5.74a6.71,6.71,0,0,1-6.18-7.17h0a6.71,6.71,0,0,1,7.17-6.18l77.35,5.74a6.7,6.7,0,0,1,6.18,7.17h0A6.71,6.71,0,0,1,1684.93,643.27Z"/><path class="cls-9" d="M2239,1090.68h0q-1.5,13.08-3.41,25.91c-11.34,75.92-33.89,145.88-68.19,209.24-136.83,252.75-460.83,400.45-1007.23,402.67q-128.7-1-272-11a1582.48,1582.48,0,0,1-214.73-29.86c-244.51-56-476.6-184.27-593.91-408.6-34.7-66.37-59.35-141.16-71.31-225v0q-.67-4.82-1.31-9.66-1.1-8.3-2-16.71h0q-.57-5.25-1.07-10.54A876.94,876.94,0,0,1,.26,913.35c.06-2.27.12-4.54.19-6.83,20.81,2,46.5,4.49,74.85,7.41,128.17,13.17,310.43,34.6,337.56,52.34,42.47,27.78,116.1,215.61,139,228s1192.45-9.93,1218.65-16,98.44-193.47,150.82-208.74c32.75-9.54,179.84-17.18,321.7-23Q2246.81,1021.58,2239,1090.68Z"/><path class="cls-10" d="M2167.39,1325.84c-136.83,252.75-460.83,400.45-1007.23,402.67q-128.7-1-272-11a1582.48,1582.48,0,0,1-214.73-29.86c-244.51-56-476.6-184.27-593.91-408.6,87.86-9.44,289.91-30.08,393.05,4.75,132.09,44.59,338.47,37.34,512.3,63.87s161.58-31.92,407.26-23,230.49,55.64,372.29,36.09C1872.9,1345.76,2058.35,1314.47,2167.39,1325.84Z"/><rect class="cls-5" x="240.75" y="1347.82" width="85.3" height="19.85" transform="translate(808.42 73.95) rotate(34.03)"/><path class="cls-5" d="M262.5,1331.65s6.54-17.59-4.92-22.91-20.23,4.81-20.61,11.82c-.19,3.52-13.31,6.06-11.41,15.11,3.68,17.44,25.83,12.43,25.83,12.43Z"/><path class="cls-5" d="M318.37,1369.38s13.87-12.64,23.08-4,3.11,20.56-3.26,23.53c-3.19,1.48-.65,14.61-9.76,16.22-17.55,3.11-21.17-19.31-21.17-19.31Z"/><path class="cls-5" d="M1037.06,1447l-1,2a13.3,13.3,0,0,1-5.16,5.49,11.44,11.44,0,0,0-5.59,11,13.37,13.37,0,0,1-1.38,7.41l-1,2a13.46,13.46,0,0,1-13.87,7.23,13.17,13.17,0,0,1-4.16-1.32,4.54,4.54,0,0,0-6.21,2.24c-10,22.87-21,40.61-32.16,54.36l.37-5.71-11.74.84-5.5-6.61a286.17,286.17,0,0,0,28-50,9,9,0,0,0,.61-2.17,8.51,8.51,0,0,0-4.58-8.77,13.45,13.45,0,0,1-5.89-18l1-2a13.12,13.12,0,0,1,3.29-4.19,21,21,0,0,0,7.42-14.63,13.45,13.45,0,0,1,1.41-5.13l1-2a13.47,13.47,0,0,1,18-5.89l2.42,1.22a7.74,7.74,0,0,0,10.39-3.42l.34-.65a8.67,8.67,0,0,1,12.64-3.21,8.88,8.88,0,0,1,2.68,11.33l-1.13,2.2a5.71,5.71,0,0,0,2.51,7.66l1.41.69A13.47,13.47,0,0,1,1037.06,1447Z"/><path class="cls-5" d="M1128.87,1494.47l-1.73-.5a6.51,6.51,0,0,1-4.44-8.06l.78-2.7a10.15,10.15,0,0,0-5.4-12.17,9.93,9.93,0,0,0-13.52,6.3l-.24.81a8.83,8.83,0,0,1-11,6l-3-.86a15.39,15.39,0,0,0-19,10.47l-.71,2.45a15.12,15.12,0,0,0-.49,6.06,24.15,24.15,0,0,1-5.22,18,15.13,15.13,0,0,0-2.82,5.38l-.71,2.46a15.37,15.37,0,0,0,10.46,19h0a9.71,9.71,0,0,1,6.78,11.43c-6,26.7-28,106.23-84.63,142.53,0,0,80.12-8.31,109.82-139a5.18,5.18,0,0,1,6.49-3.83h0a15.38,15.38,0,0,0,19-10.46l.71-2.46a15.27,15.27,0,0,0,0-8.61,13.09,13.09,0,0,1,3.94-13.59,15.19,15.19,0,0,0,4.63-7.26l.71-2.45A15.38,15.38,0,0,0,1128.87,1494.47Z"/><path class="cls-5" d="M858.79,1599.53a115.71,115.71,0,0,0,14.37-181.15s0-.06-.06-.05a115.71,115.71,0,0,0-44.27-25.55c-37.19-22.17-90.28-55.63-129.57-87.63-34.59-28.14-149.63-14-166.47,1.9a120,120,0,0,0,1.27,17.46c-10.11,2.83-22.6,8.86-32,13.83-4.57,2.44-2.59,7.56,3,7.56,10.11,0,23.11.22,33.63.84a152.35,152.35,0,0,0,5.2,15.37c-8,3.65-18.62,13.56-26,21.05-3,3-.18,6.68,4.14,5.45,9.35-2.77,21.86-6.21,30.76-8a143.51,143.51,0,0,0,8.87,13.61c-6.88,5.36-14.55,18.22-19.66,27.88-2.06,3.86,1.95,7.47,5.89,5.34,9.26-5,21.93-11.51,30.45-14.81,1.17,1,2.34,2.08,3.55,3.11-5,7.23-8.63,21.39-10.82,31.88-.89,4.31,4,6.66,7.15,3.49,6.82-6.71,16-15.47,23.1-21.17q4,2.52,7.91,4.91c-2.63,7.84-4.24,18.1-5.17,26.22-.52,4.31,4.52,6.23,7.42,2.82,4.71-5.5,10.65-12.28,16.08-18,4.51,2.78,8.92,5.68,13.16,8.75a161.48,161.48,0,0,0-3.94,22.1c-.5,4.35,4.5,6.28,7.42,2.83,3.3-3.85,7.17-8.32,11.1-12.64,9.8,9.88,18.05,22.31,23.6,39.7l0,.07a115.7,115.7,0,0,0,179.88,92.87Zm-239.7-229.92c-18.28,2.52-37.85-4.8-40.33-23.1s11.32-27.54,29.6-30.06,34.08,2.71,36.6,21S637.38,1367.1,619.09,1369.61Zm46.23,63.24c-16-2.68-30.51-14-27.81-30s16.71-20.16,32.74-17.47,27.87,11.22,25.19,27.25S681.31,1435.55,665.32,1432.85ZM766,1510.48c-20.34-11.23-19.29-32.16-8.07-52.5s28.4-32.35,48.74-21.12,24.21,30,13,50.26S786.3,1521.7,766,1510.48Z"/><path class="cls-5" d="M468.29,1408.2s34.82,46,76.61,71.6c47.42,29,121.9,25.37,129.52,76.62s-49.82,80.29-97.42,16.15c-35.63-48-112-66-124.56-95.72C431.61,1427.62,468.29,1408.2,468.29,1408.2Z"/><path class="cls-5" d="M510.42,1408.93a4.45,4.45,0,0,0-4.19-7.32c-13.6,2.66-33.4,7.84-34.69,15.62-2,11.91,13,25.64,18,17.81C494.13,1427.76,503.49,1416.76,510.42,1408.93Z"/><path class="cls-5" d="M528,1434.73a3.83,3.83,0,0,0-5.21-5c-10.62,5.45-25.75,14.48-25,21.21,1.21,10.33,16.86,18.11,19.11,10.44C519,1454.2,524.1,1442.87,528,1434.73Z"/><path class="cls-5" d="M555.13,1454.19a3.83,3.83,0,0,0-6.63-3c-8.1,8.76-19.22,22.42-16.17,28.48,4.68,9.29,22,11.23,21.53,3.25C553.38,1475.55,554.3,1463.15,555.13,1454.19Z"/><path class="cls-5" d="M593.54,1472.08a3.93,3.93,0,0,0-6.79-3c-8.29,9-19.68,23-16.55,29.15,4.79,9.51,22.56,11.5,22,3.33C591.74,1494,592.68,1481.26,593.54,1472.08Z"/><path class="cls-5" d="M625.14,1489.2a3.92,3.92,0,0,0-6.78-3c-8.29,9-19.68,22.95-16.55,29.16,4.78,9.5,22.56,11.49,22,3.32C623.35,1511.07,624.29,1498.38,625.14,1489.2Z"/><path class="cls-5" d="M645.93,1502.53a3.93,3.93,0,0,0-6.79-3c-8.29,9-19.67,23-16.55,29.16,4.79,9.5,22.56,11.49,22,3.32C644.14,1524.4,645.07,1511.71,645.93,1502.53Z"/><path class="cls-5" d="M1356.9,1342c-3,1.18-75.37,25.93-109.54,23s-99.28-21.81-137.77,14.62,58.09,37.33,74.54,56.12,27.4,38.1,52.46,25.63,55.35-27.27,81.72-22.53,103.15-27.17,104.5-54S1404.94,1322.87,1356.9,1342Z"/><path class="cls-5" d="M1353.34,1481.52s-34,2.55-35.37,36.58,24.64,41.77,25.07,44.52-1,54.83,9.29,46.44,8.38-44,13.52-48.35c18.33-15.5,24.17-48.13,7.84-73.87,0,0,1.61-37.7-4.14-38.32C1360.3,1447.52,1361.73,1474,1353.34,1481.52Z"/><path class="cls-5" d="M1529.76,1478.52s-23.46,12.7-13.55,37.47,31,22,32.16,23.78,16.86,39.49,21.5,30.21-8.1-34.13-5.82-38.88c8.14-16.94,1.87-42.12-18-55.29,0,0-10.92-27.45-15.23-26C1523.85,1452,1533.35,1470.46,1529.76,1478.52Z"/><path class="cls-5" d="M1634.52,1492s-15.92,17.93,0,35.8,32.89,9,34.46,10.22,26.35,28.16,27.43,18.91-17.31-26.34-16.85-31.05c1.68-16.8-11.35-36.14-32.2-41.15,0,0-17.64-19.83-20.85-17.33C1621.39,1471.38,1635.07,1484.05,1634.52,1492Z"/><path class="cls-5" d="M1652.92,1427.36s-11.24,18.75,6.09,32.08,31,2.55,32.61,3.34,28.39,20.8,27.79,12.32-20-20.68-20.35-25c-1.33-15.35-16.27-30.49-35.81-31.46,0,0-19.17-14.8-21.63-12C1637.68,1411.13,1652.08,1420.17,1652.92,1427.36Z"/><path class="cls-5" d="M1712.05,1356.33s-2.78,14.88,11.68,19.36,20.74-5.82,22-5.69,23.44,6.67,21,1.31-18-8.62-19.23-11.32c-4.56-9.64-17.9-15.87-30.82-11.8,0,0-16-5-16.93-2.59C1698.25,1349.46,1709.78,1351.86,1712.05,1356.33Z"/><path class="cls-5" d="M1729.21,1323.57s-1.76,9.4,7.38,12.23,13.11-3.67,13.89-3.59,14.81,4.21,13.27.83-11.34-5.45-12.15-7.16c-2.88-6.09-11.32-10-19.48-7.45,0,0-10.12-3.16-10.7-1.64C1720.49,1319.23,1727.77,1320.75,1729.21,1323.57Z"/><path class="cls-5" d="M1785.63,1257.18s-12.5,9.61-19,12.94-6.36,8.8-3.71,10.35,10.93,10,15,6.61,7.27-13.19,10.07-18.07S1791.52,1252.81,1785.63,1257.18Z"/><path class="cls-5" d="M1756.43,1286.51a10.19,10.19,0,0,0-10.13,7.38c-2.47,7.9-8.19,7.93-6.49,12.72s13.91,12.29,17.74,8.41,2.43-9.92,5.67-12.06S1765.14,1287.21,1756.43,1286.51Z"/><path class="cls-5" d="M2033.15,1234.52c6-23.78,28.65-40.49,53.18-40.43s47.52,21,49.13,45.47c2.11,31.86-20,48.55-44.51,48.49-8.07,0-18.94-4.61-25.45-8.39l-12.45,13.54C2042.85,1289,2025.85,1263.46,2033.15,1234.52Z"/><path class="cls-9" d="M2065.14,1280c-.21-.23-21.11-23.73-6.34-51.67,8.47-16,22.25-18.23,29.67-18.15,12.43.17,24.75,6.94,29.29,16.11,4.19,8.45,4.8,17.18,1.73,24.56a24.17,24.17,0,0,1-14.9,13.74c-7.26,2.43-14.41,1.59-20.13-2.37a20.3,20.3,0,0,1-8.78-15.83,16.77,16.77,0,0,1,6.55-14.15,18.2,18.2,0,0,1,16.47-2.85c5.16,1.6,8.35,6.17,8.51,12.21.13,4.74-1.76,8.92-4.51,10-4.53,1.69-8.86,1.33-11-.92a4.42,4.42,0,0,1-.81-5l.89.36a3.51,3.51,0,0,0,.62,4c1.57,1.61,5.27,2.45,10,.68,2.33-.87,4-4.74,3.88-9-.06-2.1-.8-9.12-7.83-11.31a17.26,17.26,0,0,0-15.6,2.69,15.64,15.64,0,0,0-6.18,13.36,19.32,19.32,0,0,0,8.37,15.06c5.46,3.78,12.31,4.58,19.28,2.25a23.2,23.2,0,0,0,14.31-13.19c3-7.12,2.35-15.56-1.7-23.76-4.39-8.86-16.35-15.41-28.45-15.57h-.37c-7.31,0-20.34,2.34-28.43,17.64-14.44,27.33,6,50.35,6.2,50.58Z"/><path class="cls-5" d="M875.22,1294.64c2.92-11.6,14-19.74,25.93-19.72s23.17,10.25,24,22.18c1,15.54-9.74,23.67-21.7,23.65-3.94,0-9.24-2.25-12.42-4.09l-6.07,6.6C880,1321.21,871.66,1308.76,875.22,1294.64Z"/><path class="cls-9" d="M890.82,1316.81c-.11-.11-10.3-11.57-3.1-25.19,4.13-7.82,10.85-8.9,14.47-8.86,6.07.08,12.08,3.39,14.29,7.86,2,4.12,2.34,8.37.84,12a11.82,11.82,0,0,1-7.26,6.7,10.84,10.84,0,0,1-9.82-1.16,9.89,9.89,0,0,1-4.28-7.72,8.16,8.16,0,0,1,3.19-6.9,8.89,8.89,0,0,1,8-1.39,6,6,0,0,1,4.15,5.95c.07,2.32-.86,4.36-2.19,4.85-2.21.83-4.33.65-5.39-.44a2.15,2.15,0,0,1-.4-2.44l.43.18a1.71,1.71,0,0,0,.3,1.93c.77.79,2.58,1.2,4.89.33,1.14-.42,1.95-2.31,1.89-4.39,0-1-.38-4.45-3.82-5.52a8.38,8.38,0,0,0-7.6,1.31,7.61,7.61,0,0,0-3,6.51,9.4,9.4,0,0,0,4.08,7.35,10.34,10.34,0,0,0,9.4,1.1,11.35,11.35,0,0,0,7-6.43c1.44-3.48,1.15-7.59-.83-11.59-2.14-4.32-8-7.52-13.87-7.6H902c-3.56,0-9.91,1.14-13.86,8.61-7,13.32,2.92,24.55,3,24.66Z"/><path class="cls-5" d="M116,1056.12c4.91-19.44,23.42-33.09,43.46-33s38.84,17.16,40.16,37.16c1.72,26-16.33,39.67-36.37,39.63-6.61,0-15.48-3.77-20.81-6.86l-10.17,11.07C123.9,1100.64,110,1079.77,116,1056.12Z"/><path class="cls-9" d="M142.12,1093.28c-.18-.2-17.25-19.4-5.18-42.23,6.92-13.1,18.18-14.9,24.24-14.84,10.17.14,20.23,5.68,23.94,13.17,3.42,6.91,3.92,14,1.41,20.07a19.76,19.76,0,0,1-12.17,11.23c-5.94,2-11.78,1.29-16.46-1.94a16.61,16.61,0,0,1-7.17-12.93,13.7,13.7,0,0,1,5.36-11.57,14.9,14.9,0,0,1,13.46-2.33c4.21,1.31,6.82,5,6.95,10,.11,3.87-1.44,7.29-3.68,8.13-3.7,1.38-7.25,1.08-9-.75a3.61,3.61,0,0,1-.67-4.09l.73.3a2.88,2.88,0,0,0,.5,3.24c1.29,1.32,4.31,2,8.19.56,1.91-.71,3.27-3.88,3.17-7.37,0-1.72-.65-7.46-6.4-9.25a14.12,14.12,0,0,0-12.74,2.2,12.79,12.79,0,0,0-5,10.92,15.8,15.8,0,0,0,6.83,12.31c4.47,3.09,10.06,3.74,15.76,1.84a18.94,18.94,0,0,0,11.69-10.78c2.42-5.83,1.93-12.72-1.38-19.42-3.59-7.24-13.36-12.6-23.25-12.73h-.31c-6,0-16.62,1.91-23.23,14.42-11.8,22.33,4.9,41.14,5.07,41.33Z"/><path class="cls-5" d="M1997.36,1098.41s-18.79-22.32-45.25-14-33.14,39.33-23.9,48.6,38.33,4,52.22.11S2005.84,1105.85,1997.36,1098.41Z"/><path class="cls-11" d="M2032.91,1125.38s-8.05-9.56-19.39-6-14.2,16.85-10.24,20.83,16.42,1.73,22.37,0S2036.54,1128.57,2032.91,1125.38Z"/><path class="cls-5" d="M2033.42,1095s-5.16-6.13-12.43-3.86-9.09,10.8-6.56,13.34,10.53,1.12,14.34,0S2035.74,1097,2033.42,1095Z"/><path class="cls-5" d="M349.66,1162.78s-26.35-31.29-63.46-19.69-46.46,55.15-33.51,68.16,53.75,5.67,73.23.15S361.54,1173.22,349.66,1162.78Z"/><path class="cls-11" d="M399.5,1200.6s-11.29-13.41-27.18-8.44-19.91,23.63-14.36,29.2,23,2.44,31.37.07S404.59,1205.07,399.5,1200.6Z"/><path class="cls-5" d="M400.22,1158s-7.24-8.59-17.42-5.41-12.76,15.14-9.2,18.71,14.75,1.56,20.1,0S403.48,1160.84,400.22,1158Z"/><path class="cls-12" d="M619,543.1s17.12-42.67,58.06-37.93c0,0,59.43-71.13,122.81-9.49,0,0,67.37-15.27,117.26,13.23,33.27,19,44.25,38.93,44.25,38.93Z"/><path class="cls-12" d="M859.89,395.28,237.15,388.9C290.21,344.8,350.42,305.72,415.38,271c25.36,6,51.87,17.53,78.68,36.83,0,0,152.6-25.61,265.6,22.17C835,361.86,859.89,395.28,859.89,395.28Z"/><path class="cls-12" d="M1603.82,451s21.89-51.66,74.23-45.92c0,0,76-86.09,157-11.47,0,0,86.13-18.49,149.91,16,42.53,23,56.58,47.13,56.58,47.13Z"/><path class="cls-12" d="M1523.08,312.09s13.06-31.43,44.29-27.94c0,0,45.34-52.39,93.69-7,0,0,51.4-11.25,89.46,9.75,25.38,14,33.76,28.67,33.76,28.67Z"/><circle class="cls-12" cx="956.06" cy="254.92" r="38.26" transform="translate(99.76 750.7) rotate(-45)"/><path class="cls-13" d="M1188.34,383.44s-3.21-13.13-8.61-19.05c-10-10.93-16.3-17.77-16.3-17.77,1.1-8.06,6.51-36.27,13.92-34.14s-.45,17.47,5.18,21.5,22.72,8.8,22,14.29,2.26,26,2.26,26Z"/><path class="cls-13" d="M1500.53,893.63c16.81,31.85,23,93.71,23.18,149.12.15,53.25-1.3,100.69-1.3,100.69L1485.27,1154s-8.3-45.7-21-107.66c-9.35-45.66-21.11-100.17-33.68-151.73-3.06-12.55-6-25.15-8.77-37.65-19.38-86.94-31.7-168.06-31.87-180-.3-23.71,77.88-4.35,86,22.28C1476,699.24,1493.68,880.65,1500.53,893.63Z"/><path class="cls-14" d="M1523.71,1042.75c.15,53.25-1.3,100.69-1.3,100.69L1485.27,1154s-8.3-45.7-21-107.66C1464.91,1046.52,1494.39,1054.47,1523.71,1042.75Z"/><path class="cls-15" d="M1519.59,1190.11l-99.11-.42s0-11.44,16-14c14.85-2.34,40.18-10.56,47.41-28.48,10.09,3.38,22.72,2.49,38.56-3.82C1523.32,1162.92,1524,1187.94,1519.59,1190.11Z"/><path class="cls-16" d="M1482.22,425.05c-.33,19.76-3.39,42-7.44,72.54-2.26,17-8.55,38.76-10.94,44.42-6,14.21-12.73,16.51-12.73,16.51l-52.06,13.06-18.31,4.58-57.66-17.92S1297,482.43,1307.6,439.81s26.83-72.2,26.83-72.2,50-11.66,103.09-4.58c17.19,2.29,33.39,5,41.07,25.83C1482.23,398.76,1482.37,416.09,1482.22,425.05Z"/><path class="cls-13" d="M1405.24,896.42c14.37,33,15.91,95.17,11.9,150.43-3.86,53.11-8.87,100.32-8.87,100.32l-37.83,7.75s-4.83-46.2-12.81-108.93c-5.9-46.24-13.52-101.48-22.18-153.84-2.11-12.75-4.08-25.53-5.91-38.21-12.79-88.14-19-170-18.25-181.89,1.48-23.67,10.09-72.72,13.76-93,1-5.66,1.68-9.09,1.68-9.09l77.31.17s2,2.12,5,6.16a150.52,150.52,0,0,1,25.5,56S1399.39,883,1405.24,896.42Z"/><path class="cls-7" d="M1434.53,632.29l-17.25,206.92v.09l-.69,8.14-.07.91c-49.49,13.89-74.92,10.23-87,5.59-7.12-2.72-9.59-5.8-9.59-5.8s-12.68-155.65-12.61-188.79,16.51-80.29,16.51-80.29l1.2,0,84-2.76A150.52,150.52,0,0,1,1434.53,632.29Z"/><path class="cls-8" d="M1341.58,575.19l-9.49,84.21,70.27,207.85s58.33.85,105.51-18.71c0,0-5.51-174.45-16.76-201.49S1454,576.3,1454,576.3Z"/><path class="cls-15" d="M1322.19,556.21s11.45,9.1,34.24,9.61c27.22.6,94.68-6.74,94.68-6.74A55.79,55.79,0,0,1,1454,576.3s-82.42,20.6-130.11,2.76C1323.84,579.06,1317.71,567.46,1322.19,556.21Z"/><path class="cls-14" d="M1349.85,589.26c-6.85,0-12.41-6.33-12.39-14.08s5.6-14,12.45-14,12.41,6.33,12.39,14.08S1356.7,589.27,1349.85,589.26Zm.05-24c-4.58,0-8.31,4.44-8.32,9.93s3.7,9.94,8.28,9.95,8.31-4.44,8.32-9.92S1354.48,565.27,1349.9,565.26Z"/><path class="cls-13" d="M1413.89,361.54c-3.45-9.73-6.18-24.09-6.08-42.08l-2.61.51-44,8.61s1,13.82,1,26.84v.33c0,11.31,4.07,15.91,8.55,16.36C1384,373.43,1416.75,369.61,1413.89,361.54Z"/><path class="cls-17" d="M1361.25,328.58s1,13.82,1,26.84c24.59-.64,37.63-23,43-35.45Z"/><path class="cls-18" d="M1407.66,225.24s-52.91-14.77-67-2.51-3.4,58.5-3.4,58.5L1407,320.37s.91-3.6,10.64-5.34,29.48-14.09,25.8-27.62S1407.66,225.24,1407.66,225.24Z"/><path class="cls-13" d="M1350,334.86s57.58,8.26,62.16-27.68,15.12-59.07-21.45-65.86-45.48,6-49.92,17.63S1335.16,331.79,1350,334.86Z"/><path class="cls-18" d="M1364.56,237.11s10.46,44.17,33.92,53.47,34.79,4.14,34.79,4.14-16.72-17.12-17.32-43.4C1416,251.32,1379,218.55,1364.56,237.11Z"/><path class="cls-18" d="M1368.05,241s-12.27,2.9-18.18,10.83a58.55,58.55,0,0,0-12,32s-8.28-30.17,7.15-44.69C1361.41,223.79,1368.05,241,1368.05,241Z"/><path class="cls-1" d="M1365.39,314.16a14.62,14.62,0,0,1-12.56,3.35,10.7,10.7,0,0,1-8.14-7S1356.83,309.17,1365.39,314.16Z"/><path class="cls-14" d="M1364,315s-1.53,4.1-12,2.12c0,0-8.77-1.67-7.91-6.29C1344.09,310.79,1353.08,308.56,1364,315Z"/><path class="cls-19" d="M1448.22,267.1s21-50.53-14.62-67.35-60.15-7.45-77.29,17.48Z"/><path class="cls-16" d="M1447.05,257.7a236.67,236.67,0,0,0-41.72-27.7,247.72,247.72,0,0,0-37.8-16.22c-30.64-10.06-55.43-10.12-61.67,1.69-6.07,11.49,4.5,30.89,28.73,50-.69-5.68-.95-10-1.19-16.77.12-4.87-.19-8.36,1.55-11.69,2-3.84,7.16-5.72,14.29-5.76,12.25-.09,30.45,5.17,49.08,15,22.44,11.86,39,26.91,43.24,38,0,0,0,0,0,0a2.47,2.47,0,0,1,.14.41c.13.37.25.72.36,1.09s.18.7.26,1.05a8.59,8.59,0,0,1,.22,1.67,9.07,9.07,0,0,1-.08,2.45,3,3,0,0,1-.06.34c-1.21,8.15-10,16.27-14.83,19.85,22.81,5.09,40.75,2.38,45.84-7.22C1479.06,293.31,1468.13,275.55,1447.05,257.7Z"/><path class="cls-14" d="M1417.14,1046.85c-3.86,53.11-8.87,100.32-8.87,100.32l-37.83,7.75s-4.83-46.2-12.81-108.93C1358.23,1046.2,1387,1056.34,1417.14,1046.85Z"/><path class="cls-15" d="M1404.94,1189.87l-101.23.83s2.15-12.69,18.08-15.2c14.85-2.34,40.18-10.56,47.41-28.49,10.09,3.38,23.29,4.38,39.13-1.93C1409.24,1164.56,1409.37,1187.7,1404.94,1189.87Z"/><path class="cls-13" d="M1334.43,367.61s-18.92,1.65-39.67,30.91c-27.54,38.85-81,74.13-76.2,87.07,3,8.25,8,15.78,19.21,15,23.6-1.64,61.48-23.85,73.58-46.45C1329.19,420.81,1334.43,367.61,1334.43,367.61Z"/><path class="cls-13" d="M1188.34,383.44l30.22,102.15s46.87-18.51,34.58-33.34c-27.22-32.86-47.28-85.49-47.28-85.49S1209.59,369.35,1188.34,383.44Z"/><path class="cls-8" d="M1163.07,318.66c6.77-12.31,21.75-18.28,35.33-14.7s23.29,18.53,20.64,32.33c-3.45,18-18.11,24-31.69,20.42-4.48-1.18-9.83-5.3-12.9-8.34l-8.85,5.7C1160.55,350.26,1154.83,333.65,1163.07,318.66Z"/><path class="cls-7" d="M1174.21,348.5c-.09-.16-8.26-16.21,4-29.56,7-7.65,15-6.87,19.08-5.76,6.87,1.9,12.71,7.44,13.9,13.18,1.09,5.29.17,10.21-2.61,13.86a13.82,13.82,0,0,1-10.24,5.45,12.69,12.69,0,0,1-10.82-4.23,11.63,11.63,0,0,1-2.57-10,9.64,9.64,0,0,1,5.69-6.9,10.45,10.45,0,0,1,9.54.81c2.62,1.64,3.73,4.63,2.94,8-.61,2.65-2.27,4.69-3.94,4.86-2.75.28-5.1-.55-6-2.11a2.54,2.54,0,0,1,.27-2.89l.45.34a2,2,0,0,0-.24,2.28c.64,1.12,2.57,2.12,5.46,1.83,1.41-.14,2.9-2.05,3.45-4.43.28-1.18.89-5.18-2.7-7.41a9.91,9.91,0,0,0-9-.77,9,9,0,0,0-5.36,6.51,11.1,11.1,0,0,0,2.45,9.56,12.18,12.18,0,0,0,10.36,4,13.29,13.29,0,0,0,9.84-5.23c2.68-3.52,3.57-8.29,2.51-13.42-1.15-5.55-6.83-10.91-13.51-12.75l-.21-.06c-4-1.07-11.61-1.65-18.31,5.66-12,13.05-4,28.77-3.89,28.92Z"/><path class="cls-13" d="M1205.86,366.76s2.41-5.59,4.59-7.29.14-14.31,0-18.34-2.09-1.54-4.59,0-1.4,11.54-4.88,14.1-8.61,8.76-5.86,11.53S1205.86,366.76,1205.86,366.76Z"/><path class="cls-16" d="M1346.41,365.32s-19.64,1.42-33.77,9.59S1270,423.24,1270,423.24s12.65,35.58,38.21,43.3S1346.41,365.32,1346.41,365.32Z"/><path class="cls-13" d="M1301.79,367.9s4.26-16.83,6-20.75a5.22,5.22,0,0,0-5,.71c-2.22,1.88-4.81,4.65-4.71,9.42S1301.79,367.9,1301.79,367.9Z"/><path class="cls-8" d="M1226.25,327.44s10.77,6.51,16.7,2.8,1.84-5.16,1.84-5.16-2.55-5.76-13.93-7.15a26.85,26.85,0,0,0-2.81,4.48A16.43,16.43,0,0,0,1226.25,327.44Z"/><path class="cls-18" d="M1321.74,354.32l-1,2.82a2.79,2.79,0,0,1-3.63,1.67L1243,330.34a2.78,2.78,0,0,1-1.63-3.54h0a2.8,2.8,0,0,1,3.53-1.71L1320,350.74A2.79,2.79,0,0,1,1321.74,354.32Z"/><path class="cls-13" d="M1302.18,374.91s-.89-34.82-10.09-38.77-22.9-6.37-24.65-3.36,7.22,16.39,7.76,19.94-1.81,9.18.21,13.77,11.33,18,11.33,18Z"/><path class="cls-13" d="M1468.87,401.85c-8-16.55-30.59-19.07-42.28-4.87-6.85,8.32-16,20-26.5,35.21-5,7.15-24.09,26.55-30.62,20.8-28.21-24.84-67.29-78.08-67.29-78.08a70.54,70.54,0,0,0-9.85,4.2,15.67,15.67,0,0,0-5.59,5.34c5.4,18.62,44.94,101.05,73.46,117.62,30.28,20.57,98.45-47.23,107.71-57.95C1473.66,437.47,1476.51,417.55,1468.87,401.85Z"/><path class="cls-16" d="M1428.16,378.62c-1.48.49-29.24,41.65-29.24,41.65s22.3,47.29,64.45,48.19c0,0,30.69-62.57,10.14-76.95S1428.16,378.62,1428.16,378.62Z"/><path class="cls-4" d="M1158,1132.67c-39.52-9.72-75.29,8.44-81.48,19.85l18.16,14.84c-5.19,6.86-11.49,18.11-12.42,27.09,9.34.34,20.06.42,32.37.18.49,0,1,0,1.48,0,3.51-.08,7.14-.17,10.91-.3,10.79-.36,22.15-.61,33.9-.8.45,0,.92,0,1.4,0,2.79-.06,5.59-.11,8.43-.15,5.68-.09,11.43-.14,17.24-.19.43,0,.86,0,1.31,0l13.43-.11h1.42l7.43,0C1211.39,1165.86,1189.63,1140.45,1158,1132.67Z"/><path class="cls-9" d="M1162.33,1193.49c-.48,0-.95,0-1.4,0a19.68,19.68,0,0,0-2.73-4.17c-4.24-4.91-10.69-7.65-18.12-7.69-8.2,0-16.08,3.27-21,8.83a19.47,19.47,0,0,0-2.91,4.13c-.49,0-1,0-1.48,0a21.84,21.84,0,0,1,3.33-4.85c5.23-5.81,13.48-9.28,22.09-9.22,7.78,0,14.79,3,19.24,8.15A17.93,17.93,0,0,1,1162.33,1193.49Z"/><path class="cls-9" d="M1189.31,1193.12c-.45,0-.88,0-1.31,0-.54-8.57-4.82-21.23-23.1-30-37-17.77-69.47,4.42-69.81,4.65l-.4-.42-.45-.43c.34-.23,33.45-22.92,71.31-4.75C1184.39,1171.23,1188.76,1184.29,1189.31,1193.12Z"/><path class="cls-20" d="M1162.43,1036.45c-3,4.61-5.38,5.07-9.19,2.77s-20.88-2-32.5-20.32,9.83-16.45,9.83-16.45,18.21-1.25,25.15,5.69S1165.38,1031.84,1162.43,1036.45Z"/><path class="cls-20" d="M1131,1012.06c-5,6.7-10.23,6.84-10.23,6.84s-13.48-6.29-31.67-15.75c-29.93-15.54-72.61-39.67-89-58.47-11.87-13.58-50-90.49-68.85-129.22a46.68,46.68,0,0,1,7.47-52.06C949.57,751.56,965.55,742,987,748c24.7,6.89,31.81,51.52,31.81,51.52s22.21,110.62,28.37,118c3.49,4.16,29.75,30.83,51.87,53.19,17,17.15,31.5,31.77,31.5,31.77S1137.28,1003.53,1131,1012.06Z"/><path class="cls-20" d="M944.15,1186.71c-8.32,9.55-46.07,12.18-91.13,11.64q-8-.11-16.31-.33c-33.93-.9-60.87-2.32-80.48-3.62-25.44-1.69-38.53-3.19-38.53-3.19s-8.6-4.76,3.66-30.82c0,0,33.35,2.14,84-13.92,6.78-2.15,13.88-4.63,21.25-7.48q2.11-.83,4.17-1.53c24.63-8.49,32.9-6.18,33.5-6.53,5.44-3.08-131.53-119.54-72.18-191.27,32.14-38.84,96-4.95,96-4.95S967.46,1160,944.15,1186.71Z"/><path class="cls-21" d="M817.81,1192.92s-28.39.7-61.58,1.48c-25.44-1.69-38.53-3.19-38.53-3.19s-8.6-4.76,3.66-30.82c0,0,33.35,2.14,84-13.92C810.69,1166.58,817.81,1192.92,817.81,1192.92Z"/><path class="cls-7" d="M782.36,899.67S754.51,921,773,1000.82c10.58,45.58,58.58,122.63,58.58,122.63s40.45,6,116.84-21.32l-62.72-197.2Z"/><path class="cls-22" d="M720.93,1192.92s-63.72-3.14-80.43-3.14-20.85-17.1-20.85-17.1,11.49-11.5,43.51-15.48c7.63-1,24.67-9,33.66-13.54a11.35,11.35,0,0,1,11.63.92c6.49,4.61,16.13,12.33,16.13,17.52C724.58,1169.94,716.23,1182.47,720.93,1192.92Z"/><path class="cls-13" d="M881.34,1193.92c-8.32,9.55-46.07,12.18-91.13,11.63-5.34-.07-10.79-.18-16.3-.33-78-2.08-119-6.81-119-6.81s-8.59-4.76,3.66-30.81c0,0,42.89,2.74,105.21-21.41,1.41-.55,2.8-1,4.18-1.53,24.62-8.48,32.89-6.18,33.5-6.52,5.43-3.09-131.54-119.54-72.18-191.28,32.13-38.83,96-5,96-5S904.66,1167.23,881.34,1193.92Z"/><path class="cls-8" d="M719.55,906.87S691.7,928.22,710.21,1008c10.58,45.58,58.59,122.63,58.59,122.63s40.44,6,116.83-21.32L844.32,913.22Z"/><path class="cls-13" d="M990.64,725.77s3.38,71.9,30.68,94.92c0,0,1.62-24.61,7.19-36.05,4.94-2.08,9.36-4,13.23-5.85a208.78,208.78,0,0,0,19.69-10.28l3.84-33.62,2.61-22.82a103.06,103.06,0,0,1-19.32,10.41C1016.39,735.53,990.64,725.77,990.64,725.77Z"/><path class="cls-20" d="M1048.56,722.48s-11.58,22.95-.42,53.21c12.88-6,18.41-10.11,18.41-10.11l-1.28-30.69C1055.74,725.72,1048.56,722.48,1048.56,722.48Z"/><path class="cls-13" d="M1067.7,776.88s-38-42.53-11.16-65.79,40-44.42,65.43-18.25,19.79,40.4,12.71,50.34S1078.28,787.34,1067.7,776.88Z"/><path class="cls-16" d="M985.42,870.22a295.33,295.33,0,0,1-38.19,31q-4,2.78-7.9,5.53c-16,11.55-16.2,25.24-21.36,39-5.88,15.64-2.21,26.87-5,29.61-48,46.91-201.06-21.91-205.71-55.39-2.3-16.51,38.66-62.87,63.7-89.63C790.05,809.9,807.16,794,807.16,794c108.92-92.33,205.53-68.29,213.09-66.22.32.09.47.15.47.15s-14.07,53.5,6.51,79.58a1,1,0,0,1,0,.26C1023.5,826.16,1007.41,849,985.42,870.22Z"/><path class="cls-23" d="M1077.4,653.15c0-.83-.61-2-2.59-3.93a11.11,11.11,0,0,1,4.86,2.24c3-2.57,9-6.46,15.1-3.42a8.39,8.39,0,0,0-7,2c11-1,27.17,5.25,59.13,37.58,42.12,42.62,1.85,59.19-7,57.65s-15.34-23.86-27-32.39-27.55,5.7-33.15,4.71-.79-3.62-3.82-10.24-10.76,1.4-14,8.13-16.39,8-16.39,8l.4-5.15c-10.91-24.43,20-59.92,29.1-64.06Z"/><path class="cls-8" d="M1027.23,807.51c-13,59.38-90.42,111.94-145.38,128C797.91,895.34,776.3,848.12,771,830.31,790.05,809.9,807.16,794,807.16,794c108.92-92.33,205.53-68.29,213.09-66.22.32.09.47.15.47.15S1021.35,780.87,1027.23,807.51Z"/><path class="cls-7" d="M1027.23,807.51s9.81-77.08,6.85-81.09-20.13-.07-20.13-.07S1000.71,786.84,1027.23,807.51Z"/><path class="cls-6" d="M654.9,1198.41s-63.72-3.13-80.43-3.13c-12.4,0-17.88-9.41-19.88-14.27a3.91,3.91,0,0,1,1.3-4.67c4.71-3.42,17.18-10.65,41.24-13.65,8.13-1,27-12.28,35.32-17.5a6.83,6.83,0,0,1,8,.59c6.31,5.35,18,16.09,18,21.82C658.55,1175.43,650.2,1188,654.9,1198.41Z"/><path class="cls-16" d="M790.21,1205.55c-5.34-.07-10.79-.18-16.3-.33-78-2.08-119-6.81-119-6.81s-8.59-4.76,3.66-30.81c0,0,42.89,2.74,105.21-21.41,1.41-.55,2.8-1,4.18-1.53C770.76,1160.39,777.21,1187.57,790.21,1205.55Z"/><path class="cls-19" d="M1057.06,670.92s14.89-52.66,53.27-43.74,51.79,31.47,49.76,61.66Z"/><path class="cls-16" d="M1014.42,684.22c-2,10.68,10.41,23.95,31.46,34.1-1.58-5.8-3.42-17.62.69-24.76a3.07,3.07,0,0,1,.16-.31,9.05,9.05,0,0,1,1.46-2,8.86,8.86,0,0,1,1.2-1.17c.29-.22.56-.45.86-.66l1-.64a3.73,3.73,0,0,1,.37-.23s0,0,0,0c10.2-6.11,32.55-7.62,57.51-3,20.71,3.83,38.25,11,47.8,18.67,5.57,4.46,6.84,9,7.63,13.39.54,3,.77,6.26-3.15,13a60.15,60.15,0,0,1-10,11.89c30.88,0,47-11,49.33-23.74,2.43-13.12-17-28.47-47.31-39.59a247.68,247.68,0,0,0-39.72-10.73,235.84,235.84,0,0,0-49.9-4.16C1036.22,665.19,1016.62,672.33,1014.42,684.22Z"/><path class="cls-13" d="M1080.76,1104.62c-.76,1.51-2.67,3.53-6.5,6.82-7.16,6.14-12.93,5-13.25,5h0l-.08-.07h0l-.07-.06c-1.1-.92-8.26-7-18.51-16.17-2.29-2-4.75-4.25-7.32-6.59-29-26.38-73.78-69.68-87.58-97.67-9.42-19.13-30.52-119.06-40.74-169.28-4.57-22.36,4.35-45.48,22.69-58,15.4-10.56,35.78-17,58-3.88,25.56,15.09,21.11,68.73,21.11,68.73s-5.91,134.35-1.1,144.6c3.16,6.71,32.73,56.4,52.87,90,3,4.92,5.68,9.49,8.1,13.54,6.4,10.67,11.42,18.7,11.42,18.7l.06.08a8.55,8.55,0,0,1,1.19,1.91.78.78,0,0,1,.07.25A2.76,2.76,0,0,1,1080.76,1104.62Z"/><path class="cls-13" d="M1117.36,1155.37c-2.61,3.65-20.84-10.95-24.39-16.44s-19.57-3-24-11a100.56,100.56,0,0,0-8-11.62h0c-3.54-4.57-6.64-8.16-6.64-8.16l13.62-11.43s4.09,1.64,9.68,4.16c1.11.49,2.28,1,3.49,1.59,4.4,2,9.32,4.47,13.8,7,5.49,3.07,10.31,6.27,12.64,9C1114.89,1127.24,1120,1151.72,1117.36,1155.37Z"/><path class="cls-13" d="M1094.86,1109.45a16.93,16.93,0,0,1-9.93-2.14,41.81,41.81,0,0,1-4.17-2.69c-2.4-1.79-3.11-3-3.19-3.72a1.1,1.1,0,0,1,.59-1.14s.6.22,1.64.57c3.6,1.19,12.45,3.92,19.3,4.38C1105.06,1105.12,1101.19,1108.9,1094.86,1109.45Z"/><path class="cls-16" d="M1117.36,1155.37c-2.61,3.65-20.84-10.95-24.39-16.44s-19.57-3-24-11a100.56,100.56,0,0,0-8-11.62h0l-.07-.06c-1.1-.92-8.26-7-18.51-16.17-2.29-2-4.75-4.25-7.32-6.59,13.81-6.74,21.69-18.78,25.21-25.5,3,4.92,5.68,9.49,8.1,13.54,6.4,10.67,11.42,18.7,11.42,18.7l.06.08c3.6,1.19,12.45,3.92,19.3,4.38,6,.41,2.09,4.19-4.24,4.74,5.49,3.07,10.31,6.27,12.64,9C1114.89,1127.24,1120,1151.72,1117.36,1155.37Z"/><path class="cls-16" d="M904.37,853.79c-3.78,0-15.11-65.8,17.57-85s59.37-15.11,70.87-7S1012,801.58,1012.74,819C1012.74,819,997.74,853.35,904.37,853.79Z"/><path class="cls-20" d="M1154.57,1010.74s-7,10.13-4.06,15.71,13.46,14.31,12.85,7.28S1157.42,1011.27,1154.57,1010.74Z"/><path class="cls-16" d="M1162.43,1036.45c-3,4.61-5.38,5.07-9.19,2.77s-20.88-2-32.5-20.32c0,0-13.48-6.29-31.67-15.75,5.42-10.39,8.6-24.87,10-32.47,17,17.15,31.5,31.77,31.5,31.77s18.21-1.25,25.15,5.69S1165.38,1031.84,1162.43,1036.45Z"/><path class="cls-6" d="M1179.55,1101.08h0a5.21,5.21,0,0,1-6.62-3.26l-48.58-143a5.21,5.21,0,0,1,3.26-6.62h0a5.21,5.21,0,0,1,6.61,3.26l48.59,143A5.2,5.2,0,0,1,1179.55,1101.08Z"/><path class="cls-7" d="M1194.59,1085.94l15,44.28c4.26,12.53-5.17,27.27-10.05,29.81-5.43,1-21.88-5-26.14-17.51l-15-44.28,9.87-3.35a12.06,12.06,0,0,0,6.64,3.42,8,8,0,0,0,3.59-.35,8.08,8.08,0,0,0,3.06-1.91,12.1,12.1,0,0,0,3.18-6.76Z"/><path class="cls-8" d="M1181.55,1096.05l7.44,32.81-14.09-30.55a8,8,0,0,0,3.59-.35A8.08,8.08,0,0,0,1181.55,1096.05Z"/><path class="cls-16" d="M1128.4,1000.26s3.53,1,6,0,6.5-3.82,11.24-1.54,15.21,7.93,14.55,9.92-11.41,1.22-14.22,2.1-2.48,7.15-10.08,4.51-12.89-12.89-12.89-12.89Z"/><path class="cls-3" d="M1750.82,1110.61l-10.14-.27-8,42.39,8.73,33.2,21.76-1.24s-.76-19.44-1.19-20.92-4.63-14.93-4.08-16.21.16-24.6.16-24.6Z"/><path class="cls-4" d="M1673.82,1182.74l10.28-37.9c1-3.79,9.56-27.12,11.38-27.47s45.2-7,45.2-7c-.07,4.46,5.45,36.57,4.67,39s-7.52,13.33-7.92,15.86,4,20.78,4,20.78Z"/><path class="cls-3" d="M1993,960.11s23.08-27.83,35.64-29.81,28.43,7.93,32.39,7.93,8.81,16.57,8.81,16.57Z"/><path class="cls-3" d="M1684.5,1180.87l-1.13-13.84a6.76,6.76,0,0,0-3.24-5.26c-4-2.44-10.84-6.52-12.09-6.82s-11.77-.5-19.59-.63a6.8,6.8,0,0,0-6.79,8.08l2.39,12.4a6.92,6.92,0,0,0,1.07,2.57l7.15,10.38a6.78,6.78,0,0,0,6.44,2.89l19.86-2.47A6.8,6.8,0,0,0,1684.5,1180.87Z"/><path class="cls-4" d="M1632.7,1194a6.79,6.79,0,0,1-7.5-5.29c-1.12-5.07-2.44-11.66-2.07-12.86.61-2,20-21.28,22.78-21.12s12.42,3,15.29,4.74,11.15,17.12,11.29,18.83l.32,4a6.78,6.78,0,0,1-5.91,7.29Z"/><path class="cls-3" d="M1744.51,1037.21l-.82-13.08a6.36,6.36,0,0,0-3-5c-3.74-2.37-10.1-6.34-11.27-6.65s-11.1-.68-18.47-1a6.42,6.42,0,0,0-6.55,7.5l2,11.73a6.36,6.36,0,0,0,1,2.45l6.55,9.92a6.4,6.4,0,0,0,6,2.84l18.77-2A6.41,6.41,0,0,0,1744.51,1037.21Z"/><path class="cls-4" d="M1695.42,1048.68a6.4,6.4,0,0,1-7-5.11c-1-4.81-2.09-11-1.72-12.18.62-1.87,19.28-19.7,21.87-19.49s11.65,3.07,14.33,4.74,10.2,16.34,10.3,17.95l.24,3.8a6.4,6.4,0,0,1-5.7,6.77Z"/><path class="cls-3" d="M1792.39,1034.13l-.63-8.45a4.13,4.13,0,0,0-2-3.23,75.17,75.17,0,0,0-7.34-4.22c-.69-.18-7.19-.36-12-.48a4.15,4.15,0,0,0-4.18,4.9l1.39,7.58a4.26,4.26,0,0,0,.65,1.57l4.31,6.38a4.15,4.15,0,0,0,3.92,1.79l12.13-1.41A4.16,4.16,0,0,0,1792.39,1034.13Z"/><path class="cls-4" d="M1760.7,1041.91a4.14,4.14,0,0,1-4.55-3.26c-.66-3.1-1.43-7.14-1.2-7.87.38-1.22,12.34-12.89,14-12.77a35.77,35.77,0,0,1,9.31,3c1.74,1.06,6.72,10.5,6.79,11.54l.19,2.45a4.16,4.16,0,0,1-3.65,4.43Z"/><path class="cls-3" d="M416.13,1004l4.05-13a6.64,6.64,0,0,0-1-6c-2.76-3.7-7.48-9.92-8.51-10.66s-10.54-4.77-17.62-7.75a6.67,6.67,0,0,0-9.14,4.87l-2.37,12.16a6.49,6.49,0,0,0,0,2.74l2.69,12.07a6.68,6.68,0,0,0,4.81,5l19,5A6.68,6.68,0,0,0,416.13,1004Z"/><path class="cls-4" d="M364.13,997a6.67,6.67,0,0,1-4.9-7.56c.85-5,2.06-11.52,2.84-12.48,1.29-1.6,26.05-12,28.49-10.87s10.2,7.31,12.18,9.92,3.88,19.68,3.38,21.29L405,1001a6.68,6.68,0,0,1-8.06,4.47Z"/><path class="cls-3" d="M987,1191.85l.11-8a3.88,3.88,0,0,0-1.57-3.18,73,73,0,0,0-6.54-4.56c-.62-.22-6.7-.92-11.17-1.42a3.9,3.9,0,0,0-4.32,4.25l.69,7.22a3.76,3.76,0,0,0,.48,1.52l3.52,6.33a3.88,3.88,0,0,0,3.52,2l11.49-.34A3.91,3.91,0,0,0,987,1191.85Z"/><path class="cls-4" d="M956.62,1196.56a3.92,3.92,0,0,1-4-3.44c-.36-3-.76-6.8-.48-7.47.46-1.11,12.62-11.07,14.18-10.83a34.28,34.28,0,0,1,8.48,3.55c1.55,1.13,5.44,10.39,5.43,11.37l0,2.32a3.91,3.91,0,0,1-3.78,3.85Z"/><path class="cls-3" d="M1034.49,1190.34l.14-10.44a5.12,5.12,0,0,0-2.05-4.16c-2.83-2.11-7.64-5.64-8.55-6s-8.77-1.21-14.62-1.86a5.1,5.1,0,0,0-5.64,5.56l.9,9.44a5,5,0,0,0,.62,2l4.6,8.28a5.1,5.1,0,0,0,4.61,2.62l15-.44A5.11,5.11,0,0,0,1034.49,1190.34Z"/><path class="cls-4" d="M994.81,1196.49a5.12,5.12,0,0,1-5.24-4.49c-.47-3.87-1-8.9-.63-9.77.61-1.45,16.51-14.48,18.55-14.16a44.44,44.44,0,0,1,11.09,4.63c2,1.49,7.12,13.6,7.1,14.88l0,3a5.1,5.1,0,0,1-4.94,5Z"/><path class="cls-9" d="M1906.82,1433.07s-22.61-26.85-54.45-16.9-39.88,47.33-28.76,58.49,46.12,4.87,62.84.13S1917,1442,1906.82,1433.07Z"/><path class="cls-9" d="M1949.59,1465.52s-9.69-11.5-23.33-7.24-17.08,20.28-12.32,25.06,19.76,2.09,26.92.06S1954,1469.36,1949.59,1465.52Z"/><path class="cls-5" d="M1950.21,1429s-6.21-7.37-15-4.64-11,13-7.9,16.06,12.66,1.33,17.25,0S1953,1431.41,1950.21,1429Z"/><path class="cls-3" d="M2223,936.44l.3-27.72a13.54,13.54,0,0,0-5.47-11c-7.53-5.59-20.34-15-22.77-15.79-2.18-.75-23.3-3.15-38.83-4.85a13.57,13.57,0,0,0-15,14.82l2.46,25.07a13.63,13.63,0,0,0,1.66,5.3l12.29,22a13.55,13.55,0,0,0,12.27,6.93l39.92-1.27A13.56,13.56,0,0,0,2223,936.44Z"/><path class="cls-4" d="M2117.66,953.06a13.55,13.55,0,0,1-13.94-11.88c-1.29-10.28-2.71-23.63-1.75-25.95,1.59-3.86,43.74-38.6,49.17-37.76s24.11,8.29,29.5,12.23,19,36.06,19,39.48l-.09,8a13.57,13.57,0,0,1-13.08,13.42Z"/><path class="cls-3" d="M198.05,919.21l3.47-27.51a13.55,13.55,0,0,0-4.18-11.58c-6.84-6.42-18.5-17.19-20.81-18.3-2.08-1-22.79-5.79-38-9.25a13.55,13.55,0,0,0-16.56,13l-.43,25.19a13.57,13.57,0,0,0,1,5.45l9.69,23.22a13.59,13.59,0,0,0,11.4,8.29l39.8,3.31A13.57,13.57,0,0,0,198.05,919.21Z"/><path class="cls-4" d="M91.47,923.66A13.56,13.56,0,0,1,79,910.26c-.1-10.36,0-23.78,1.24-26,2-3.65,47.87-33.34,53.16-31.89s23,11,27.91,15.53,14.76,38,14.33,41.39l-1,8a13.57,13.57,0,0,1-14.53,11.82Z"/></g></g></svg>