<svg xmlns="http://www.w3.org/2000/svg" xmlns:xlink="http://www.w3.org/1999/xlink" viewBox="0 0 585 193.54">
  <defs>
    <linearGradient id="Áåçûìÿííûé_ãðàäèåíò_6" data-name="Áåçûìÿííûé ãðàäèåíò 6" x1="318.69" y1="-0.54" x2="275.68" y2="260.85" gradientUnits="userSpaceOnUse">
      <stop offset="0" stop-color="#ffd662"/>
      <stop offset="0.14" stop-color="#fbcd5d"/>
      <stop offset="0.37" stop-color="#f0b550"/>
      <stop offset="0.66" stop-color="#de8e3a"/>
      <stop offset="0.99" stop-color="#c6581d"/>
      <stop offset="1" stop-color="#c5571c"/>
    </linearGradient>
  </defs>
  <g style="isolation: isolate">
    <g id="Capa_2" data-name="Capa 2">
      <g id="Ñëîé_1" data-name="Ñëîé 1">
        <path d="M61.21,146.82s53.21-11,58-11.55,101.49-.56,101.49-.56,39.13-2.88,45.23-3.88S342.07,142,345,142s75.09-27,84-27,98.68,28.07,113.49,29.3,32.56,7.44,32.56,7.44,7.9,0,9.87,3.67-34.55,3.66-33.56,8.55-177.7,13.44-177.7,13.44S427,178.7,427,184.81c0,8.55-195,13.27-194.48,2.44.23-4.88-85.86,5.23-88.82-4.55S42.48,174,42.48,174,0,164.88,0,161.48,61.21,146.82,61.21,146.82Z" style="fill: url(#Áåçûìÿííûé_ãðàäèåíò_6)"/>
        <path d="M49.93,150.08s-41.84,6.46-38.77,11.15,117.07,17.19,119.11,7-26.58-5.47-26.58-5.47,50.1-2.35,52.14-8.61-54.19-2.35-54.19-2.35Z" style="fill: #872538;opacity: 0.42;mix-blend-mode: multiply"/>
        <path d="M161.64,147.63c0,3.07,53.22.53,53-1.78S181,141.5,181,141.5Z" style="fill: #872538;opacity: 0.42;mix-blend-mode: multiply"/>
        <g style="opacity: 0.15;mix-blend-mode: multiply">
          <path d="M235.46,166.48c0,.6-1.11,1.09-2.47,1.09s-2.47-.49-2.47-1.09,1.1-1.08,2.47-1.08S235.46,165.88,235.46,166.48Z" style="fill: #872538"/>
          <path d="M252.24,163.77c0,.9-2.43,1.63-5.43,1.63s-5.43-.73-5.43-1.63,2.43-1.63,5.43-1.63S252.24,162.87,252.24,163.77Z" style="fill: #872538"/>
          <path d="M269,167.57c0,.6-1.33,1.08-3,1.08s-3-.48-3-1.08,1.32-1.09,3-1.09S269,167,269,167.57Z" style="fill: #872538"/>
          <path d="M321.34,147.48c0,.3-.88.54-2,.54s-2-.24-2-.54.89-.55,2-.55S321.34,147.18,321.34,147.48Z" style="fill: #872538"/>
          <path d="M338.12,161.59c0,.9-2.43,1.63-5.43,1.63s-5.43-.73-5.43-1.63,2.44-1.62,5.43-1.62S338.12,160.69,338.12,161.59Z" style="fill: #872538"/>
          <ellipse cx="328.25" cy="165.94" rx="1.97" ry="0.54" style="fill: #872538"/>
          <path d="M284.82,154c0,.3-.67.54-1.49.54s-1.48-.24-1.48-.54.67-.54,1.48-.54S284.82,153.69,284.82,154Z" style="fill: #872538"/>
          <path d="M214.72,159.42c0,.3-.88.55-2,.55s-2-.25-2-.55.88-.54,2-.54S214.72,159.12,214.72,159.42Z" style="fill: #872538"/>
          <path d="M362.8,177.89c0,.3-1.32.54-3,.54s-3-.24-3-.54,1.33-.55,3-.55S362.8,177.59,362.8,177.89Z" style="fill: #872538"/>
          <path d="M393.41,183.86c0,1.2-6.41,2.17-14.32,2.17s-14.31-1-14.31-2.17,6.41-2.17,14.31-2.17S393.41,182.66,393.41,183.86Z" style="fill: #872538"/>
        </g>
        <g style="opacity: 0.15;mix-blend-mode: multiply">
          <path d="M503.65,147.66c0-.6,1.1-1.08,2.47-1.08s2.46.49,2.46,1.09-1.11,1.08-2.47,1.08S503.64,148.26,503.65,147.66Z" style="fill: #872538"/>
          <path d="M486.86,150.33c0-.9,2.43-1.62,5.43-1.62s5.43.75,5.42,1.65-2.43,1.62-5.43,1.61S486.85,151.23,486.86,150.33Z" style="fill: #872538"/>
          <path d="M470.08,146.48c0-.6,1.33-1.08,3-1.07s3,.49,3,1.09-1.33,1.08-3,1.08S470.08,147.08,470.08,146.48Z" style="fill: #872538"/>
          <path d="M417.7,166.44c0-.3.89-.54,2-.54s2,.25,2,.55-.88.54-2,.54S417.7,166.74,417.7,166.44Z" style="fill: #872538"/>
          <path d="M401,152.27c0-.9,2.44-1.62,5.44-1.61s5.43.74,5.42,1.64-2.43,1.63-5.43,1.62S401,153.17,401,152.27Z" style="fill: #872538"/>
          <path d="M408.87,148c0-.3.89-.54,2-.54s2,.25,2,.55-.88.54-2,.54S408.87,148.25,408.87,148Z" style="fill: #872538"/>
          <path d="M454.25,160c0-.3.66-.54,1.48-.54s1.48.25,1.48.55-.66.54-1.48.53S454.25,160.32,454.25,160Z" style="fill: #872538"/>
          <path d="M524.36,154.77c0-.3.88-.54,2-.54s2,.25,2,.55-.88.54-2,.54S524.36,155.07,524.36,154.77Z" style="fill: #872538"/>
          <path d="M376.33,135.92c0-.3,1.33-.54,3-.54s3,.25,3,.55-1.32.54-3,.54S376.33,136.22,376.33,135.92Z" style="fill: #872538"/>
        </g>
        <g>
          <g>
            <path d="M109.45,122.93a1.3,1.3,0,0,1,.43-1.44l4.92-3.8a1.29,1.29,0,0,1,2,.61c.24.73,2.31,7.2-.4,10a2.75,2.75,0,0,1-1,.68,2.3,2.3,0,0,1-1.44.14C111.62,128.65,109.92,124.27,109.45,122.93Z" style="fill: #c3c3c7"/>
            <path d="M109.43,143.35c-.64-2.53-1.08-6,.48-8.08a2.27,2.27,0,0,1,2-1c.62.05,2.51.21,5.66,6.4a1.29,1.29,0,0,1,0,1.12,1.25,1.25,0,0,1-.67.65l-.2.07c-1.62.4-3.53,1-5.67,1.73a1.29,1.29,0,0,1-1.68-.9Z" style="fill: #c3c3c7"/>
            <path d="M99.77,147.15c-.54-2-1.17-5.79.61-8a2.34,2.34,0,0,1,2.09-.94c1.61.16,3.39,2.09,5.31,5.74a1.31,1.31,0,0,1-.64,1.79h0c-1.7.67-3.53,1.41-5.58,2.28a1.33,1.33,0,0,1-1.07,0A1.28,1.28,0,0,1,99.77,147.15Z" style="fill: #c3c3c7"/>
            <path d="M79.67,154.3c-.58-2.43-1-5.75.53-7.78a2.29,2.29,0,0,1,2-1c1.69.14,3.62,2.35,5.75,6.57a1.26,1.26,0,0,1,0,1.09,1.29,1.29,0,0,1-.68.68l-.13,0a38.4,38.4,0,0,1-6.13,1.36A1.28,1.28,0,0,1,79.67,154.3Z" style="fill: #c3c3c7"/>
            <path d="M68.26,153.31c.27-2.32,1-5.38,3.18-6.7a2.32,2.32,0,0,1,2.31-.17c1.08.51,1.86,1.84,2.48,4.19a28.13,28.13,0,0,1,.65,3.5,1.27,1.27,0,0,1-.33,1,1.25,1.25,0,0,1-.44.31,1.28,1.28,0,0,1-.55.1,30.16,30.16,0,0,1-6.33-.85A1.29,1.29,0,0,1,68.26,153.31Z" style="fill: #c3c3c7"/>
            <path d="M90,151.45a18.65,18.65,0,0,1-.7-3.39c-.23-2.32.15-4.1,1.11-5.31a2.37,2.37,0,0,1,2.12-.94c1.19.13,2.37,1.12,3.72,3.12a29.57,29.57,0,0,1,1.8,3.08,1.31,1.31,0,0,1-.64,1.76l-2.37,1-3.3,1.44h0a1.3,1.3,0,0,1-1.74-.8Z" style="fill: #c3c3c7"/>
            <path d="M60.63,142.3a1.28,1.28,0,0,1,.84-.73c1.74-.47,3.59-1,5.66-1.78a1.28,1.28,0,0,1,1.05.09,1.31,1.31,0,0,1,.64.83c.55,2.35.87,5.56-.73,7.56a2.56,2.56,0,0,1-1,.77,2.2,2.2,0,0,1-1.11.17c-1.62-.16-3.41-2.11-5.33-5.8A1.24,1.24,0,0,1,60.63,142.3Z" style="fill: #c3c3c7"/>
            <path d="M69.94,139.23a1.32,1.32,0,0,1,.75-.75c1.68-.64,3.5-1.38,5.56-2.23a1.27,1.27,0,0,1,1.74.87c.51,2,1.09,5.66-.65,7.84a2.51,2.51,0,0,1-1,.76,2.32,2.32,0,0,1-1.11.18c-.59-.06-2.38-.23-5.24-5.61A1.31,1.31,0,0,1,69.94,139.23Z" style="fill: #c3c3c7"/>
            <path d="M79.48,135.33a1.28,1.28,0,0,1,.71-.75h0c1.66-.71,3.44-1.46,5.59-2.34a1.29,1.29,0,0,1,1.07,0,1.27,1.27,0,0,1,.67.83c.52,2,1.13,5.72-.63,7.92a2.54,2.54,0,0,1-1,.77,2.2,2.2,0,0,1-1.11.17c-.59,0-2.39-.22-5.24-5.61A1.3,1.3,0,0,1,79.48,135.33Z" style="fill: #c3c3c7"/>
            <path d="M89.24,131.3a1.33,1.33,0,0,1,.72-.75l.06,0c2-.79,3.79-1.53,5.61-2.28a1.29,1.29,0,0,1,1.74.84c1.45,5.12.12,7.53-.52,8.34a2.54,2.54,0,0,1-1,.76,2.24,2.24,0,0,1-1.12.17c-1.66-.17-3.49-2.19-5.44-6A1.24,1.24,0,0,1,89.24,131.3Z" style="fill: #c3c3c7"/>
            <path d="M99.17,127.21a1.29,1.29,0,0,1,.7-.75c2.1-.92,3.9-1.76,5.51-2.57a1.3,1.3,0,0,1,1.09,0,1.26,1.26,0,0,1,.72.81c1.55,5.22.19,7.69-.47,8.52a2.44,2.44,0,0,1-1,.76,2.24,2.24,0,0,1-1.12.17c-1.63-.16-3.44-2.14-5.38-5.89A1.3,1.3,0,0,1,99.17,127.21Z" style="fill: #c3c3c7"/>
          </g>
          <path d="M29.84,115.05C32,108.28,40.3,102.62,61.73,93.42,71.88,89.07,84.36,88.21,96,91.08c11.27,2.77,19.79,8.61,22.8,15.62a11,11,0,0,1,.33,8.74c-2.35,5.69-9.8,9.77-19.25,13.83-2.81,1.21-5.8,2.41-8.88,3.65-3.24,1.31-6.58,2.65-9.91,4.08-9.67,4.15-17.21,7-23.53,8.08A24.22,24.22,0,0,0,69,152c6.66,1.88,14.15,1.16,21.65-2.06L94,148.45c13.21-5.79,25.46-10.82,30.23-8.73a3.46,3.46,0,0,1,2,2.06c1.35,3.91-2.45,6.73-5.42,8.5a97.62,97.62,0,0,1-11,5.29c-2.15.93-4.49,1.9-7,3-3,1.25-6.08,2.54-9.45,4-9.39,4-18.92,4.88-27.56,2.46-6.85-1.92-11.87-5.49-14.3-8.19S42.72,144.56,40,140.45a22.74,22.74,0,0,1-2.77-3.61C31.69,128,27.91,121.22,29.84,115.05Z" style="fill: #dedee0"/>
          <path d="M29.84,115.05C32,108.28,40.3,102.62,61.73,93.42c.49-.21,1-.41,1.49-.6-18.11,8.06-25.42,13.38-27.38,19.66s1.84,12.92,7.38,21.79c4.06,6.48,9.56,9.21,17.33,8.62,6.92-.54,15.28-3.64,26.53-8.46,3.32-1.43,6.67-2.78,9.9-4.08,1.92-.77,3.81-1.53,5.63-2.29-.89.41-1.81.81-2.74,1.21-2.81,1.21-5.8,2.41-8.88,3.65-3.24,1.31-6.58,2.65-9.91,4.08-11.24,4.83-19.6,7.92-26.53,8.46a23.81,23.81,0,0,1-3.26,0c2.47,3.6,5,7.17,6.33,8.65,2.42,2.7,7.45,6.27,14.3,8.19,8.64,2.42,18.17,1.57,27.55-2.46l-6.12,2.63c-9.39,4-18.92,4.88-27.56,2.46-6.84-1.92-11.87-5.49-14.29-8.19S42.72,144.56,40,140.45a22.74,22.74,0,0,1-2.77-3.61C31.69,128,27.91,121.22,29.84,115.05Z" style="fill: #c3c3c7"/>
          <path d="M100.26,104.9a6.61,6.61,0,0,1,8.45,3.42,11.18,11.18,0,0,1,1.14,3.89,3.71,3.71,0,0,1-2.46,3.73c-3,1.3-7.63.35-9-2.82C96.74,109.26,97.45,106.11,100.26,104.9Z" style="fill: #403f44"/>
          <path d="M100.26,104.9a6.2,6.2,0,0,1,3.58-.37c-.73,1.56-.61,3.68.42,6.08a6.15,6.15,0,0,0,5.28,3.34,4,4,0,0,1-2.15,2c-3,1.3-7.63.35-9-2.82C96.74,109.26,97.45,106.11,100.26,104.9Z" style="fill: #313133"/>
          <path d="M57.61,108.48c1.6-5.63,9.44-8.91,14-10.37,5.26-1.7,9.92-1.58,13.86.33,4.5,2.2,7.88,6.71,10,13.41a9,9,0,0,1-2.84,10.21,23.35,23.35,0,0,1-6.3,3.74c-1.53.65-3.26,1.29-5.23,1.93-11.29,3.63-14.76-1.6-18.13-6.67a41.59,41.59,0,0,0-2.83-3.91h0C57.66,114.21,56.81,111.29,57.61,108.48Z" style="fill: #403f44"/>
          <path d="M57.61,108.48c1.53-5.38,8.77-8.62,13.36-10.17-3.28,1.79-6.34,4.28-7.28,7.56-.8,2.81.06,5.73,2.56,8.67h0a43.47,43.47,0,0,1,2.83,3.91c3.36,5.06,6.84,10.3,18.13,6.66.66-.21,1.29-.42,1.9-.64a29.73,29.73,0,0,1-2.76,1.33c-1.53.65-3.26,1.29-5.23,1.93-11.29,3.63-14.76-1.6-18.13-6.67a41.59,41.59,0,0,0-2.83-3.91h0C57.66,114.21,56.81,111.29,57.61,108.48Z" style="fill: #313133"/>
          <path d="M40.9,116.73a4.23,4.23,0,0,1,2.22-2.66,9.84,9.84,0,0,1,13.32,3.57c.25.45.56,1,.92,1.57,2.07,3.48,5.2,8.73,4,13a7,7,0,0,1-3.65,4.34l-.44.2c-1.66.72-4.16.76-7.2-2.31a31.57,31.57,0,0,1-4.8-6.84h0c-.38-.68-.84-1.42-1.32-2.2C42.11,122.45,40.2,119.37,40.9,116.73Z" style="fill: #403f44"/>
          <path d="M40.9,116.73a4.23,4.23,0,0,1,2.22-2.66,10.31,10.31,0,0,1,4.41-1.23,3.86,3.86,0,0,0-.64,1.32c-.7,2.64,1.21,5.72,3.06,8.7.49.79.95,1.52,1.32,2.21h0a31.13,31.13,0,0,0,4.81,6.83,8.65,8.65,0,0,0,4.17,2.6,7.88,7.88,0,0,1-2.53,2.09l-.44.21c-1.66.71-4.16.75-7.2-2.32a31.57,31.57,0,0,1-4.8-6.84h0c-.38-.68-.84-1.42-1.32-2.2C42.11,122.45,40.2,119.37,40.9,116.73Z" style="fill: #313133"/>
        </g>
        <g style="opacity: 0.15;mix-blend-mode: multiply">
          <path d="M407.24,130.94c0,.9-2.43,1.63-5.43,1.63s-5.43-.73-5.43-1.63,2.44-1.63,5.43-1.63S407.24,130,407.24,130.94Z" style="fill: #872538"/>
          <ellipse cx="397.37" cy="135.28" rx="1.97" ry="0.54" style="fill: #872538"/>
          <path d="M431.92,147.23c0,.3-1.32.54-3,.54s-3-.24-3-.54,1.33-.54,3-.54S431.92,146.93,431.92,147.23Z" style="fill: #872538"/>
          <path d="M462.53,153.2c0,1.2-6.41,2.18-14.32,2.18s-14.31-1-14.31-2.18,6.41-2.17,14.31-2.17S462.53,152,462.53,153.2Z" style="fill: #872538"/>
        </g>
        <g>
          <path d="M416.33,15.84,419,8.93h1.15V17h-.9V10.9L416.84,17h-1.08l-2.42-6.09V17h-.9v-8h1.21Z" style="fill: #933"/>
          <path d="M434.65,13.86c0,1.76.81,2.46,2.14,2.46s2.15-.7,2.15-2.46V8.93h.84v5.34a2.7,2.7,0,0,1-3,2.85c-2.23,0-3-1.25-3-2.85V8.93h.89Z" style="fill: #933"/>
          <path d="M455.85,12.36c1.2.4,2.39.9,2.39,2.48s-1.37,2.29-2.84,2.29a5.51,5.51,0,0,1-2.61-.67l.26-.89a3.5,3.5,0,0,0,2.27.75c1.45,0,2-.56,2-1.31,0-1.1-1.13-1.49-2.08-1.81-1.37-.46-2.26-1-2.26-2.29s1.12-2,2.55-2a5.61,5.61,0,0,1,2.26.47l-.25.94a3.34,3.34,0,0,0-2.06-.6c-1,0-1.62.36-1.62,1.19S454.45,11.89,455.85,12.36Z" style="fill: #933"/>
          <path d="M475.87,17H471.3v-8h4.33v.86H472.2v2.5h2.63v.85H472.2v3h3.67Z" style="fill: #933"/>
          <path d="M495.92,13A3.86,3.86,0,0,1,492,17.13c-2.53,0-3.76-1.89-3.76-4.07s1.39-4.19,3.85-4.19A3.8,3.8,0,0,1,495.92,13Zm-1,0c0-2-.89-3.33-2.9-3.33s-2.82,1.34-2.82,3.25c0,2.23,1,3.39,2.8,3.39C494.09,16.32,494.94,14.86,494.94,13Z" style="fill: #933"/>
          <path d="M523.37,8.93h.06c.75,0,1.71-.06,2.54-.06a4.1,4.1,0,0,1,2.74.92,4.33,4.33,0,0,1,1.2,3.25c0,2.2-1.2,4.09-3.81,4.09a24.2,24.2,0,0,1-2.73-.15Zm.89.79v6.53c.5.05,1.13.07,1.81.07,1.88,0,2.85-1.16,2.85-3.37,0-1.95-.75-3.27-2.88-3.27C525.41,9.68,524.76,9.69,524.26,9.72Z" style="fill: #933"/>
          <path d="M547.67,17h-4.56v-8h4.32v.86H544v2.5h2.63v.85H544v3h3.67Z" style="fill: #933"/>
        </g>
        <g>
          <path d="M416.72,73.61h-2.55v3.84h-.91v-8h4.35v.85h-3.44v2.5h2.55Z" style="fill: #933"/>
          <path d="M422.65,73.73a1.89,1.89,0,0,1-.11.74h-4.11v.12c0,1.24.64,2.36,2,2.36a3.64,3.64,0,0,0,2-.7l.15.69a4.29,4.29,0,0,1-2.22.66,2.75,2.75,0,0,1-2.8-2.95,2.8,2.8,0,0,1,2.89-3A2,2,0,0,1,422.65,73.73Zm-4.13.09h3.33a1.55,1.55,0,0,0,0-.22,1.33,1.33,0,0,0-1.49-1.26A1.8,1.8,0,0,0,418.52,73.82Z" style="fill: #933"/>
          <path d="M423.38,74.66c0-1.61.86-3,2.59-3a2,2,0,0,1,2,1.23V68.43h.85v9h-.67l-.1-1H428a2.6,2.6,0,0,1-2.19,1.15C424.18,77.6,423.38,76.21,423.38,74.66Zm4.62,1V73.86a2,2,0,0,0-1.91-1.48c-1.12,0-1.81,1-1.81,2.32,0,1,.41,2.18,1.66,2.18A2.42,2.42,0,0,0,428,75.65Z" style="fill: #933"/>
          <path d="M435.05,73.73a1.89,1.89,0,0,1-.11.74h-4.11v.12c0,1.24.64,2.36,2,2.36a3.68,3.68,0,0,0,2-.7l.15.69a4.26,4.26,0,0,1-2.22.66,2.75,2.75,0,0,1-2.8-2.95,2.8,2.8,0,0,1,2.89-3A2,2,0,0,1,435.05,73.73Zm-4.13.09h3.33a1.55,1.55,0,0,0,0-.22,1.33,1.33,0,0,0-1.49-1.26A1.79,1.79,0,0,0,430.92,73.82Z" style="fill: #933"/>
          <path d="M439.16,72.75a1.55,1.55,0,0,0-.76-.25c-.65,0-1.21.78-1.41,1.67v3.28h-.85V71.84h.67l.1,1.24h0a1.73,1.73,0,0,1,1.61-1.42,1.37,1.37,0,0,1,.85.28Z" style="fill: #933"/>
          <path d="M440.46,69.16a.67.67,0,0,1,.64.64.64.64,0,0,1-.64.61.61.61,0,0,1-.61-.61A.64.64,0,0,1,440.46,69.16Zm.43,8.29H440V71.84h.85Z" style="fill: #933"/>
          <path d="M446.72,72.87a3.5,3.5,0,0,0-1.86-.54,2,2,0,0,0-2,2.2,2.14,2.14,0,0,0,2.07,2.4,2.92,2.92,0,0,0,1.86-.73L447,77a4.35,4.35,0,0,1-2.19.61,2.74,2.74,0,0,1-2.82-3,2.71,2.71,0,0,1,2.9-2.94,4.19,4.19,0,0,1,2.05.49Z" style="fill: #933"/>
          <path d="M453.2,74.69a2.65,2.65,0,0,1-2.8,2.91,3,3,0,1,1,2.8-2.91Zm-.91,0c0-1.23-.61-2.36-2-2.36s-1.89,1-1.89,2.25.6,2.36,2,2.36S452.29,75.91,452.29,74.7Z" style="fill: #933"/>
          <path d="M463.39,77.45h-1l-1.19-2.7h-3.59l-1.08,2.7h-1l3.22-8h1.11Zm-5.47-3.56h2.88l-1.52-3.46Z" style="fill: #933"/>
          <path d="M464.26,76.44a.61.61,0,0,1,.59.59.59.59,0,0,1-.59.56.56.56,0,0,1-.56-.56A.58.58,0,0,1,464.26,76.44Z" style="fill: #933"/>
          <path d="M471.5,72.83c1.22.4,2.44.9,2.44,2.48S472.53,77.6,471,77.6a5.57,5.57,0,0,1-2.65-.67l.25-.89a3.6,3.6,0,0,0,2.33.76c1.48,0,2-.56,2-1.32,0-1.1-1.16-1.49-2.12-1.8-1.41-.47-2.31-1-2.31-2.3s1.14-2,2.6-2a5.88,5.88,0,0,1,2.31.46l-.26.94a3.5,3.5,0,0,0-2.1-.6c-1,0-1.66.37-1.66,1.19S470.07,72.36,471.5,72.83Z" style="fill: #933"/>
          <path d="M480.3,74.69a2.65,2.65,0,0,1-2.8,2.91,3,3,0,1,1,2.8-2.91Zm-.91,0c0-1.23-.61-2.36-2-2.36s-1.89,1-1.89,2.25.59,2.36,2,2.36S479.39,75.91,479.39,74.7Z" style="fill: #933"/>
          <path d="M482.3,77.45h-.86v-9h.86Z" style="fill: #933"/>
          <path d="M489.12,74.69a2.64,2.64,0,0,1-2.79,2.91,3,3,0,1,1,2.79-2.91Zm-.9,0c0-1.23-.61-2.36-2-2.36s-1.89,1-1.89,2.25.59,2.36,2,2.36S488.22,75.91,488.22,74.7Zm-2.84-4-.07-.24,0-.09,2.2-1.23a.42.42,0,0,1,.44.43.74.74,0,0,1-.05.23l-2.47.94Z" style="fill: #933"/>
          <path d="M493.22,72.75a1.55,1.55,0,0,0-.76-.25c-.65,0-1.21.78-1.41,1.67v3.28h-.85V71.84h.67l.1,1.24h0a1.73,1.73,0,0,1,1.61-1.42,1.37,1.37,0,0,1,.85.28Z" style="fill: #933"/>
          <path d="M493.66,76.72l3-4.16h-2.84v-.72h3.83v.71l-3,4.19h3.11v.71h-4.07Z" style="fill: #933"/>
          <path d="M502.29,77.45l-.1-1h-.05a2.88,2.88,0,0,1-2.27,1.15A1.52,1.52,0,0,1,498.26,76c0-1.86,2.16-2.06,3.29-2.06h.55v-.14a1.21,1.21,0,0,0-.49-1.13,1.84,1.84,0,0,0-1.08-.24,3.07,3.07,0,0,0-1.66.49l-.19-.73a3.78,3.78,0,0,1,1.95-.48,2.91,2.91,0,0,1,1.56.36,1.79,1.79,0,0,1,.77,1.62v3.81Zm-.19-1.8V74.51H502c-1.32,0-2.84.13-2.84,1.4a.89.89,0,0,0,1,1A2.45,2.45,0,0,0,502.1,75.65Z" style="fill: #933"/>
          <path d="M508.28,77.45v-3.7c0-1-.49-1.37-1.17-1.37a2,2,0,0,0-1.92,1.48v3.59h-.85V71.84H505l.1,1h.05a2,2,0,0,1,2.07-1.23,1.74,1.74,0,0,1,1.9,2v3.81Z" style="fill: #933"/>
          <path d="M515.83,74.69A2.64,2.64,0,0,1,513,77.6a3,3,0,1,1,2.79-2.91Zm-.9,0c0-1.23-.61-2.36-2-2.36s-1.89,1-1.89,2.25.6,2.36,2,2.36S514.93,75.91,514.93,74.7Z" style="fill: #933"/>
          <path d="M519.7,69.41c.52,0,1.29-.06,1.88-.06,1.44,0,2.4.71,2.4,2.09a1.77,1.77,0,0,1-.83,1.56,2.1,2.1,0,0,1,1.56,2.1c0,1.35-1,2.5-3,2.5a13.45,13.45,0,0,1-2-.15ZM523,71.34c0-.7-.34-1.19-1.32-1.19l-1,0v2.62h.75A1.43,1.43,0,0,0,523,71.34ZM523.7,75c0-.92-.57-1.51-2.05-1.51l-1,0v3.25c.32,0,.68,0,1.06,0C523,76.8,523.7,76.17,523.7,75Z" style="fill: #933"/>
          <path d="M529.36,77.45l-.1-1h0a2.88,2.88,0,0,1-2.27,1.15A1.52,1.52,0,0,1,525.33,76c0-1.86,2.16-2.06,3.3-2.06h.55v-.14a1.22,1.22,0,0,0-.5-1.13,1.8,1.8,0,0,0-1.08-.24,3,3,0,0,0-1.65.49l-.2-.73a3.78,3.78,0,0,1,2-.48,2.91,2.91,0,0,1,1.56.36,1.79,1.79,0,0,1,.77,1.62v3.81Zm-.18-1.8V74.51h-.11c-1.32,0-2.83.13-2.83,1.4a.89.89,0,0,0,1,1A2.48,2.48,0,0,0,529.18,75.65Z" style="fill: #933"/>
          <path d="M534.44,72.75a1.62,1.62,0,0,0-.77-.25c-.65,0-1.21.78-1.4,1.67v3.28h-.86V71.84h.67l.1,1.24h.05a1.73,1.73,0,0,1,1.61-1.42,1.33,1.33,0,0,1,.85.28Z" style="fill: #933"/>
          <path d="M538.33,72.75a1.55,1.55,0,0,0-.76-.25c-.65,0-1.21.78-1.41,1.67v3.28h-.85V71.84H536l.1,1.24h0a1.73,1.73,0,0,1,1.61-1.42,1.37,1.37,0,0,1,.85.28Z" style="fill: #933"/>
          <path d="M543.84,73.73a2.1,2.1,0,0,1-.11.74h-4.11v.12c0,1.24.63,2.36,2,2.36a3.68,3.68,0,0,0,2-.7l.15.69a4.29,4.29,0,0,1-2.22.66,2.75,2.75,0,0,1-2.81-2.95,2.81,2.81,0,0,1,2.9-3A2,2,0,0,1,543.84,73.73Zm-4.13.09H543a.78.78,0,0,0,0-.22,1.33,1.33,0,0,0-1.49-1.26A1.79,1.79,0,0,0,539.71,73.82Z" style="fill: #933"/>
          <path d="M545.19,72.42h-.94V72l1-.13.18-1.69H546v1.69h1.32v.58H546v3.89c0,.52.15.63.48.63a1.52,1.52,0,0,0,.89-.29l.17.65a3.27,3.27,0,0,1-1.28.29c-1,0-1.11-.66-1.11-1.26Z" style="fill: #933"/>
          <path d="M553.6,74.69a2.65,2.65,0,0,1-2.8,2.91,3,3,0,1,1,2.8-2.91Zm-.91,0c0-1.23-.61-2.36-2-2.36s-1.89,1-1.89,2.25.59,2.36,2,2.36S552.69,75.91,552.69,74.7Z" style="fill: #933"/>
        </g>
        <g>
          <path d="M394.35,37.56c-4.57-4.57-36.54-30.45-63.94-9.13,0,0,6.09-4.57,21.31-4.57a42.47,42.47,0,0,1,35,18.27c7.62,10.65,13.7,41.1-10.65,42.62s-16.75-32-6.09-38.06l-7.61,12.18h4.56c4.57-9.13,15.23-18.27,15.23-18.27s-10.81-11-21.32-13.7a44.63,44.63,0,0,0-10.65-1.52,22.62,22.62,0,0,0-7.61,1.52V33a4.74,4.74,0,0,0,1.52,3s-4.57,32-36.54,42.62-57.85-12.18-62.42-21.31-7.61-25.88,4.57-32c0,0-9.13-3-13.7,9.13s4.57,57.85,60.89,57.85c48.19,0,52.93-40.1,53.29-46v.3c0,9.14-3.05,15.23-4.57,24.36s6.09,30.45,30.45,30.45S405,77.14,405,77.14s1.52-9.13,0-16.75S398.91,42.13,394.35,37.56Z" style="fill: #f93"/>
          <path d="M376.08,52.78s0,19.79-7.61,10.66h-6.09s-1.53,6.09,0,10.66h6.09c15.22,0,18.26-25.88,18.26-27.41s-3-4.56-3-4.56C377.6,52.78,376.08,52.78,376.08,52.78Z" style="fill: #f93"/>
          <path d="M394.35,34.51S402,30,391.3,13.2,373,1,371.51,2.55s-3,3-6.09,0c0,0-7.61-12.18-19.79,16.74C345.63,19.29,370,13.2,394.35,34.51Zm-6.09-18.26c4.56,1.52,3,6.09,1.52,7.61s-3,1.52-3-3.05S388.26,16.25,388.26,16.25Z" style="fill: #f93"/>
          <polygon points="405 52.78 408.05 61.92 555.71 61.92 555.71 52.78 405 52.78" style="fill: #f93"/>
          <polygon points="330.41 61.92 331.93 52.78 246.68 52.78 251.24 61.92 330.41 61.92" style="fill: #f93"/>
        </g>
        <g>
          <path d="M412,21.45H412c.79,0,1.79-.09,2.65-.09,2.63,0,4.38,1.35,4.38,3.86,0,2-1.33,3.75-4.18,3.75-.58,0-1.09,0-1.55-.06v4.58H412Zm1.37,1.15v5.11c.44,0,.95.05,1.5.05a2.41,2.41,0,0,0,2.72-2.68c0-1.5-.72-2.52-2.76-2.52C414.27,22.56,413.76,22.58,413.32,22.6Z" style="fill: #933"/>
          <path d="M431.05,33.49H429.5l-1.77-4.05h-5.39l-1.6,4.05h-1.46l4.82-12h1.66Zm-8.2-5.33h4.31L424.9,23Z" style="fill: #933"/>
          <path d="M439.48,33.49h-6.76v-12h1.37V32.21h5.39Z" style="fill: #933"/>
          <path d="M448.57,33.49h-7v-12h6.61v1.27H443v3.74h4v1.28h-4v4.47h5.6Z" style="fill: #933"/>
          <path d="M461.91,27.49c0,3.21-2,6.22-6,6.22s-5.75-2.83-5.75-6.09c0-3.47,2.12-6.26,5.88-6.26S461.91,24.2,461.91,27.49Zm-1.5.05c0-2.95-1.37-5-4.44-5s-4.3,2-4.3,4.87c0,3.34,1.51,5.08,4.27,5.08C459.11,32.51,460.41,30.32,460.41,27.54Z" style="fill: #933"/>
          <path d="M466.11,23.64v9.85h-1.36v-12h1.66l6.2,9.87V21.45H474v12h-1.66Z" style="fill: #933"/>
          <path d="M485.2,22.72h-3.85V33.49H480V22.72h-3.85V21.45h9.07Z" style="fill: #933"/>
          <path d="M498,27.49c0,3.21-2,6.22-6,6.22s-5.75-2.83-5.75-6.09c0-3.47,2.12-6.26,5.88-6.26S498,24.2,498,27.49Zm-1.5.05c0-2.95-1.37-5-4.43-5s-4.31,2-4.31,4.87c0,3.34,1.52,5.08,4.27,5.08C495.16,32.51,496.45,30.32,496.45,27.54Z" style="fill: #933"/>
          <path d="M507.54,33.49h-6.75v-12h1.37V32.21h5.38Z" style="fill: #933"/>
          <path d="M520.33,27.49c0,3.21-2,6.22-6,6.22s-5.75-2.83-5.75-6.09c0-3.47,2.12-6.26,5.88-6.26S520.33,24.2,520.33,27.49Zm-1.5.05c0-2.95-1.37-5-4.43-5s-4.31,2-4.31,4.87c0,3.34,1.51,5.08,4.27,5.08C517.53,32.51,518.83,30.32,518.83,27.54Z" style="fill: #933"/>
          <path d="M532.44,32.49a7.45,7.45,0,0,1-4.22,1.22c-4,0-5.82-2.83-5.82-6.11,0-3.45,2.05-6.24,6-6.24a9.71,9.71,0,0,1,3.85.78l-.38,1.31a6.68,6.68,0,0,0-3.57-.89c-3.25,0-4.4,2-4.4,4.89,0,3.32,1.47,5.06,4.36,5.06a6.79,6.79,0,0,0,2.79-.59V28.53h1.37Z" style="fill: #933"/>
          <path d="M534.39,20.33l-.11-.36.05-.13,3.3-1.82a.59.59,0,0,1,.64.62.72.72,0,0,1-.07.34l-3.67,1.41Zm2.42,13.16h-1.37v-12h1.37Z" style="fill: #933"/>
          <path d="M550.49,33.49h-1.55l-1.77-4.05h-5.39l-1.61,4.05h-1.45l4.81-12h1.66Zm-8.2-5.33h4.31L544.34,23Z" style="fill: #933"/>
        </g>
        <g>
          <path d="M412,37.86h.06c.76,0,1.73-.06,2.58-.06a4.23,4.23,0,0,1,2.77.91A4.28,4.28,0,0,1,418.62,42c0,2.19-1.22,4.09-3.86,4.09a27.37,27.37,0,0,1-2.77-.15Zm.9.78v6.54c.51,0,1.14.07,1.83.07,1.92,0,2.9-1.16,2.9-3.38,0-1.95-.77-3.27-2.92-3.27C414.06,38.6,413.4,38.62,412.89,38.64Z" style="fill: #933"/>
          <path d="M428.4,45.91h-4.63v-8h4.38v.85h-3.48v2.5h2.67v.86h-2.67v3h3.73Z" style="fill: #933"/>
          <path d="M445.73,45.24a4.89,4.89,0,0,1-2.8.82c-2.64,0-3.86-1.9-3.86-4.09a3.84,3.84,0,0,1,4-4.17,6.47,6.47,0,0,1,2.55.52l-.25.88a4.44,4.44,0,0,0-2.38-.6c-2.15,0-2.92,1.32-2.92,3.27,0,2.22,1,3.38,2.9,3.38a4.55,4.55,0,0,0,1.85-.39V42.59h.91Z" style="fill: #933"/>
          <path d="M451.8,42.79c0,1.75.81,2.46,2.16,2.46s2.18-.71,2.18-2.46V37.86H457V43.2A2.71,2.71,0,0,1,454,46c-2.26,0-3.07-1.24-3.07-2.84V37.86h.91Z" style="fill: #933"/>
          <path d="M469.16,45.91h-1L467,43.2h-3.57l-1.07,2.71h-1l3.2-8h1.1Zm-5.43-3.56h2.85l-1.5-3.47Z" style="fill: #933"/>
          <path d="M473.52,37.86h.06c.77,0,1.73-.06,2.58-.06a4.24,4.24,0,0,1,2.78.91A4.31,4.31,0,0,1,480.16,42c0,2.19-1.22,4.09-3.87,4.09a27.72,27.72,0,0,1-2.77-.15Zm.91.78v6.54c.51,0,1.14.07,1.83.07,1.91,0,2.89-1.16,2.89-3.38,0-1.95-.76-3.27-2.91-3.27C475.59,38.6,474.94,38.62,474.43,38.64Z" style="fill: #933"/>
          <path d="M491.89,45.91h-1l-1.17-2.71h-3.58l-1.06,2.71h-1l3.2-8h1.1Zm-5.44-3.56h2.86l-1.5-3.47Z" style="fill: #933"/>
          <path d="M500.73,45.91h-4.48v-8h.91v7.19h3.57Z" style="fill: #933"/>
          <path d="M512.07,45.91h-1l-1.17-2.71h-3.58l-1.06,2.71h-1l3.2-8h1.1Zm-5.44-3.56h2.86L508,38.88Z" style="fill: #933"/>
          <path d="M517.33,44.68c0,1.72-.66,3.13-2.1,3.13l-.17-.67c1.27,0,1.37-1.36,1.37-2.48v-6.8h.9Z" style="fill: #933"/>
          <path d="M529.65,45.91h-1l-1.18-2.71h-3.57l-1.07,2.71h-1l3.19-8h1.1Zm-5.43-3.56h2.86l-1.51-3.47Z" style="fill: #933"/>
          <path d="M534,37.86c.57,0,1.23-.06,1.8-.06,1.74,0,2.91.82,2.91,2.32A2.22,2.22,0,0,1,537,42.36L540,45.91h-1.13l-3-3.44a9.54,9.54,0,0,1-1,0v3.48H534Zm.9.77v3c.29,0,.63,0,1,0,1.18,0,1.8-.57,1.8-1.64,0-.84-.47-1.42-1.83-1.42C535.55,38.6,535.21,38.62,534.92,38.63Z" style="fill: #933"/>
          <path d="M551.15,45.91h-1L549,43.2h-3.57l-1.07,2.71h-1l3.2-8h1.1Zm-5.43-3.56h2.85l-1.5-3.47Z" style="fill: #933"/>
        </g>
      </g>
    </g>
  </g>
</svg>
