<svg xmlns="http://www.w3.org/2000/svg" xmlns:xlink="http://www.w3.org/1999/xlink" viewBox="0 0 585 104.13">
  <defs>
    <linearGradient id="Áåçûìÿííûé_ãðàäèåíò_6" data-name="Áåçûìÿííûé ãðàäèåíò 6" x1="318.69" y1="-89.95" x2="275.68" y2="171.44" gradientUnits="userSpaceOnUse">
      <stop offset="0" stop-color="#ffd662"/>
      <stop offset="0.14" stop-color="#fbcd5d"/>
      <stop offset="0.37" stop-color="#f0b550"/>
      <stop offset="0.66" stop-color="#de8e3a"/>
      <stop offset="0.99" stop-color="#c6581d"/>
      <stop offset="1" stop-color="#c5571c"/>
    </linearGradient>
  </defs>
  <g style="isolation: isolate">
    <g id="Capa_2" data-name="Capa 2">
      <g id="Ñëîé_1" data-name="Ñëîé 1">
        <path d="M61.21,57.41s53.21-11,58-11.56,101.49-.55,101.49-.55,39.13-2.88,45.23-3.88S342.07,52.63,345,52.63s75.09-27,84-27S527.68,53.74,542.49,55s32.56,7.45,32.56,7.45,7.9,0,9.87,3.66-34.55,3.67-33.56,8.56-177.7,13.44-177.7,13.44S427,89.29,427,95.4c0,8.55-195,13.27-194.48,2.44.23-4.88-85.86,5.22-88.82-4.55S42.48,84.62,42.48,84.62,0,75.47,0,72.07,61.21,57.41,61.21,57.41Z" style="fill: url(#Áåçûìÿííûé_ãðàäèåíò_6)"/>
        <path d="M49.93,60.67S8.09,67.13,11.16,71.82s117.07,17.19,119.11,7-26.58-5.48-26.58-5.48,50.1-2.34,52.14-8.6-54.19-2.35-54.19-2.35Z" style="fill: #872538;opacity: 0.42;mix-blend-mode: multiply"/>
        <path d="M161.64,58.22c0,3.07,53.22.53,53-1.78S181,52.09,181,52.09Z" style="fill: #872538;opacity: 0.42;mix-blend-mode: multiply"/>
        <g style="opacity: 0.15;mix-blend-mode: multiply">
          <path d="M235.46,77.07c0,.6-1.11,1.09-2.47,1.09s-2.47-.49-2.47-1.09S231.62,76,233,76,235.46,76.47,235.46,77.07Z" style="fill: #872538"/>
          <path d="M252.24,74.36c0,.9-2.43,1.62-5.43,1.62s-5.43-.72-5.43-1.62,2.43-1.63,5.43-1.63S252.24,73.46,252.24,74.36Z" style="fill: #872538"/>
          <path d="M269,78.16c0,.6-1.33,1.08-3,1.08s-3-.48-3-1.08,1.32-1.09,3-1.09S269,77.56,269,78.16Z" style="fill: #872538"/>
          <path d="M321.34,58.06c0,.3-.88.55-2,.55s-2-.25-2-.55.89-.54,2-.54S321.34,57.76,321.34,58.06Z" style="fill: #872538"/>
          <path d="M338.12,72.18c0,.9-2.43,1.63-5.43,1.63s-5.43-.73-5.43-1.63,2.44-1.63,5.43-1.63S338.12,71.28,338.12,72.18Z" style="fill: #872538"/>
          <ellipse cx="328.25" cy="76.53" rx="1.97" ry="0.54" style="fill: #872538"/>
          <path d="M284.82,64.58c0,.3-.67.54-1.49.54s-1.48-.24-1.48-.54.67-.54,1.48-.54S284.82,64.28,284.82,64.58Z" style="fill: #872538"/>
          <path d="M214.72,70c0,.3-.88.54-2,.54s-2-.24-2-.54.88-.54,2-.54S214.72,69.71,214.72,70Z" style="fill: #872538"/>
          <path d="M362.8,88.47c0,.3-1.32.55-3,.55s-3-.25-3-.55,1.33-.54,3-.54S362.8,88.17,362.8,88.47Z" style="fill: #872538"/>
          <path d="M393.41,94.45c0,1.2-6.41,2.17-14.32,2.17s-14.31-1-14.31-2.17,6.41-2.17,14.31-2.17S393.41,93.25,393.41,94.45Z" style="fill: #872538"/>
        </g>
        <g style="opacity: 0.15;mix-blend-mode: multiply">
          <path d="M503.65,58.25c0-.6,1.1-1.09,2.47-1.08s2.46.49,2.46,1.09-1.11,1.08-2.47,1.08S503.64,58.85,503.65,58.25Z" style="fill: #872538"/>
          <path d="M486.86,60.92c0-.9,2.43-1.62,5.43-1.62s5.43.75,5.42,1.65-2.43,1.62-5.43,1.61S486.85,61.82,486.86,60.92Z" style="fill: #872538"/>
          <path d="M470.08,57.07c0-.6,1.33-1.08,3-1.08s3,.5,3,1.1-1.33,1.08-3,1.08S470.08,57.67,470.08,57.07Z" style="fill: #872538"/>
          <path d="M417.7,77c0-.3.89-.54,2-.54s2,.25,2,.55-.88.54-2,.53S417.7,77.33,417.7,77Z" style="fill: #872538"/>
          <path d="M401,62.86c0-.9,2.44-1.62,5.44-1.61s5.43.74,5.42,1.64-2.43,1.62-5.43,1.62S401,63.76,401,62.86Z" style="fill: #872538"/>
          <path d="M408.87,58.54c0-.3.89-.54,2-.54s2,.25,2,.55-.88.54-2,.54S408.87,58.84,408.87,58.54Z" style="fill: #872538"/>
          <path d="M454.25,70.61c0-.3.66-.54,1.48-.54s1.48.24,1.48.54-.66.55-1.48.54S454.25,70.91,454.25,70.61Z" style="fill: #872538"/>
          <path d="M524.36,65.36c0-.3.88-.54,2-.54s2,.25,2,.55-.88.54-2,.54S524.36,65.66,524.36,65.36Z" style="fill: #872538"/>
          <path d="M376.33,46.51c0-.3,1.33-.54,3-.54s3,.25,3,.55-1.32.54-3,.54S376.33,46.81,376.33,46.51Z" style="fill: #872538"/>
        </g>
        <g>
          <g>
            <path d="M109.45,33.52a1.3,1.3,0,0,1,.43-1.44l4.92-3.8a1.29,1.29,0,0,1,2,.61c.24.73,2.31,7.2-.4,10a2.75,2.75,0,0,1-1,.68,2.3,2.3,0,0,1-1.44.14C111.62,39.24,109.92,34.85,109.45,33.52Z" style="fill: #c3c3c7"/>
            <path d="M109.43,53.94c-.64-2.53-1.08-6,.48-8.08a2.25,2.25,0,0,1,2-1c.62.05,2.51.21,5.66,6.4a1.29,1.29,0,0,1,0,1.12A1.25,1.25,0,0,1,117,53l-.2.07c-1.62.4-3.53,1-5.67,1.73a1.29,1.29,0,0,1-1.68-.9Z" style="fill: #c3c3c7"/>
            <path d="M99.77,57.74c-.54-2-1.17-5.79.61-8a2.34,2.34,0,0,1,2.09-.94c1.61.15,3.39,2.09,5.31,5.74a1.31,1.31,0,0,1-.64,1.79h0c-1.7.67-3.53,1.41-5.58,2.28a1.33,1.33,0,0,1-1.07,0A1.28,1.28,0,0,1,99.77,57.74Z" style="fill: #c3c3c7"/>
            <path d="M79.67,64.89c-.58-2.43-1-5.75.53-7.78a2.29,2.29,0,0,1,2-1c1.69.14,3.62,2.35,5.75,6.57a1.26,1.26,0,0,1,0,1.09,1.29,1.29,0,0,1-.68.68l-.13.05a38.4,38.4,0,0,1-6.13,1.36A1.28,1.28,0,0,1,79.67,64.89Z" style="fill: #c3c3c7"/>
            <path d="M68.26,63.9c.27-2.33,1-5.38,3.18-6.7A2.34,2.34,0,0,1,73.75,57c1.08.52,1.86,1.85,2.48,4.2a28.13,28.13,0,0,1,.65,3.5,1.24,1.24,0,0,1-.33,1,1.16,1.16,0,0,1-.44.32,1.28,1.28,0,0,1-.55.1,30.16,30.16,0,0,1-6.33-.85A1.29,1.29,0,0,1,68.26,63.9Z" style="fill: #c3c3c7"/>
            <path d="M90,62a18.65,18.65,0,0,1-.7-3.39c-.23-2.32.15-4.1,1.11-5.31a2.34,2.34,0,0,1,2.12-.94c1.19.13,2.37,1.12,3.72,3.12a29.57,29.57,0,0,1,1.8,3.08,1.31,1.31,0,0,1-.64,1.76l-2.37,1-3.3,1.44h0a1.32,1.32,0,0,1-1,0A1.27,1.27,0,0,1,90,62Z" style="fill: #c3c3c7"/>
            <path d="M60.63,52.89a1.28,1.28,0,0,1,.84-.73c1.74-.47,3.59-1,5.66-1.78a1.28,1.28,0,0,1,1.05.09,1.31,1.31,0,0,1,.64.83c.55,2.34.87,5.56-.73,7.56a2.56,2.56,0,0,1-1,.77A2.32,2.32,0,0,1,66,59.8c-1.62-.16-3.41-2.11-5.33-5.8A1.24,1.24,0,0,1,60.63,52.89Z" style="fill: #c3c3c7"/>
            <path d="M69.94,49.82a1.29,1.29,0,0,1,.75-.75c1.68-.65,3.5-1.38,5.56-2.23a1.25,1.25,0,0,1,1.07,0,1.28,1.28,0,0,1,.67.84c.51,2,1.09,5.66-.65,7.83a2.45,2.45,0,0,1-1,.77,2.2,2.2,0,0,1-1.11.17c-.59,0-2.38-.22-5.24-5.6A1.31,1.31,0,0,1,69.94,49.82Z" style="fill: #c3c3c7"/>
            <path d="M79.48,45.92a1.28,1.28,0,0,1,.71-.75h0c1.66-.71,3.44-1.46,5.59-2.34a1.29,1.29,0,0,1,1.07.05,1.27,1.27,0,0,1,.67.83c.52,2,1.13,5.72-.63,7.92a2.64,2.64,0,0,1-1,.77,2.2,2.2,0,0,1-1.11.17c-.59,0-2.39-.22-5.24-5.61A1.3,1.3,0,0,1,79.48,45.92Z" style="fill: #c3c3c7"/>
            <path d="M89.24,41.89a1.33,1.33,0,0,1,.72-.75l.06,0c2-.79,3.79-1.53,5.61-2.28a1.29,1.29,0,0,1,1.74.84c1.45,5.12.12,7.53-.52,8.33a2.48,2.48,0,0,1-1,.77,2.24,2.24,0,0,1-1.12.17c-1.66-.17-3.49-2.2-5.44-6A1.24,1.24,0,0,1,89.24,41.89Z" style="fill: #c3c3c7"/>
            <path d="M99.17,37.79a1.35,1.35,0,0,1,.7-.75c2.1-.91,3.9-1.75,5.51-2.56a1.29,1.29,0,0,1,1.81.78c1.55,5.22.19,7.69-.47,8.51a2.38,2.38,0,0,1-1,.77,2.24,2.24,0,0,1-1.12.17c-1.63-.16-3.44-2.14-5.38-5.89A1.32,1.32,0,0,1,99.17,37.79Z" style="fill: #c3c3c7"/>
          </g>
          <path d="M29.84,25.64C32,18.87,40.3,13.21,61.73,4,71.88-.34,84.36-1.2,96,1.67c11.27,2.77,19.79,8.61,22.8,15.62a11,11,0,0,1,.33,8.74c-2.35,5.68-9.8,9.77-19.25,13.83-2.81,1.21-5.8,2.41-8.88,3.65-3.24,1.3-6.58,2.65-9.91,4.08-9.67,4.15-17.21,7-23.53,8.08A24.22,24.22,0,0,0,69,62.57c6.66,1.88,14.15,1.16,21.65-2.06L94,59c13.21-5.79,25.46-10.82,30.23-8.73a3.46,3.46,0,0,1,2,2.06c1.35,3.91-2.45,6.73-5.42,8.5a97.62,97.62,0,0,1-11,5.29c-2.15.92-4.49,1.9-7,3-3,1.25-6.08,2.54-9.45,4C84,77.13,74.43,78,65.79,75.56c-6.85-1.92-11.87-5.49-14.3-8.19S42.72,55.14,40,51a22.2,22.2,0,0,1-2.77-3.6C31.69,38.57,27.91,31.81,29.84,25.64Z" style="fill: #dedee0"/>
          <path d="M29.84,25.64C32,18.87,40.3,13.21,61.73,4c.49-.21,1-.41,1.49-.6C45.11,11.47,37.8,16.79,35.84,23.06S37.68,36,43.22,44.86c4.06,6.47,9.56,9.21,17.33,8.61,6.92-.53,15.28-3.63,26.53-8.45,3.32-1.43,6.67-2.78,9.9-4.08,1.92-.78,3.81-1.53,5.63-2.29-.89.41-1.81.81-2.74,1.21-2.81,1.21-5.8,2.41-8.88,3.65-3.24,1.3-6.58,2.65-9.91,4.08-11.24,4.83-19.6,7.92-26.53,8.46a25.53,25.53,0,0,1-3.26,0c2.47,3.6,5,7.17,6.33,8.65,2.42,2.7,7.45,6.27,14.3,8.19,8.64,2.42,18.17,1.57,27.55-2.46L93.35,73.1C84,77.13,74.43,78,65.79,75.56,59,73.64,53.92,70.07,51.5,67.37S42.72,55.14,40,51a22.2,22.2,0,0,1-2.77-3.6C31.69,38.57,27.91,31.81,29.84,25.64Z" style="fill: #c3c3c7"/>
          <path d="M100.26,15.49a6.61,6.61,0,0,1,8.45,3.42,11.18,11.18,0,0,1,1.14,3.89,3.69,3.69,0,0,1-2.46,3.72c-3,1.31-7.63.36-9-2.81C96.74,19.85,97.45,16.7,100.26,15.49Z" style="fill: #403f44"/>
          <path d="M100.26,15.49a6.2,6.2,0,0,1,3.58-.37c-.73,1.56-.61,3.68.42,6.08a6.15,6.15,0,0,0,5.28,3.34,3.9,3.9,0,0,1-2.15,2c-3,1.31-7.63.36-9-2.81C96.74,19.85,97.45,16.7,100.26,15.49Z" style="fill: #313133"/>
          <path d="M57.61,19.07c1.6-5.63,9.44-8.92,14-10.38C76.85,7,81.51,7.11,85.45,9c4.5,2.2,7.88,6.71,10,13.41a9,9,0,0,1-2.84,10.21,23.35,23.35,0,0,1-6.3,3.74c-1.53.65-3.26,1.29-5.23,1.92C69.83,42,66.36,36.72,63,31.65a41.59,41.59,0,0,0-2.83-3.91h0C57.66,24.8,56.81,21.88,57.61,19.07Z" style="fill: #403f44"/>
          <path d="M57.61,19.07C59.14,13.69,66.38,10.45,71,8.9c-3.28,1.79-6.34,4.27-7.28,7.55-.8,2.82.06,5.74,2.56,8.68h0A43.47,43.47,0,0,1,69.08,29c3.36,5.06,6.84,10.3,18.13,6.66.66-.21,1.29-.42,1.9-.64-.83.45-1.75.9-2.76,1.33-1.53.65-3.26,1.29-5.23,1.92C69.83,42,66.36,36.72,63,31.65a41.59,41.59,0,0,0-2.83-3.91h0C57.66,24.8,56.81,21.88,57.61,19.07Z" style="fill: #313133"/>
          <path d="M40.9,27.32a4.23,4.23,0,0,1,2.22-2.66,9.84,9.84,0,0,1,13.32,3.57c.25.45.56,1,.92,1.57,2.07,3.48,5.2,8.73,4,13a7,7,0,0,1-3.65,4.33,3.55,3.55,0,0,1-.44.21c-1.66.72-4.16.76-7.2-2.32a31.23,31.23,0,0,1-4.8-6.83h0c-.38-.68-.84-1.42-1.32-2.21C42.11,33,40.2,30,40.9,27.32Z" style="fill: #403f44"/>
          <path d="M40.9,27.32a4.23,4.23,0,0,1,2.22-2.66,10.31,10.31,0,0,1,4.41-1.23,3.86,3.86,0,0,0-.64,1.32c-.7,2.64,1.21,5.72,3.06,8.7.49.78.95,1.52,1.32,2.21h0a31.13,31.13,0,0,0,4.81,6.83,8.65,8.65,0,0,0,4.17,2.6,7.73,7.73,0,0,1-2.53,2.08,3.55,3.55,0,0,1-.44.21c-1.66.72-4.16.76-7.2-2.32a31.23,31.23,0,0,1-4.8-6.83h0c-.38-.68-.84-1.42-1.32-2.21C42.11,33,40.2,30,40.9,27.32Z" style="fill: #313133"/>
        </g>
        <g style="opacity: 0.15;mix-blend-mode: multiply">
          <path d="M407.24,41.53c0,.9-2.43,1.63-5.43,1.63s-5.43-.73-5.43-1.63,2.44-1.63,5.43-1.63S407.24,40.63,407.24,41.53Z" style="fill: #872538"/>
          <ellipse cx="397.37" cy="45.87" rx="1.97" ry="0.54" style="fill: #872538"/>
          <path d="M431.92,57.82c0,.3-1.32.54-3,.54s-3-.24-3-.54,1.33-.54,3-.54S431.92,57.52,431.92,57.82Z" style="fill: #872538"/>
          <path d="M462.53,63.79c0,1.2-6.41,2.17-14.32,2.17s-14.31-1-14.31-2.17,6.41-2.17,14.31-2.17S462.53,62.59,462.53,63.79Z" style="fill: #872538"/>
        </g>
      </g>
    </g>
  </g>
</svg>
